<svg xmlns="http://www.w3.org/2000/svg" viewBox="0 0 865.73 172.54"><defs><linearGradient id="a" x1="121.38" x2="291.38" y1="95.54" y2="95.54" gradientUnits="userSpaceOnUse"><stop offset="0" stop-color="#d22f40"/><stop offset="1" stop-color="#fdbd32"/></linearGradient><linearGradient id="b" x1="391.81" x2="519.31" y1="112.54" y2="112.54" gradientUnits="userSpaceOnUse"><stop offset="0" stop-color="#97a550"/><stop offset="1" stop-color="#5ec0bc"/></linearGradient></defs><path d="M291.38 163.54c-38 0-62-136-85-136s-47 136-85 136" style="stroke:url(#a);fill:none;stroke-miterlimit:10;stroke-width:18px"/><path d="M519.31 163.54c-28.5 0-46.5-102-63.75-102s-35.25 102-63.75 102" style="fill:none;stroke-miterlimit:10;stroke-width:18px;stroke:url(#b)"/><path d="M103.17 170.75H85.76l.77-15.62h-.26c-5.89 12.29-17.41 17.41-38.66 17.41-17.15 0-29.18-4.1-36.35-12.03C3.07 151.55 0 137.21 0 109.31c0-44.8 11.52-59.9 46.34-59.9 12.54 0 22.53 2.05 29.95 5.89 4.86 2.56 6.91 5.12 8.96 11.01l.51-.26V0h17.41v170.75ZM26.37 70.4c-5.38 5.38-8.19 18.18-8.19 37.89 0 40.96 5.63 49.41 33.28 49.41 12.8 0 21.25-2.3 26.37-7.17 5.38-4.86 7.94-19.71 7.94-43.01 0-33.79-7.68-43.26-34.56-43.26-11.52 0-20.99 2.3-24.83 6.14ZM370.65 65.79h-46.08V139c0 14.85 3.33 18.69 16.64 18.69 14.59 0 17.92-4.1 17.92-22.78 0-1.79 0-3.33-.26-6.4H375c.26 3.58.26 7.17.26 8.96 0 24.58-10.24 35.07-34.3 35.07-18.43 0-28.16-4.86-32-15.36-1.54-4.35-1.79-7.42-1.79-18.18V65.79h-16.64V51.2h16.64V22.53h17.41V51.2h46.08v14.59ZM552.91 52.99l-1.79 13.82.51.26c7.42-12.29 16.9-16.9 34.05-16.9 22.78 0 33.02 10.75 33.02 34.05v8.19h-17.15v-9.73c0-12.54-5.63-17.66-19.71-17.66-12.54 0-21.76 4.35-25.6 12.29-2.3 4.86-3.33 11.78-3.33 23.55v71.68H535.5V52.99h17.41ZM741.32 134.65c.26 2.05.26 4.35.26 4.86 0 24.58-13.31 33.02-51.46 33.02-43.26 0-53.25-11.52-53.25-61.95s10.24-61.18 53.76-61.18c29.44 0 41.22 5.63 47.1 22.78 2.82 8.45 3.58 15.36 3.58 41.98h-86.02c.26 37.89 4.61 43.52 34.56 43.52s33.79-2.56 33.54-23.04h17.92ZM723.4 100.6c-.26-16.64-.51-19.46-2.56-25.34-3.07-8.7-10.75-11.78-29.95-11.78-29.95 0-35.58 5.89-35.33 37.12h67.84ZM844.74 82.43c-.26-17.15-3.07-18.94-30.72-18.94s-30.98 2.3-30.98 18.94c0 10.75 2.05 15.62 7.42 17.41q3.07 1.28 24.58 2.3 22.78 1.02 27.39 1.79c15.87 2.82 23.3 13.06 23.3 33.28 0 12.03-3.33 21.5-9.47 26.88-7.42 6.14-18.43 8.45-42.24 8.45-21.76 0-31.74-2.05-39.94-8.19-6.4-4.86-9.98-13.57-9.98-24.83 0-1.54 0-4.35.26-6.91h17.92c-.26 2.3-.26 4.61-.26 5.63 0 6.91 1.79 12.54 5.12 15.87 3.07 2.82 11.78 4.35 26.37 4.35 27.9 0 34.3-4.1 34.3-21.76 0-14.85-3.58-18.69-17.15-18.69-17.66-.26-38.91-2.05-45.82-3.84-14.08-3.33-19.46-12.03-19.46-31.23 0-26.62 9.98-33.54 49.41-33.54 26.11 0 38.4 3.84 44.03 13.31 2.56 4.61 3.33 8.7 3.33 19.71h-17.41Z"/></svg>