<?xml version="1.0" encoding="UTF-8"?>
<svg id="Layer_1" data-name="Layer 1" xmlns="http://www.w3.org/2000/svg" xmlns:xlink="http://www.w3.org/1999/xlink" viewBox="0 0 531.84 289.68">
  <defs>
    <style>
      .cls-1 {
        letter-spacing: -.03em;
      }

      .cls-2 {
        fill: #62c2ee;
      }

      .cls-2, .cls-3, .cls-4, .cls-5, .cls-6 {
        fill-rule: evenodd;
      }

      .cls-7 {
        letter-spacing: -.01em;
      }

      .cls-3 {
        fill: #898a89;
      }

      .cls-8 {
        clip-path: url(#clippath-20);
      }

      .cls-9 {
        letter-spacing: -.03em;
      }

      .cls-10 {
        clip-path: url(#clippath-11);
      }

      .cls-11 {
        clip-path: url(#clippath-16);
      }

      .cls-12, .cls-13 {
        fill: #fff;
      }

      .cls-14 {
        letter-spacing: -.02em;
      }

      .cls-15 {
        stroke-linejoin: round;
        stroke-width: 2px;
      }

      .cls-15, .cls-16, .cls-17, .cls-18, .cls-19, .cls-20, .cls-21, .cls-22, .cls-23 {
        fill: none;
      }

      .cls-15, .cls-22 {
        stroke: #fff;
      }

      .cls-24 {
        clip-path: url(#clippath-47);
      }

      .cls-25 {
        letter-spacing: 0em;
      }

      .cls-4 {
        fill: #aecb52;
      }

      .cls-26 {
        clip-path: url(#clippath-32);
      }

      .cls-27 {
        clip-path: url(#clippath-2);
      }

      .cls-28 {
        clip-path: url(#clippath-13);
      }

      .cls-29 {
        clip-path: url(#clippath-46);
      }

      .cls-30 {
        clip-path: url(#clippath-25);
      }

      .cls-31 {
        font-family: ArialMT, Arial;
      }

      .cls-31, .cls-13 {
        font-size: 14.04px;
      }

      .cls-32 {
        clip-path: url(#clippath-15);
      }

      .cls-33 {
        clip-path: url(#clippath-6);
      }

      .cls-34 {
        clip-path: url(#clippath-40);
      }

      .cls-35 {
        clip-path: url(#clippath-26);
      }

      .cls-16 {
        clip-path: url(#clippath-45);
      }

      .cls-16, .cls-17, .cls-18, .cls-19, .cls-20, .cls-23 {
        clip-rule: evenodd;
      }

      .cls-17 {
        clip-path: url(#clippath-29);
      }

      .cls-36 {
        clip-path: url(#clippath-7);
      }

      .cls-37 {
        clip-path: url(#clippath-21);
      }

      .cls-38 {
        clip-path: url(#clippath-34);
      }

      .cls-39 {
        letter-spacing: 0em;
      }

      .cls-18 {
        clip-path: url(#clippath-41);
      }

      .cls-40 {
        clip-path: url(#clippath-1);
      }

      .cls-41 {
        clip-path: url(#clippath-4);
      }

      .cls-42 {
        clip-path: url(#clippath-38);
      }

      .cls-43 {
        clip-path: url(#clippath-36);
      }

      .cls-44 {
        clip-path: url(#clippath-27);
      }

      .cls-45 {
        clip-path: url(#clippath-44);
      }

      .cls-46 {
        letter-spacing: 0em;
      }

      .cls-47 {
        letter-spacing: 0em;
      }

      .cls-48 {
        clip-path: url(#clippath-12);
      }

      .cls-49 {
        letter-spacing: 0em;
      }

      .cls-5 {
        fill: #ed7e23;
      }

      .cls-13 {
        font-family: Arial-BoldMT, Arial;
        font-weight: 700;
      }

      .cls-50 {
        clip-path: url(#clippath-24);
      }

      .cls-51 {
        clip-path: url(#clippath-30);
      }

      .cls-52 {
        letter-spacing: 0em;
      }

      .cls-6 {
        fill: #e95197;
      }

      .cls-53 {
        clip-path: url(#clippath-22);
      }

      .cls-54 {
        clip-path: url(#clippath-9);
      }

      .cls-55 {
        letter-spacing: 0em;
      }

      .cls-56 {
        clip-path: url(#clippath);
      }

      .cls-57 {
        letter-spacing: 0em;
      }

      .cls-58 {
        clip-path: url(#clippath-39);
      }

      .cls-20 {
        clip-path: url(#clippath-33);
      }

      .cls-59 {
        letter-spacing: -.01em;
      }

      .cls-60 {
        letter-spacing: 0em;
      }

      .cls-61 {
        clip-path: url(#clippath-19);
      }

      .cls-62 {
        clip-path: url(#clippath-31);
      }

      .cls-22 {
        stroke-miterlimit: 8;
      }

      .cls-63 {
        letter-spacing: 0em;
      }

      .cls-64 {
        clip-path: url(#clippath-3);
      }

      .cls-65 {
        clip-path: url(#clippath-43);
      }

      .cls-66 {
        clip-path: url(#clippath-8);
      }

      .cls-67 {
        letter-spacing: 0em;
      }

      .cls-23 {
        clip-path: url(#clippath-37);
      }

      .cls-68 {
        clip-path: url(#clippath-18);
      }

      .cls-69 {
        clip-path: url(#clippath-14);
      }

      .cls-70 {
        clip-path: url(#clippath-17);
      }

      .cls-71 {
        clip-path: url(#clippath-5);
      }

      .cls-72 {
        clip-path: url(#clippath-42);
      }

      .cls-73 {
        letter-spacing: 0em;
      }

      .cls-74 {
        clip-path: url(#clippath-10);
      }

      .cls-75 {
        clip-path: url(#clippath-23);
      }

      .cls-76 {
        clip-path: url(#clippath-28);
      }

      .cls-77 {
        letter-spacing: -.01em;
      }

      .cls-78 {
        clip-path: url(#clippath-35);
      }
    </style>
    <clipPath id="clippath">
      <rect class="cls-21" width="531.84" height="289.68"/>
    </clipPath>
    <clipPath id="clippath-1">
      <polygon class="cls-19" points="0 289.68 531.84 289.68 531.84 0 0 0 0 289.68 0 289.68"/>
    </clipPath>
    <clipPath id="clippath-2">
      <rect class="cls-21" width="531.84" height="289.68"/>
    </clipPath>
    <clipPath id="clippath-3">
      <polygon class="cls-19" points="0 289.68 531.84 289.68 531.84 0 0 0 0 289.68 0 289.68"/>
    </clipPath>
    <clipPath id="clippath-4">
      <rect class="cls-21" width="531.84" height="289.68"/>
    </clipPath>
    <clipPath id="clippath-5">
      <polygon class="cls-19" points="0 289.68 531.84 289.68 531.84 0 0 0 0 289.68 0 289.68"/>
    </clipPath>
    <clipPath id="clippath-6">
      <rect class="cls-21" width="531.84" height="289.68"/>
    </clipPath>
    <clipPath id="clippath-7">
      <polygon class="cls-19" points="0 289.68 531.84 289.68 531.84 0 0 0 0 289.68 0 289.68"/>
    </clipPath>
    <clipPath id="clippath-8">
      <rect class="cls-21" width="531.84" height="289.68"/>
    </clipPath>
    <clipPath id="clippath-9">
      <polygon class="cls-19" points="0 289.68 531.84 289.68 531.84 0 0 0 0 289.68 0 289.68"/>
    </clipPath>
    <clipPath id="clippath-10">
      <rect class="cls-21" width="531.84" height="289.68"/>
    </clipPath>
    <clipPath id="clippath-11">
      <polygon class="cls-19" points="0 289.68 531.84 289.68 531.84 0 0 0 0 289.68 0 289.68"/>
    </clipPath>
    <clipPath id="clippath-12">
      <rect class="cls-21" width="531.84" height="289.68"/>
    </clipPath>
    <clipPath id="clippath-13">
      <polygon class="cls-19" points="0 289.68 531.84 289.68 531.84 0 0 0 0 289.68 0 289.68"/>
    </clipPath>
    <clipPath id="clippath-14">
      <rect class="cls-21" width="531.84" height="289.68"/>
    </clipPath>
    <clipPath id="clippath-15">
      <polygon class="cls-19" points="0 289.68 531.84 289.68 531.84 0 0 0 0 289.68 0 289.68"/>
    </clipPath>
    <clipPath id="clippath-16">
      <polygon class="cls-19" points="0 289.68 531.84 289.68 531.84 0 0 0 0 289.68 0 289.68"/>
    </clipPath>
    <clipPath id="clippath-17">
      <polygon class="cls-19" points="0 289.68 531.84 289.68 531.84 0 0 0 0 289.68 0 289.68"/>
    </clipPath>
    <clipPath id="clippath-18">
      <polygon class="cls-19" points="0 289.68 531.84 289.68 531.84 0 0 0 0 289.68 0 289.68"/>
    </clipPath>
    <clipPath id="clippath-19">
      <polygon class="cls-19" points="0 289.68 531.84 289.68 531.84 0 0 0 0 289.68 0 289.68"/>
    </clipPath>
    <clipPath id="clippath-20">
      <polygon class="cls-19" points="0 289.68 531.84 289.68 531.84 0 0 0 0 289.68 0 289.68"/>
    </clipPath>
    <clipPath id="clippath-21">
      <rect class="cls-21" width="531.84" height="289.68"/>
    </clipPath>
    <clipPath id="clippath-22">
      <polygon class="cls-19" points="0 289.68 531.84 289.68 531.84 0 0 0 0 289.68 0 289.68"/>
    </clipPath>
    <clipPath id="clippath-23">
      <rect class="cls-21" width="531.84" height="289.68"/>
    </clipPath>
    <clipPath id="clippath-24">
      <polygon class="cls-19" points="0 289.68 531.84 289.68 531.84 0 0 0 0 289.68 0 289.68"/>
    </clipPath>
    <clipPath id="clippath-25">
      <polygon class="cls-19" points="0 289.68 531.84 289.68 531.84 0 0 0 0 289.68 0 289.68"/>
    </clipPath>
    <clipPath id="clippath-26">
      <polygon class="cls-19" points="0 289.68 531.84 289.68 531.84 0 0 0 0 289.68 0 289.68"/>
    </clipPath>
    <clipPath id="clippath-27">
      <polygon class="cls-19" points="0 289.68 531.84 289.68 531.84 0 0 0 0 289.68 0 289.68"/>
    </clipPath>
    <clipPath id="clippath-28">
      <polygon class="cls-19" points="0 289.68 531.84 289.68 531.84 0 0 0 0 289.68 0 289.68"/>
    </clipPath>
    <clipPath id="clippath-29">
      <polygon class="cls-19" points="0 289.68 531.84 289.68 531.84 0 0 0 0 289.68 0 289.68"/>
    </clipPath>
    <clipPath id="clippath-30">
      <polygon class="cls-17" points="316.08 28.44 374.64 28.44 374.64 87 316.08 87 316.08 28.44 316.08 28.44"/>
    </clipPath>
    <clipPath id="clippath-31">
      <polygon class="cls-21" points="316.08 87 374.64 87 374.64 28.44 316.08 28.44 316.08 87 316.08 87"/>
    </clipPath>
    <clipPath id="clippath-32">
      <polygon class="cls-19" points="0 289.68 531.84 289.68 531.84 0 0 0 0 289.68 0 289.68"/>
    </clipPath>
    <clipPath id="clippath-33">
      <polygon class="cls-19" points="0 289.68 531.84 289.68 531.84 0 0 0 0 289.68 0 289.68"/>
    </clipPath>
    <clipPath id="clippath-34">
      <polygon class="cls-20" points="144.96 204.36 195.96 204.36 195.96 255.36 144.96 255.36 144.96 204.36 144.96 204.36"/>
    </clipPath>
    <clipPath id="clippath-35">
      <polygon class="cls-21" points="144.96 255.36 195.96 255.36 195.96 204.36 144.96 204.36 144.96 255.36 144.96 255.36"/>
    </clipPath>
    <clipPath id="clippath-36">
      <polygon class="cls-19" points="0 289.68 531.84 289.68 531.84 0 0 0 0 289.68 0 289.68"/>
    </clipPath>
    <clipPath id="clippath-37">
      <polygon class="cls-19" points="0 289.68 531.84 289.68 531.84 0 0 0 0 289.68 0 289.68"/>
    </clipPath>
    <clipPath id="clippath-38">
      <polygon class="cls-23" points="323.76 208.32 366.96 208.32 366.96 251.4 323.76 251.4 323.76 208.32 323.76 208.32"/>
    </clipPath>
    <clipPath id="clippath-39">
      <polygon class="cls-21" points="323.76 251.4 366.96 251.4 366.96 208.32 323.76 208.32 323.76 251.4 323.76 251.4"/>
    </clipPath>
    <clipPath id="clippath-40">
      <polygon class="cls-19" points="0 289.68 531.84 289.68 531.84 0 0 0 0 289.68 0 289.68"/>
    </clipPath>
    <clipPath id="clippath-41">
      <polygon class="cls-19" points="0 289.68 531.84 289.68 531.84 0 0 0 0 289.68 0 289.68"/>
    </clipPath>
    <clipPath id="clippath-42">
      <polygon class="cls-18" points="141.72 27.96 195.96 27.96 195.96 82.2 141.72 82.2 141.72 27.96 141.72 27.96"/>
    </clipPath>
    <clipPath id="clippath-43">
      <polygon class="cls-21" points="141.72 82.2 195.96 82.2 195.96 27.96 141.72 27.96 141.72 82.2 141.72 82.2"/>
    </clipPath>
    <clipPath id="clippath-44">
      <polygon class="cls-19" points="0 289.68 531.84 289.68 531.84 0 0 0 0 289.68 0 289.68"/>
    </clipPath>
    <clipPath id="clippath-45">
      <polygon class="cls-19" points="0 289.68 531.84 289.68 531.84 0 0 0 0 289.68 0 289.68"/>
    </clipPath>
    <clipPath id="clippath-46">
      <polygon class="cls-16" points="149.64 37.56 178.08 37.56 178.08 66 149.64 66 149.64 37.56 149.64 37.56"/>
    </clipPath>
    <clipPath id="clippath-47">
      <polygon class="cls-21" points="149.64 66 178.08 66 178.08 37.56 149.64 37.56 149.64 66 149.64 66"/>
    </clipPath>
  </defs>
  <g class="cls-56">
    <text class="cls-31" transform="translate(402.85 52.71)"><tspan x="0" y="0">Enhan</tspan><tspan class="cls-52" x="40.6" y="0">c</tspan><tspan x="47.67" y="0">e</tspan><tspan class="cls-14" x="55.48" y="0"> </tspan><tspan class="cls-39" x="59.09" y="0">D</tspan><tspan class="cls-47" x="69.17" y="0">rug </tspan></text>
  </g>
  <g class="cls-40">
    <g class="cls-27">
      <text class="cls-31" transform="translate(402.85 69.51)"><tspan class="cls-52" x="0" y="0">t</tspan><tspan x="3.96" y="0">arge</tspan><tspan class="cls-52" x="32.06" y="0">t</tspan><tspan class="cls-1" x="36.01" y="0"> </tspan><tspan class="cls-52" x="39.51" y="0">s</tspan><tspan x="46.58" y="0">ele</tspan><tspan class="cls-52" x="65.32" y="0">ct</tspan><tspan x="76.35" y="0">ion</tspan></text>
    </g>
    <g class="cls-64">
      <g class="cls-41">
        <text class="cls-31" transform="translate(402.85 235.82)"><tspan class="cls-25" x="0" y="0">F</tspan><tspan x="8.52" y="0">luid</tspan><tspan class="cls-59" x="30.38" y="0"> </tspan><tspan x="34.11" y="0">bio</tspan><tspan class="cls-73" x="52.84" y="0">m</tspan><tspan x="64.5" y="0">ar</tspan><tspan class="cls-52" x="76.98" y="0">k</tspan><tspan x="84.06" y="0">er </tspan></text>
      </g>
      <g class="cls-71">
        <g class="cls-33">
          <text class="cls-31" transform="translate(402.85 252.62)"><tspan class="cls-52" x="0" y="0">s</tspan><tspan x="7.08" y="0">ele</tspan><tspan class="cls-52" x="25.81" y="0">ct</tspan><tspan x="36.85" y="0">io</tspan><tspan class="cls-46" x="47.77" y="0">n</tspan><tspan x="55.46" y="0"> </tspan></text>
        </g>
        <g class="cls-36">
          <g class="cls-66">
            <text class="cls-31" transform="translate(10.99 235.82)"><tspan class="cls-63" x="0" y="0">I</tspan><tspan class="cls-55" x="3.96" y="0">n</tspan><tspan class="cls-63" x="11.77" y="0">s</tspan><tspan class="cls-49" x="18.84" y="0">igh</tspan><tspan class="cls-60" x="37.58" y="0">t</tspan><tspan class="cls-67" x="41.53" y="0">s</tspan><tspan class="cls-1" x="48.5" y="0"> </tspan><tspan x="51.99" y="0">in</tspan><tspan class="cls-63" x="62.92" y="0">t</tspan><tspan class="cls-55" x="66.88" y="0">o</tspan><tspan class="cls-7" x="74.68" y="0"> </tspan><tspan class="cls-63" x="78.42" y="0">t</tspan><tspan class="cls-55" x="82.37" y="0">he </tspan></text>
          </g>
          <g class="cls-54">
            <g class="cls-74">
              <text class="cls-31" transform="translate(10.99 252.62)"><tspan class="cls-73" x="0" y="0">m</tspan><tspan x="11.65" y="0">ode</tspan><tspan class="cls-77" x="35.08" y="0"> </tspan><tspan x="38.81" y="0">o</tspan><tspan class="cls-63" x="46.62" y="0">f</tspan><tspan class="cls-77" x="50.58" y="0"> </tspan><tspan x="54.31" y="0">a</tspan><tspan class="cls-63" x="62.12" y="0">ct</tspan><tspan x="73.15" y="0">ion</tspan></text>
            </g>
            <g class="cls-10">
              <g class="cls-48">
                <text class="cls-31" transform="translate(8.46 52.71)"><tspan class="cls-73" x="0" y="0">M</tspan><tspan x="11.65" y="0">oni</tspan><tspan class="cls-63" x="30.39" y="0">t</tspan><tspan x="34.35" y="0">oring</tspan><tspan class="cls-1" x="65.57" y="0"> </tspan><tspan x="69.06" y="0">o</tspan><tspan class="cls-60" x="76.87" y="0">f</tspan><tspan class="cls-7" x="80.82" y="0"> </tspan><tspan x="84.56" y="0">drug </tspan></text>
              </g>
              <g class="cls-28">
                <g class="cls-69">
                  <text class="cls-31" transform="translate(8.46 69.51)"><tspan x="0" y="0">re</tspan><tspan class="cls-63" x="12.48" y="0">s</tspan><tspan class="cls-55" x="19.56" y="0">pon</tspan><tspan class="cls-63" x="42.99" y="0">s</tspan><tspan class="cls-55" x="50.06" y="0">e</tspan></text>
                </g>
                <g class="cls-32">
                  <path class="cls-2" d="m255.06,28.26c67.2,0,121.68,54.48,121.68,121.68h-121.68V28.26h0Z"/>
                  <path class="cls-15" d="m255.06,28.26c67.2,0,121.68,54.48,121.68,121.68h-121.68V28.26h0Z"/>
                  <g class="cls-11">
                    <path class="cls-4" d="m375.9,150.06c0,67.2-54.48,121.68-121.68,121.68v-121.68h121.68Z"/>
                    <path class="cls-15" d="m375.9,150.06c0,67.2-54.48,121.68-121.68,121.68v-121.68h121.68Z"/>
                    <g class="cls-70">
                      <path class="cls-6" d="m254.22,271.74c-67.2,0-121.68-54.48-121.68-121.68h121.68v121.68h0Z"/>
                      <path class="cls-15" d="m254.22,271.74c-67.2,0-121.68-54.48-121.68-121.68h121.68v121.68h0Z"/>
                      <g class="cls-68">
                        <path class="cls-5" d="m132.54,150.06c0-67.2,54.48-121.68,121.68-121.68v121.68h-121.68Z"/>
                        <path class="cls-15" d="m132.54,150.06c0-67.2,54.48-121.68,121.68-121.68v121.68h-121.68Z"/>
                        <g class="cls-61">
                          <path class="cls-3" d="m191.28,149.52c0-32.47,28.77-58.8,64.26-58.8s64.26,26.33,64.26,58.8-28.77,58.8-64.26,58.8-64.26-26.33-64.26-58.8h0Z"/>
                          <path class="cls-22" d="m191.28,149.52c0-32.47,28.77-58.8,64.26-58.8s64.26,26.33,64.26,58.8-28.77,58.8-64.26,58.8-64.26-26.33-64.26-58.8h0Z"/>
                          <g class="cls-8">
                            <g class="cls-37">
                              <text class="cls-13" transform="translate(220.71 146.3)"><tspan class="cls-67" x="0" y="0">B</tspan><tspan class="cls-63" x="10.08" y="0">i</tspan><tspan class="cls-67" x="14.04" y="0">o</tspan><tspan x="22.56" y="0">ma</tspan><tspan class="cls-52" x="42.85" y="0">r</tspan><tspan x="48.37" y="0">ke</tspan><tspan class="cls-60" x="63.99" y="0">r</tspan><tspan x="69.51" y="0"> </tspan></text>
                            </g>
                            <g class="cls-53">
                              <g class="cls-75">
                                <text class="cls-13" transform="translate(222.26 163.11)"><tspan class="cls-67" x="0" y="0">D</tspan><tspan class="cls-63" x="10.08" y="0">i</tspan><tspan class="cls-55" x="14.04" y="0">sc</tspan><tspan class="cls-67" x="29.66" y="0">o</tspan><tspan class="cls-57" x="38.18" y="0">v</tspan><tspan x="45.86" y="0">e</tspan><tspan class="cls-52" x="53.67" y="0">r</tspan><tspan class="cls-9" x="59.19" y="0">y</tspan><tspan x="66.52" y="0"> </tspan></text>
                              </g>
                              <g class="cls-50">
                                <path class="cls-5" d="m136.62,57.66c0-18.42,15.18-33.36,33.9-33.36s33.9,14.94,33.9,33.36-15.18,33.36-33.9,33.36-33.9-14.94-33.9-33.36h0Z"/>
                                <path class="cls-15" d="m136.62,57.66c0-18.42,15.18-33.36,33.9-33.36s33.9,14.94,33.9,33.36-15.18,33.36-33.9,33.36-33.9-14.94-33.9-33.36h0Z"/>
                                <g class="cls-30">
                                  <path class="cls-6" d="m136.62,228.54c0-18.42,15.18-33.36,33.9-33.36s33.9,14.94,33.9,33.36-15.18,33.36-33.9,33.36-33.9-14.94-33.9-33.36h0Z"/>
                                  <path class="cls-15" d="m136.62,228.54c0-18.42,15.18-33.36,33.9-33.36s33.9,14.94,33.9,33.36-15.18,33.36-33.9,33.36-33.9-14.94-33.9-33.36h0Z"/>
                                  <g class="cls-35">
                                    <path class="cls-4" d="m311.7,228.54c0-18.42,15.18-33.36,33.9-33.36s33.9,14.94,33.9,33.36-15.18,33.36-33.9,33.36-33.9-14.94-33.9-33.36h0Z"/>
                                    <path class="cls-15" d="m311.7,228.54c0-18.42,15.18-33.36,33.9-33.36s33.9,14.94,33.9,33.36-15.18,33.36-33.9,33.36-33.9-14.94-33.9-33.36h0Z"/>
                                    <g class="cls-44">
                                      <path class="cls-2" d="m311.7,57.66c0-18.42,15.18-33.36,33.9-33.36s33.9,14.94,33.9,33.36-15.18,33.36-33.9,33.36-33.9-14.94-33.9-33.36h0Z"/>
                                      <path class="cls-15" d="m311.7,57.66c0-18.42,15.18-33.36,33.9-33.36s33.9,14.94,33.9,33.36-15.18,33.36-33.9,33.36-33.9-14.94-33.9-33.36h0Z"/>
                                      <g class="cls-76">
                                        <g class="cls-51">
                                          <g class="cls-62">
                                            <path class="cls-12" d="m345.62,62.8c-2.66,0-4.82-2.16-4.82-4.82s2.16-4.82,4.82-4.82,4.82,2.16,4.82,4.82-2.16,4.82-4.82,4.82h0Zm0-7.23c-1.33,0-2.41,1.08-2.41,2.41s1.08,2.41,2.41,2.41,2.41-1.08,2.41-2.41-1.08-2.41-2.41-2.41h0Z"/>
                                            <path class="cls-12" d="m366.71,56.77c-.63-10.71-9.18-19.26-19.89-19.89v-3.62h-2.41v3.62c-10.71.63-19.26,9.18-19.89,19.89h-3.62v2.41h3.62c.63,10.71,9.18,19.26,19.89,19.89v3.62h2.41v-3.62c10.71-.63,19.26-9.18,19.89-19.89h3.62v-2.41h-3.62Zm-8.95,2.41c-.58,5.79-5.16,10.37-10.95,10.95v-4.92h-2.41v4.92c-5.79-.58-10.37-5.16-10.95-10.95h4.92v-2.41h-4.92c.58-5.79,5.16-10.37,10.95-10.95v4.92h2.41v-4.92c5.79.58,10.37,5.16,10.95,10.95h-4.92v2.41h4.92Zm-13.36-18.69v2.91c-7.12.6-12.77,6.24-13.37,13.36h-2.91c.62-8.72,7.56-15.66,16.28-16.28h0Zm-16.28,18.69h2.91c.6,7.12,6.24,12.77,13.36,13.37v2.91c-8.72-.62-15.66-7.56-16.28-16.28h0Zm18.69,16.28v-2.91c7.12-.6,12.77-6.25,13.37-13.37h2.91c-.62,8.72-7.56,15.66-16.28,16.28h0Zm13.37-18.69c-.6-7.12-6.25-12.77-13.37-13.37v-2.91c8.72.62,15.66,7.56,16.28,16.28h-2.91Z"/>
                                          </g>
                                        </g>
                                        <g class="cls-26">
                                          <g class="cls-38">
                                            <g class="cls-78">
                                              <path class="cls-12" d="m182.23,239.53c-1.91,0-3.58,1.3-4.06,3.15h-6.44v-8.54c2.24-.59,3.59-2.88,3-5.13-.38-1.47-1.53-2.62-3-3v-10.64h-8.54c-.58-2.25-2.87-3.6-5.12-3.02-2.25.58-3.6,2.87-3.02,5.12.58,2.25,2.87,3.6,5.12,3.02,1.48-.38,2.63-1.54,3.02-3.02h6.44v8.54c-2.24.59-3.59,2.88-3,5.13.38,1.47,1.53,2.62,3,3v10.64h8.54c.58,2.25,2.87,3.6,5.12,3.02,2.25-.58,3.6-2.87,3.02-5.12-.48-1.86-2.15-3.15-4.07-3.15h0Z"/>
                                            </g>
                                          </g>
                                          <g class="cls-43">
                                            <g class="cls-42">
                                              <g class="cls-58">
                                                <path class="cls-12" d="m362.14,213.51c-1.56-1.55-4.09-1.55-5.65,0-.09.09-2.71,2.71-2.71,2.71l-1.56-1.55c-.71-.71-1.82-.71-2.53,0l-.62.62c-.71.71-.71,1.82,0,2.53l1.56,1.55-20.41,20.35c1.02,1.02,1.02,2.71,0,3.77h0l-2.05,2.04c-.53.53-.53,1.37,0,1.86.27.27.62.4.93.4s.67-.13.93-.4l2.05-2.04h0c1.02-1.02,2.71-1.02,3.78,0l.31-.31,20.1-20.04,1.56,1.55c.71.71,1.82.71,2.53,0l.62-.62c.71-.71.71-1.82,0-2.53l-1.56-1.55s2.62-2.62,2.71-2.71c1.56-1.55,1.56-4.08,0-5.63h0Zm-16.23,18.05c-.53.53-1.38.53-1.87,0-.49-.53-.53-1.37,0-1.86l6.98-6.96,1.87,1.86-6.98,6.96h0Z"/>
                                              </g>
                                            </g>
                                            <g class="cls-34">
                                              <g class="cls-72">
                                                <g class="cls-65">
                                                  <path class="cls-12" d="m190.01,70.73l-6.98-6.98c-.95-.95-2.23-1.28-3.46-1.06l-2.46-2.46c2.18-2.79,3.46-6.36,3.46-10.16,0-9.21-7.54-16.75-16.75-16.75s-16.75,7.54-16.75,16.75,7.54,16.75,16.75,16.75c3.8,0,7.31-1.28,10.16-3.46l2.46,2.46c-.22,1.23.11,2.51,1.06,3.46l6.98,6.98c.78.78,1.79,1.17,2.79,1.17s2.01-.39,2.79-1.17c1.45-1.56,1.45-4.02-.06-5.53h0Zm-26.24-7.31c-7.37,0-13.4-6.03-13.4-13.4s6.03-13.4,13.4-13.4,13.4,6.03,13.4,13.4-6.03,13.4-13.4,13.4h0Z"/>
                                                </g>
                                              </g>
                                              <g class="cls-45">
                                                <g class="cls-29">
                                                  <g class="cls-24">
                                                    <polygon class="cls-12" points="157.85 56.6 152.82 51.57 154.07 50.33 157.85 54.11 166.54 45.43 167.78 46.67 157.85 56.6 157.85 56.6 157.85 56.6"/>
                                                    <polygon class="cls-12" points="165.11 51.61 171.84 51.61 171.84 53.37 165.11 53.37 165.11 51.61 165.11 51.61"/>
                                                    <polygon class="cls-12" points="168.33 48.39 175.06 48.39 175.06 50.15 168.33 50.15 168.33 48.39 168.33 48.39"/>
                                                    <polygon class="cls-12" points="161.89 54.83 168.62 54.83 168.62 56.59 161.89 56.59 161.89 54.83 161.89 54.83"/>
                                                  </g>
                                                </g>
                                              </g>
                                            </g>
                                          </g>
                                        </g>
                                      </g>
                                    </g>
                                  </g>
                                </g>
                              </g>
                            </g>
                          </g>
                        </g>
                      </g>
                    </g>
                  </g>
                </g>
              </g>
            </g>
          </g>
        </g>
      </g>
    </g>
  </g>
</svg>