<svg xmlns="http://www.w3.org/2000/svg" xml:space="preserve" width="666.667" height="666.667"><defs><clipPath id="a" clipPathUnits="userSpaceOnUse"><path d="M0 500h500V0H0Z"/></clipPath><clipPath id="b" clipPathUnits="userSpaceOnUse"><path d="M0 500h500V0H0Z"/></clipPath><clipPath id="c" clipPathUnits="userSpaceOnUse"><path d="M418.067 214.622h32.236v-24.204h-32.236z"/></clipPath><clipPath id="d" clipPathUnits="userSpaceOnUse"><path d="M107.663 227.056h18.343v-47.783h-18.343z"/></clipPath><clipPath id="e" clipPathUnits="userSpaceOnUse"><path d="M0 500h500V0H0Z"/></clipPath><clipPath id="f" clipPathUnits="userSpaceOnUse"><path d="M49.637 225.218h27.419V187.29H49.637Z"/></clipPath><clipPath id="g" clipPathUnits="userSpaceOnUse"><path d="M49.637 213.757h8.874v-26.463h-8.874z"/></clipPath><clipPath id="h" clipPathUnits="userSpaceOnUse"><path d="M49.637 270.951h27.42v-37.928h-27.42z"/></clipPath><clipPath id="i" clipPathUnits="userSpaceOnUse"><path d="M49.637 259.491h8.875v-26.464h-8.875z"/></clipPath><clipPath id="j" clipPathUnits="userSpaceOnUse"><path d="M49.637 316.672h27.419v-37.928H49.637Z"/></clipPath><clipPath id="k" clipPathUnits="userSpaceOnUse"><path d="M49.637 305.211h8.874v-26.463h-8.874z"/></clipPath><clipPath id="l" clipPathUnits="userSpaceOnUse"><path d="M39.745 375.327h42.032v-58.143H39.745Z"/></clipPath><clipPath id="m" clipPathUnits="userSpaceOnUse"><path d="M50.253 369.745h31.524v-20.299H50.253z"/></clipPath><clipPath id="n" clipPathUnits="userSpaceOnUse"><path d="M50.253 368.877h31.524v-51.309H50.253Z"/></clipPath><clipPath id="o" clipPathUnits="userSpaceOnUse"><path d="M39.745 357.758H53.35V317.19H39.745z"/></clipPath><clipPath id="p" clipPathUnits="userSpaceOnUse"><path d="M0 500h500V0H0Z"/></clipPath><clipPath id="q" clipPathUnits="userSpaceOnUse"><path d="M0 500h500V0H0Z"/></clipPath><clipPath id="r" clipPathUnits="userSpaceOnUse"><path d="M0 500h500V0H0Z"/></clipPath><clipPath id="s" clipPathUnits="userSpaceOnUse"><path d="M172.82 418.31h166.545V298.702H172.82Z"/></clipPath><clipPath id="t" clipPathUnits="userSpaceOnUse"><path d="M0 500h500V0H0Z"/></clipPath><clipPath id="u" clipPathUnits="userSpaceOnUse"><path d="M365.618 374.691h17.491v-11.747h-17.491z"/></clipPath><clipPath id="v" clipPathUnits="userSpaceOnUse"><path d="M386.68 364.912h11.753v-15.299H386.68Z"/></clipPath></defs><g clip-path="url(#a)" transform="matrix(1.33333 0 0 -1.33333 0 666.667)"><path d="M0 0c83.786-43.77 219.629-43.771 303.412-.001 83.786 43.771 83.786 114.736 0 158.506-83.785 43.77-219.628 43.77-303.413.001C-83.786 114.736-83.786 43.77 0 0" style="fill:#f0f0f0;fill-opacity:1;fill-rule:nonzero;stroke:none" transform="translate(98.294 104.705)"/></g><g clip-path="url(#b)" transform="matrix(1.33333 0 0 -1.33333 0 666.667)"><path d="M0 0s1.057 5.28 9.569 9.36c8.291 3.974 13.072 3.075 18.762 5.366 5.762 2.318 1.606 13.046-14.018 8.263C.022 18.614-1.431 6.241-1.431 6.241Z" style="fill:#00dfbf;fill-opacity:1;fill-rule:nonzero;stroke:none" transform="translate(419.498 190.418)"/><g clip-path="url(#c)" style="opacity:.19999701"><path d="M0 0s1.057 5.28 9.569 9.36c8.291 3.974 13.072 3.075 18.762 5.366 5.762 2.318 1.606 13.046-14.018 8.263C.022 18.614-1.431 6.241-1.431 6.241Z" style="fill:#000;fill-opacity:1;fill-rule:nonzero;stroke:none" transform="translate(419.498 190.418)"/></g><path d="M0 0a.545.545 0 0 0-.515.722c1.964 5.723 7.02 11.041 13.523 14.225 8.36 4.093 14.313 2.786 14.563 2.728a.545.545 0 0 0-.245-1.061c-.057.013-5.854 1.265-13.84-2.645C7.237 10.909 2.388 5.824.515.368A.546.546 0 0 0 0 0" style="fill:#fafafa;fill-opacity:1;fill-rule:nonzero;stroke:none" transform="translate(418.023 192.404)"/><path d="M0 0s1.026 3.015 4.846 8.868c6.643 10.183 17.471 14.63 22.205 20.449 5.109 6.281-3.717 10.162-11.643 7.963-4.542-1.259-8.682-5.398-10.85-8.192-7.608-9.804-7.552-20.99-7.552-20.99Z" style="fill:#00dfbf;fill-opacity:1;fill-rule:nonzero;stroke:none" transform="translate(418.274 197.048)"/><path d="m0 0-.016.001a.544.544 0 0 0-.528.56c.002.093.325 9.533 5.504 18.844 5.993 10.776 14.904 14.604 15.281 14.761a.544.544 0 1 0 .421-1.004c-.089-.037-8.949-3.856-14.751-14.286C.86 9.795.547.621.544.529A.544.544 0 0 0 0 0" style="fill:#fafafa;fill-opacity:1;fill-rule:nonzero;stroke:none" transform="translate(416.776 196.76)"/><path d="M0 0c-7.189 4.838-7.511 17.835-6.467 26.024 1.654 12.981-5.023 16.01-8.394 10.263-1.64-2.797-3.699-8.854-3.464-15.91.368-11.06 5.161-24.289 16.761-29.091z" style="fill:#00dfbf;fill-opacity:1;fill-rule:nonzero;stroke:none" transform="translate(126.006 187.986)"/><g clip-path="url(#d)" style="opacity:.19999701"><path d="M0 0c-7.189 4.838-7.511 17.835-6.467 26.024 1.654 12.981-5.023 16.01-8.394 10.263-1.64-2.797-3.699-8.854-3.464-15.91.368-11.06 5.161-24.289 16.761-29.091z" style="fill:#000;fill-opacity:1;fill-rule:nonzero;stroke:none" transform="translate(126.006 187.986)"/></g><path d="M0 0a.496.496 0 0 0-.325.12C-12.499 10.531-14.402 29.134-11.02 42.012c.07.267.344.431.611.356a.499.499 0 0 0 .356-.61C-13.358 29.172-11.521 11.012.325.88A.5.5 0 0 0 0 0" style="fill:#fafafa;fill-opacity:1;fill-rule:nonzero;stroke:none" transform="translate(124.524 180.012)"/><path d="M0 0c-6.258-4.494-20.642-8.385-25.326-.676-4.352 7.163-1.44 10.301-10.274 9.062-8.834-1.24-10.857 5.619-8.771 11.377 2.086 5.758-6.607 14.186-.26 20.728 6.347 6.542 10.037-7.058 13.684-8.534 3.648-1.475 5.929 1.701 10.173-.61 4.244-2.312 4.643-11.754 8.774-11.939 6.766-.303 18.147-.261 18.985-6.292C7.823 7.084 0 0 0 0" style="fill:#00dfbf;fill-opacity:1;fill-rule:nonzero;stroke:none" transform="translate(136.807 164.04)"/><path d="M0 0a.453.453 0 0 0-.052.003c-32.753 3.424-45.422 31.971-46.202 36.16a.5.5 0 0 0 .983.184C-44.509 32.253-32.097 4.358.051.997A.5.5 0 0 0 0 0" style="fill:#fafafa;fill-opacity:1;fill-rule:nonzero;stroke:none" transform="translate(139.401 166.636)"/><path d="M0 0c-3.325 0-5.999.467-6.167.497a.499.499 0 1 0 .175.984c.06-.009 6.155-1.073 11.288.014a.5.5 0 1 0 .207-.978C3.669.129 1.745 0 0 0" style="fill:#fafafa;fill-opacity:1;fill-rule:nonzero;stroke:none" transform="translate(103.589 179.44)"/><path d="M0 0a.498.498 0 0 0-.488.609c1.667 7.405.719 13.516.709 13.578a.5.5 0 0 0 .414.572c.271.05.53-.142.573-.413.042-.256.991-6.354-.721-13.955A.5.5 0 0 0 0 0" style="fill:#fafafa;fill-opacity:1;fill-rule:nonzero;stroke:none" transform="translate(113.36 176.445)"/></g><g clip-path="url(#e)" transform="matrix(1.33333 0 0 -1.33333 0 666.667)"><path d="m0 0 15.692 9.061c1.346.776 3.527.776 4.872 0l1.983-1.146c1.346-.776 2.436-2.665 2.436-4.219v-18.12c0-1.554-1.09-3.442-2.436-4.219l-15.692-9.06c-1.345-.776-3.526-.776-4.872 0L0-26.558c-1.345.777-2.436 2.665-2.436 4.219v18.12C-2.436-2.665-1.345-.776 0 0" style="fill:#00dfbf;fill-opacity:1;fill-rule:nonzero;stroke:none" transform="translate(52.073 215.575)"/><g clip-path="url(#f)" style="opacity:.5"><path d="m0 0 15.692 9.061c1.346.776 3.527.776 4.872 0l1.983-1.146c1.346-.776 2.436-2.665 2.436-4.219v-18.12c0-1.554-1.09-3.442-2.436-4.219l-15.692-9.06c-1.345-.776-3.526-.776-4.872 0L0-26.558c-1.345.777-2.436 2.665-2.436 4.219v18.12C-2.436-2.665-1.345-.776 0 0" style="fill:#fafafa;fill-opacity:1;fill-rule:nonzero;stroke:none" transform="translate(52.073 215.575)"/></g><path d="M0 0c0 1.554-1.09 2.184-2.436 1.406l-15.692-9.059c-1.346-.778-2.436-2.666-2.436-4.219l.001-18.121c0-1.553 1.09-2.183 2.435-1.406l15.692 9.06C-1.09-21.562 0-19.674 0-18.12Z" style="fill:#00dfbf;fill-opacity:1;fill-rule:nonzero;stroke:none" transform="translate(77.056 219.272)"/><path d="M0 0c0-1.554 1.091-3.442 2.436-4.219l1.983-1.145c1.216-.701 3.108-.763 4.455-.197-1.146-.433-2.019.214-2.019 1.603l-.001 18.121c0 .776.273 1.637.714 2.4L.713 20.521C.272 19.758 0 18.896 0 18.12Z" style="fill:#00dfbf;fill-opacity:1;fill-rule:nonzero;stroke:none" transform="translate(49.637 193.236)"/><g clip-path="url(#g)" style="opacity:.10000598"><path d="M0 0c0-1.554 1.091-3.442 2.436-4.219l1.983-1.145c1.216-.701 3.108-.763 4.455-.197-1.146-.433-2.019.214-2.019 1.603l-.001 18.121c0 .776.273 1.637.714 2.4L.713 20.521C.272 19.758 0 18.896 0 18.12Z" style="fill:#000;fill-opacity:1;fill-rule:nonzero;stroke:none" transform="translate(49.637 193.236)"/></g><path d="m0 0 13.345 7.738c.358.208.649.04.649-.374v-9.053c0-.415-.291-.918-.649-1.126L0-10.554c-.358-.208-.649-.041-.649.373v9.054C-.648-.713-.358-.208 0 0" style="fill:#fafafa;fill-opacity:1;fill-rule:nonzero;stroke:none" transform="translate(60.13 206.156)"/><path d="m0 0 7.976-2.585 6.666 11.076L8.191-3.518Z" style="fill:#e1e1e1;fill-opacity:1;fill-rule:nonzero;stroke:none" transform="translate(59.482 205.78)"/><path d="m0 0 15.692 9.06c1.346.777 3.526.777 4.872 0l1.983-1.145c1.346-.776 2.435-2.665 2.435-4.219l.001-18.12c0-1.554-1.09-3.442-2.436-4.219l-15.693-9.06c-1.345-.776-3.526-.776-4.871 0L0-26.558c-1.345.777-2.436 2.665-2.436 4.219v18.12C-2.436-2.666-1.345-.777 0 0" style="fill:#00dfbf;fill-opacity:1;fill-rule:nonzero;stroke:none" transform="translate(52.073 261.309)"/><g clip-path="url(#h)" style="opacity:.5"><path d="m0 0 15.692 9.06c1.346.777 3.526.777 4.872 0l1.983-1.145c1.346-.776 2.435-2.665 2.435-4.219l.001-18.12c0-1.554-1.09-3.442-2.436-4.219l-15.693-9.06c-1.345-.776-3.526-.776-4.871 0L0-26.558c-1.345.777-2.436 2.665-2.436 4.219v18.12C-2.436-2.666-1.345-.777 0 0" style="fill:#fafafa;fill-opacity:1;fill-rule:nonzero;stroke:none" transform="translate(52.073 261.309)"/></g><path d="M0 0c0 1.553-1.09 2.183-2.436 1.406l-15.692-9.06c-1.345-.777-2.435-2.665-2.435-4.219v-18.12c0-1.553 1.09-2.183 2.435-1.406l15.693 9.06C-1.09-21.562 0-19.674 0-18.12Z" style="fill:#00dfbf;fill-opacity:1;fill-rule:nonzero;stroke:none" transform="translate(77.056 265.005)"/><path d="M0 0c0-1.554 1.091-3.442 2.436-4.219l1.983-1.145c1.216-.701 3.108-.763 4.456-.197-1.147-.432-2.02.214-2.02 1.603v18.121c0 .776.272 1.637.713 2.4L.713 20.521C.272 19.757 0 18.897 0 18.12Z" style="fill:#00dfbf;fill-opacity:1;fill-rule:nonzero;stroke:none" transform="translate(49.637 238.97)"/><g clip-path="url(#i)" style="opacity:.10000598"><path d="M0 0c0-1.554 1.091-3.442 2.436-4.219l1.983-1.145c1.216-.701 3.108-.763 4.456-.197-1.147-.432-2.02.214-2.02 1.603v18.121c0 .776.272 1.637.713 2.4L.713 20.521C.272 19.757 0 18.897 0 18.12Z" style="fill:#000;fill-opacity:1;fill-rule:nonzero;stroke:none" transform="translate(49.637 238.97)"/></g><path d="m0 0-1.67.133c-2.199.176-4.82 1.045-4.82 4.185 0 2.13 1.495 4.719 3.339 5.784 1.437.83 2.662.489 3.132-.708.472 1.741 1.696 3.496 3.133 4.325 1.844 1.065 3.339.201 3.339-1.928 0-3.082-2.606-6.985-4.792-9.716z" style="fill:#fafafa;fill-opacity:1;fill-rule:nonzero;stroke:none" transform="translate(66.621 243.05)"/><path d="m0 0 15.692 9.061c1.346.776 3.527.776 4.872 0l1.983-1.145c1.346-.777 2.436-2.666 2.436-4.22v-18.12c0-1.554-1.09-3.442-2.436-4.219l-15.692-9.06c-1.345-.776-3.526-.776-4.872 0L0-26.558c-1.345.777-2.436 2.665-2.436 4.219v18.12C-2.436-2.665-1.345-.776 0 0" style="fill:#00dfbf;fill-opacity:1;fill-rule:nonzero;stroke:none" transform="translate(52.073 307.03)"/><g clip-path="url(#j)" style="opacity:.5"><path d="m0 0 15.692 9.061c1.346.776 3.527.776 4.872 0l1.983-1.145c1.346-.777 2.436-2.666 2.436-4.22v-18.12c0-1.554-1.09-3.442-2.436-4.219l-15.692-9.06c-1.345-.776-3.526-.776-4.872 0L0-26.558c-1.345.777-2.436 2.665-2.436 4.219v18.12C-2.436-2.665-1.345-.776 0 0" style="fill:#fafafa;fill-opacity:1;fill-rule:nonzero;stroke:none" transform="translate(52.073 307.03)"/></g><path d="M0 0c-1.345-.777-2.436-.147-2.436 1.406v18.12c0 1.554 1.091 3.443 2.436 4.219l15.692 9.061c1.346.776 2.436.146 2.436-1.407v-18.12c0-1.554-1.09-3.443-2.436-4.219" style="fill:#00dfbf;fill-opacity:1;fill-rule:nonzero;stroke:none" transform="translate(58.928 279.327)"/><path d="M0 0c0-1.554 1.091-3.442 2.436-4.219l1.983-1.145c1.216-.702 3.108-.763 4.455-.196-1.146-.434-2.019.213-2.019 1.602l-.001 18.121c0 .776.273 1.637.714 2.4L.713 20.521C.272 19.757 0 18.897 0 18.12Z" style="fill:#00dfbf;fill-opacity:1;fill-rule:nonzero;stroke:none" transform="translate(49.637 284.69)"/><g clip-path="url(#k)" style="opacity:.10000598"><path d="M0 0c0-1.554 1.091-3.442 2.436-4.219l1.983-1.145c1.216-.702 3.108-.763 4.455-.196-1.146-.434-2.019.213-2.019 1.602l-.001 18.121c0 .776.273 1.637.714 2.4L.713 20.521C.272 19.757 0 18.897 0 18.12Z" style="fill:#000;fill-opacity:1;fill-rule:nonzero;stroke:none" transform="translate(49.637 284.69)"/></g><path d="M0 0s1.834 4.22 2.008 4.829c.174.609-.012 2.737-.014 3.142-.001.406 1.67 1.533 2.204.371.535-1.162.584-2.352.282-3.9l4.069 2.373c.859.501 1.215-.206 1.217-.764.004-.785-.434-1.472-.654-1.753 0 0 .815.247.82-.843.003-.608-.368-1.485-.984-1.996 0 0 .266-.201.269-.961.003-.507-.566-1.702-1.137-2.036 0 0 .177-.353.18-.961.003-.735-.61-1.829-1.489-2.342L.039-8.767Z" style="fill:#fafafa;fill-opacity:1;fill-rule:nonzero;stroke:none" transform="translate(63.91 295.967)"/><path d="m0 0 2.933 1.711-.044 10.203-2.933-1.711Z" style="fill:#fafafa;fill-opacity:1;fill-rule:nonzero;stroke:none" transform="translate(60.052 283.742)"/><path d="m0 0 24.056 13.889c2.062 1.191 5.406 1.191 7.468 0l3.04-1.755c2.062-1.191 3.734-4.087 3.734-6.467v-27.778c0-2.382-1.672-5.277-3.734-6.468L10.508-42.467c-2.062-1.191-5.405-1.191-7.468 0L0-40.712c-2.062 1.191-3.734 4.086-3.734 6.467v27.778C-3.734-4.085-2.063-1.19 0 0" style="fill:#00dfbf;fill-opacity:1;fill-rule:nonzero;stroke:none" transform="translate(43.479 360.545)"/><g clip-path="url(#l)" style="opacity:.10000598"><path d="m0 0 24.056 13.889c2.062 1.191 5.406 1.191 7.468 0l3.04-1.755c2.062-1.191 3.734-4.087 3.734-6.467v-27.778c0-2.382-1.672-5.277-3.734-6.468L10.508-42.467c-2.062-1.191-5.405-1.191-7.468 0L0-40.712c-2.062 1.191-3.734 4.086-3.734 6.467v27.778C-3.734-4.085-2.063-1.19 0 0" style="fill:#000;fill-opacity:1;fill-rule:nonzero;stroke:none" transform="translate(43.479 360.545)"/></g><path d="M0 0c0 1.384-.682 4.841-4.244 2.654C-7.807.468-25.357-9.449-27.762-10.887c-1.861-1.113-3.071-2.468-3.762-4.131l1.905-1.919z" style="fill:#00dfbf;fill-opacity:1;fill-rule:nonzero;stroke:none" transform="translate(81.777 366.384)"/><g clip-path="url(#m)" style="opacity:.19999701"><path d="M0 0c0 1.384-.682 4.841-4.244 2.654C-7.807.468-25.357-9.449-27.762-10.887c-1.861-1.113-3.071-2.468-3.762-4.131l1.905-1.919z" style="fill:#000;fill-opacity:1;fill-rule:nonzero;stroke:none" transform="translate(81.777 366.384)"/></g><path d="M0 0c-2.063-1.191-3.734-.226-3.734 2.156v27.778c0 2.38 1.671 5.276 3.734 6.467L24.056 50.29c2.062 1.19 3.734.225 3.734-2.156V20.356c0-2.381-1.672-5.277-3.734-6.467" style="fill:#00dfbf;fill-opacity:1;fill-rule:nonzero;stroke:none" transform="translate(53.987 318.078)"/><g clip-path="url(#n)" style="opacity:.10000598"><path d="M0 0c-2.063-1.191-3.734-.226-3.734 2.156v27.778c0 2.38 1.671 5.276 3.734 6.467L24.056 50.29c2.062 1.19 3.734.225 3.734-2.156V20.356c0-2.381-1.672-5.277-3.734-6.467" style="fill:#000;fill-opacity:1;fill-rule:nonzero;stroke:none" transform="translate(53.987 318.078)"/></g><path d="M0 0c0-2.381 1.672-5.277 3.734-6.467l3.04-1.756c1.864-1.076 4.765-1.17 6.83-.301-1.758-.664-3.096.327-3.096 2.457v27.778c0 1.19.418 2.51 1.093 3.68L1.093 31.458C.417 30.288 0 28.968 0 27.778Z" style="fill:#00dfbf;fill-opacity:1;fill-rule:nonzero;stroke:none" transform="translate(39.745 326.3)"/><g clip-path="url(#o)" style="opacity:.19999701"><path d="M0 0c0-2.381 1.672-5.277 3.734-6.467l3.04-1.756c1.864-1.076 4.765-1.17 6.83-.301-1.758-.664-3.096.327-3.096 2.457v27.778c0 1.19.418 2.51 1.093 3.68L1.093 31.458C.417 30.288 0 28.968 0 27.778Z" style="fill:#000;fill-opacity:1;fill-rule:nonzero;stroke:none" transform="translate(39.745 326.3)"/></g><path d="m0 0 3.123-5.504 6.984 2.86c.66.27.923-.514.446-1.327l-5.054-8.605 1.193-7.343c.113-.694-.577-1.67-1.167-1.653l-6.246.186-6.247-7.399c-.59-.698-1.279-.518-1.167.306l1.194 8.72-5.054 2.77c-.478.262-.214 1.35.446 1.842l6.984 5.204 3.123 9.11C-1.147.028-.295.52 0 0" style="fill:#fafafa;fill-opacity:1;fill-rule:nonzero;stroke:none" transform="translate(66.736 357.725)"/></g><g clip-path="url(#p)" transform="matrix(1.33333 0 0 -1.33333 0 666.667)"><path d="M0 0c-11.978-5.709-31.397-5.709-43.376 0-11.978 5.708-11.978 14.965 0 20.674 11.979 5.708 31.398 5.708 43.376 0C11.979 14.965 11.979 5.708 0 0" style="fill:#e1e1e1;fill-opacity:1;fill-rule:nonzero;stroke:none" transform="translate(404.959 230.82)"/></g><g clip-path="url(#q)" transform="matrix(1.33333 0 0 -1.33333 0 666.667)"><path d="M0 0c0-2.59 1.939-5.81 4.331-7.19l121.325-70.047c2.391-1.381 6.269-1.381 8.66 0l166.008 95.843c2.391 1.381 4.33 4.601 4.33 7.191 0 2.591-1.939 5.81-4.33 7.191l-121.326 70.047c-2.391 1.381-6.269 1.381-8.661 0L4.33 7.19C1.938 5.81 0 2.591 0 0" style="fill:#2b454e;fill-opacity:1;fill-rule:nonzero;stroke:none" transform="translate(132.2 164.53)"/><path d="m0 0-45.727-26.4c-2.391-1.381-4.329-4.6-4.329-7.191 0-2.59 1.939-5.809 4.33-7.19L75.6-110.828c1.196-.691 2.763-1.036 4.331-1.036V0Z" style="fill:#1a2e35;fill-opacity:1;fill-rule:nonzero;stroke:none" transform="translate(182.256 198.121)"/><path d="M0 0c-2.243 1.295-4.062 4.584-4.062 7.345V152.13c0 2.761 1.938 6.119 4.33 7.5l166.006 95.844c2.392 1.38 6.15 1.45 8.393.155 2.244-1.296 4.062-4.584 4.062-7.345V103.499c0-2.762-1.938-6.12-4.33-7.5L8.392.154C6-1.227 2.243-1.296 0 0" style="fill:#375a64;fill-opacity:1;fill-rule:nonzero;stroke:none" transform="translate(128.138 171.566)"/><path d="m0 0-19.043 10.995c-.784-1.358-1.269-2.888-1.269-4.268l.001-144.785c0-2.761 1.819-6.05 4.062-7.345 2.243-1.296 6-1.226 8.392.154l18.935 10.933z" style="fill:#1a2e35;fill-opacity:1;fill-rule:nonzero;stroke:none" transform="translate(144.387 316.97)"/><path d="M0 0v-144.785c0-2.761 1.938-3.881 4.33-2.5L170.338-51.44c2.391 1.38 4.33 4.738 4.33 7.5v144.784c0 2.761-1.939 3.881-4.33 2.5L4.33 7.5C1.938 6.119 0 2.761 0 0" style="fill:#2b454e;fill-opacity:1;fill-rule:nonzero;stroke:none" transform="translate(132.2 319.006)"/><path d="m0 0 121.326-70.047c2.392-1.381 6.27-1.381 8.66 0l166.008 95.845c2.392 1.38 2.392 3.619 0 5l-121.326 70.047c-2.391 1.38-6.269 1.38-8.66 0L0 5c-2.392-1.381-2.392-3.619 0-5" style="fill:#375a64;fill-opacity:1;fill-rule:nonzero;stroke:none" transform="translate(136.53 166.72)"/><path d="m0 0 161.35 93.154c1.434.828 2.597.157 2.597-1.5V-33.68c0-1.657-1.163-3.672-2.597-4.5L0-131.332c-1.435-.829-2.598-.157-2.598 1.5V-4.5C-2.598-2.843-1.435-.829 0 0" style="fill:#fafafa;fill-opacity:1;fill-rule:nonzero;stroke:none" transform="translate(138.858 318.47)"/><path d="m0 0 154.091 88.963c1.196.69 3.135.69 4.33 0l7.882-4.55c1.195-.691 1.195-1.81 0-2.5L12.188-7.036c-1.195-.691-3.134-.691-4.33 0L0-2.5C-1.196-1.81-1.196-.69 0 0" style="fill:#1a2e35;fill-opacity:1;fill-rule:nonzero;stroke:none" transform="translate(150.612 170.47)"/><path d="m0 0 154.089 88.965c1.196.69 3.135.69 4.33 0l48.477-27.989c1.195-.691 1.195-1.81 0-2.5L52.982-30.366c-1.195-.691-3.136-.694-4.334-.006L.004-2.493C-1.194-1.807-1.196-.69 0 0" style="fill:#1a2e35;fill-opacity:1;fill-rule:nonzero;stroke:none" transform="translate(170.925 158.744)"/><path d="M0 0c.221-.127.565-.134.77-.016L5.595 2.77c.205.119.192.317-.028.444L-.012 6.436c-.219.126-.564.133-.769.015l-4.825-2.786c-.205-.118-.192-.316.028-.443Zm57.407 35.508c.22-.127.565-.135.77-.016l4.824 2.785c.205.119.193.318-.027.445l-1.485.857c-.22.127-.565.134-.77.016l-4.824-2.785c-.205-.12-.193-.318.027-.445zm43.449-16.515 4.825 2.785c.205.118.193.318-.028.445l-5.579 3.22c-.219.127-.564.134-.769.017l-4.825-2.786c-.205-.118-.192-.318.028-.445l5.579-3.22c.22-.127.564-.134.769-.016M83.229 36.884c.22-.127.564-.134.77-.016l4.824 2.785c.205.118.193.318-.027.445l-5.579 3.22c-.22.127-.565.134-.77.016l-4.824-2.785c-.205-.118-.193-.318.027-.445ZM71.51 43.649c.22-.127.564-.133.769-.015l4.825 2.785c.205.119.193.317-.028.444l-1.484.859c-.221.126-.565.133-.77.014l-4.825-2.785c-.205-.118-.192-.317.027-.444zM50.355 31.437c.221-.127.565-.134.77-.016l4.825 2.785c.205.118.193.317-.027.444l-1.485.858c-.22.127-.565.134-.77.015l-4.824-2.785c-.205-.118-.194-.317.027-.444ZM14.103 8.143c.22-.127.565-.135.77-.016l4.824 2.785c.205.118.193.317-.027.444l-5.579 3.221c-.22.127-.565.134-.77.016l-4.824-2.785c-.205-.119-.192-.318.027-.445ZM7.052 4.071c.219-.127.564-.133.769-.015l4.825 2.785c.205.118.193.317-.027.444L7.04 10.506c-.221.127-.565.135-.77.015L1.445 7.736c-.205-.118-.192-.317.028-.444Zm29.763 17.185c.22-.128.566-.135.771-.017l4.824 2.786c.204.119.193.318-.027.445l-5.579 3.22c-.22.127-.565.134-.77.016l-4.824-2.785c-.205-.119-.193-.317.026-.444zm-15.661-9.042c.22-.128.565-.135.77-.017l4.825 2.786c.204.119.192.318-.028.445l-5.578 3.22c-.221.127-.565.134-.77.016l-4.825-2.785c-.205-.118-.193-.317.028-.445zm22.713 13.112c.22-.127.565-.134.77-.015l4.824 2.785c.205.119.192.317-.027.445l-5.58 3.221c-.219.127-.564.134-.769.015l-4.824-2.785c-.204-.118-.193-.318.027-.444zm-14.102-8.141c.219-.127.564-.135.769-.016l4.824 2.785c.205.118.194.317-.027.444l-5.578 3.221c-.221.128-.566.135-.771.017l-4.824-2.786c-.205-.119-.192-.318.028-.445zm34.693 22.393c.221-.127.565-.134.771-.015l4.824 2.786c.205.118.192.316-.028.443l-1.485.858c-.22.127-.564.134-.769.016l-4.825-2.786c-.205-.118-.193-.317.028-.444zm-32.26-60.224 4.825 2.785c.206.118.193.317-.027.444l-5.579 3.221c-.22.127-.564.134-.77.016l-4.824-2.786c-.205-.118-.192-.317.028-.444l5.578-3.221c.22-.127.564-.134.769-.015m-14.102-8.142 4.825 2.785c.205.118.193.316-.027.444l-5.58 3.221c-.219.127-.564.135-.769.016l-4.824-2.785c-.205-.119-.194-.318.027-.445l5.579-3.221c.22-.126.565-.134.769-.015m7.051 4.07 4.825 2.785c.205.12.193.318-.028.445l-5.578 3.221c-.22.127-.564.134-.769.016l-4.826-2.786c-.204-.117-.192-.317.028-.443l5.579-3.222c.22-.127.564-.134.769-.016M-3.058-41.002l4.825 2.785c.205.119.193.318-.028.446l-5.578 3.219c-.22.128-.565.135-.77.017l-4.824-2.785c-.206-.119-.193-.318.027-.446l5.579-3.22c.22-.127.564-.134.769-.016m14.103 8.143 4.825 2.785c.204.118.192.317-.028.444l-5.578 3.222c-.221.126-.565.134-.77.014L4.67-29.179c-.205-.118-.193-.317.026-.444l5.579-3.221c.221-.127.565-.135.77-.015m-7.051-4.072 4.824 2.785c.205.119.193.318-.027.445L3.212-30.48c-.22.127-.565.134-.77.016l-4.824-2.786c-.205-.118-.192-.317.028-.444l5.578-3.221c.22-.127.565-.134.77-.016M70.396 1.867c.221-.127.566-.134.771-.015l4.824 2.785c.205.118.193.317-.027.444l-5.579 3.221c-.22.128-.565.135-.77.016l-4.824-2.786c-.205-.118-.193-.317.027-.444ZM39.25-16.575l4.824 2.785c.206.118.194.317-.027.444l-5.578 3.221c-.221.128-.565.135-.77.016l-4.825-2.786c-.205-.118-.192-.317.028-.444l5.578-3.221c.221-.127.565-.133.77-.015m39.534 32.027 4.824 2.785c.205.118.194.318-.027.445l-5.578 3.22c-.221.128-.565.134-.77.017l-4.825-2.786c-.205-.118-.192-.318.028-.445l5.579-3.22c.219-.127.564-.134.769-.016m7.2-4.586c.22-.127.565-.134.769-.015l4.825 2.785c.205.119.193.317-.027.445l-5.579 3.221c-.22.127-.565.134-.769.015l-4.825-2.786c-.205-.118-.192-.317.027-.443zm-39.682-23.37 14.102 8.142c.205.118.193.317-.027.444L54.798-.697c-.22.127-.565.135-.77.015L39.926-8.823c-.205-.118-.193-.318.027-.445l5.578-3.22c.221-.127.566-.135.771-.016m15.976 27.629 4.826 2.785c.205.119.192.318-.028.445l-5.579 3.22c-.22.128-.564.135-.769.017l-4.825-2.786c-.206-.119-.193-.317.028-.445l5.578-3.219c.22-.128.564-.135.769-.017m31.527-.203 4.824 2.785c.205.119.193.317-.026.444l-5.58 3.221c-.219.127-.564.135-.769.016l-4.825-2.785c-.204-.119-.193-.318.028-.445l5.578-3.22c.22-.127.566-.134.77-.016M78.354 3.701c-.219.127-.564.134-.769.016L72.761.932c-.205-.119-.193-.318.027-.445l5.578-3.221c.221-.127.565-.134.77-.016L83.961.035c.205.119.192.318-.027.445zm-25.236-14.57c-.22.127-.564.134-.769.015l-5.939-3.428c-.204-.118-.192-.317.028-.444l5.58-3.22c.219-.128.564-.135.768-.017l5.939 3.429c.205.118.192.317-.028.444zm-74.595-43.068c-.22.127-.565.134-.77.016l-5.938-3.429c-.205-.118-.192-.316.028-.444l5.579-3.221c.22-.127.564-.133.769-.015l5.938 3.427c.205.12.193.318-.027.446zm58.266 33.64c-.22.127-.564.134-.769.016l-5.938-3.428c-.205-.119-.193-.317.026-.445l5.58-3.22c.219-.128.564-.135.769-.017l5.939 3.429c.205.118.192.316-.029.444zm-50.101-28.926c-.22.127-.565.134-.77.016l-5.938-3.429c-.205-.118-.192-.317.028-.444l5.578-3.221c.221-.127.565-.134.77-.015l5.938 3.428c.205.118.193.317-.027.444zm41.937 24.212c-.221.127-.565.134-.771.016l-39.708-22.927c-.206-.118-.194-.317.026-.443l5.579-3.222c.22-.127.564-.134.77-.016L34.23-28.677c.206.119.194.319-.027.446zM62.768-5.298c-.22.127-.565.134-.77.016l-7.423-4.286c-.204-.119-.192-.317.028-.444l5.579-3.221c.219-.127.564-.134.769-.016l7.423 4.285c.205.119.192.318-.027.444zM44.954-15.583c-.22.127-.565.134-.769.016l-5.939-3.428c-.205-.118-.192-.317.027-.445l5.58-3.22c.219-.128.564-.135.769-.017l5.938 3.429c.205.118.193.317-.028.444zm75.721 37.275-13.549 7.823c-.221.127-.564.133-.77.015l-4.824-2.785c-.206-.118-.193-.317.028-.444l13.547-7.822c.221-.127.565-.134.77-.017l4.824 2.786c.206.118.194.317-.026.444m-12.631-.849c-.22.127-.565.134-.77.015l-4.824-2.786c-.205-.118-.192-.317.028-.443l5.579-3.222c.219-.127.564-.134.769-.015l4.824 2.785c.205.119.193.317-.027.444zM71.304-.37c-.221.127-.566.134-.771.016L65.709-3.14c-.205-.119-.192-.317.027-.444l5.579-3.222c.22-.127.565-.133.77-.015l4.824 2.786c.205.118.194.317-.027.443zm-81.413-44.703 4.825 2.785c.204.119.192.318-.028.445l-5.579 3.221c-.22.127-.564.134-.769.016l-4.824-2.786c-.205-.118-.193-.317.027-.444l5.579-3.222c.22-.127.564-.133.769-.015M85.406 7.771c-.22.127-.564.135-.769.016l-4.825-2.785c-.206-.118-.193-.316.027-.444l5.579-3.221c.22-.127.564-.134.77-.016l4.824 2.785c.205.119.193.318-.028.446zm15.587 9c-.221.127-.564.134-.769.016L88.348 9.931c-.205-.118-.193-.318.027-.445l5.579-3.22c.22-.127.565-.135.77-.016l11.875 6.856c.205.119.193.317-.027.444zm-149.436-44.74c.22-.127.564-.134.769-.015l4.825 2.785c.205.118.192.317-.027.444l-5.579 3.221c-.22.128-.565.134-.77.015l-4.825-2.785c-.204-.118-.192-.317.028-.444zm7.051 4.072c.22-.127.564-.134.769-.016l4.825 2.785c.205.118.193.317-.027.444l-5.579 3.221c-.22.127-.565.134-.77.016l-4.824-2.785c-.205-.119-.193-.318.027-.445zm11.751-34.754c-.221.128-.565.134-.77.016l-7.422-4.285c-.206-.118-.193-.317.027-.444l5.578-3.221c.221-.128.565-.135.77-.017l7.422 4.286c.206.119.193.317-.027.445zm-1.632 40.595c.22-.127.565-.133.77-.015l4.824 2.785c.205.118.193.318-.027.445l-5.579 3.221c-.22.127-.564.134-.769.016l-4.825-2.786c-.205-.119-.192-.317.028-.445zm14.103 8.143c.22-.127.565-.135.77-.016l4.824 2.785c.205.119.193.318-.028.445l-5.578 3.22c-.22.127-.565.135-.77.016l-4.824-2.785c-.205-.118-.193-.317.027-.444zM-55.495-32.04c.221-.127.565-.134.77-.016l4.825 2.785c.204.119.192.318-.028.445l-5.579 3.222c-.22.125-.564.133-.769.015l-4.825-2.786c-.205-.118-.192-.317.028-.444zm31.273 18.056c.221-.127.565-.134.77-.016l4.825 2.786c.205.117.192.317-.028.443l-5.578 3.221c-.22.128-.565.135-.77.017l-4.825-2.785c-.205-.12-.192-.318.027-.446zm14.103 8.142c.22-.128.565-.135.769-.016l4.825 2.786c.205.118.193.316-.027.444L-10.13.593c-.221.127-.566.134-.771.015l-4.824-2.785c-.205-.119-.193-.317.027-.444zm-23.398-52.285-5.579 3.221c-.219.127-.565.134-.769.015l-5.938-3.428c-.205-.119-.193-.318.027-.445l5.579-3.22c.22-.127.565-.134.77-.016l5.938 3.429c.204.118.192.317-.028.444m-4.629 6.529-5.579 3.221c-.22.127-.565.134-.77.016l-9.278-5.357c-.205-.118-.192-.317.028-.444l5.578-3.221c.22-.127.564-.134.77-.016l9.278 5.357c.205.118.193.317-.027.444M-62.545-36.11c.219-.128.564-.135.769-.017l4.824 2.786c.205.118.193.317-.027.444l-5.579 3.221c-.22.127-.565.134-.77.016l-4.824-2.785c-.205-.119-.193-.318.027-.445zm-4.554-2.629-5.578 3.22c-.22.127-.564.135-.769.016l-5.939-3.428c-.204-.118-.193-.317.028-.444l5.578-3.221c.22-.127.566-.133.77-.015l5.938 3.427c.205.119.193.318-.028.445m19.127-9.328-5.579 3.219c-.22.128-.564.135-.769.017l-7.423-4.285c-.205-.118-.192-.318.028-.445l5.579-3.22c.22-.127.564-.135.769-.017l7.423 4.286c.205.118.192.318-.028.445m-10.567 3.1-5.579 3.222c-.22.127-.565.134-.77.016l-4.824-2.787c-.205-.118-.193-.316.027-.444l5.579-3.221c.22-.127.564-.133.77-.015l4.824 2.785c.205.119.193.317-.027.444m41.379-4.178 4.824 2.787c.205.118.193.316-.027.444l-5.579 3.221c-.22.127-.564.134-.769.015l-4.825-2.785c-.205-.118-.193-.317.028-.444l5.578-3.221c.22-.127.565-.135.77-.017m5.147 28.741-4.824-2.786c-.205-.119-.193-.318.027-.445l5.58-3.22c.219-.127.564-.134.769-.016l4.824 2.785c.205.118.193.317-.027.444l-5.579 3.221c-.219.128-.565.135-.77.017m-7.05-4.072-4.825-2.786c-.205-.118-.193-.317.027-.443l5.579-3.222c.22-.127.565-.134.77-.015l4.824 2.785c.205.119.193.317-.027.444l-5.579 3.221c-.22.127-.565.135-.769.016M9.142-8.191l-4.825-2.786c-.205-.119-.193-.317.028-.444l5.578-3.222c.221-.127.564-.133.769-.015l4.826 2.786c.205.118.192.316-.029.443L9.911-8.207c-.22.127-.564.134-.769.016m-14.103-8.143-4.825-2.785c-.204-.118-.193-.318.028-.444l5.578-3.221c.221-.127.566-.134.77-.016l4.825 2.785c.204.119.192.318-.027.445l-5.579 3.22c-.221.127-.565.135-.77.016m7.052 4.071-4.825-2.785c-.205-.119-.193-.317.027-.444l5.579-3.221c.22-.127.565-.135.77-.016l4.824 2.786c.205.118.192.317-.027.444L2.86-12.278c-.22.127-.564.133-.769.015m-28.206-16.284-4.824-2.785c-.206-.119-.193-.317.027-.444l5.579-3.222c.22-.127.564-.134.77-.016l4.824 2.786c.205.119.193.317-.028.445l-5.578 3.221c-.22.126-.565.133-.77.015m-7.051-4.071-4.825-2.785c-.205-.118-.192-.318.027-.445l5.58-3.22c.219-.127.564-.135.769-.016l4.824 2.785c.206.118.193.318-.027.445l-5.578 3.22c-.221.127-.565.135-.77.016m25.479-1.854 4.824 2.785c.205.119.193.318-.027.445l-5.579 3.221c-.219.126-.564.133-.769.015l-4.825-2.785c-.205-.118-.193-.317.027-.444l5.579-3.221c.22-.127.565-.135.77-.016m-7.052-4.072 4.825 2.786c.205.118.193.318-.027.445l-5.579 3.22c-.22.127-.565.134-.77.016l-4.824-2.785c-.205-.118-.193-.318.027-.445l5.579-3.22c.22-.127.565-.134.769-.017m-7.051-4.07 4.825 2.785c.205.118.193.317-.027.444l-5.579 3.221c-.22.127-.565.135-.77.017l-4.825-2.787c-.204-.118-.192-.317.028-.444l5.579-3.221c.22-.127.564-.133.769-.015m-18.427 5.926-4.825-2.787c-.205-.118-.192-.317.027-.444l5.579-3.221c.22-.127.565-.133.769-.015l4.825 2.785c.205.118.193.317-.027.444l-5.579 3.221c-.22.128-.564.135-.769.017m10.606-9.982c.22-.127.565-.134.77-.016l4.825 2.786c.204.119.192.317-.028.444l-5.579 3.222c-.22.127-.564.133-.769.015l-4.824-2.786c-.206-.118-.193-.317.027-.443zM23.244-.05 18.42-2.835c-.205-.118-.192-.317.027-.444L24.025-6.5c.221-.127.566-.135.77-.016L29.62-3.73c.205.118.192.317-.027.444L24.014-.065c-.22.127-.565.133-.77.015m61.822 19.589c.219-.127.565-.134.77-.017l4.824 2.787c.205.118.193.317-.027.444l-5.579 3.221c-.22.127-.565.133-.77.015l-4.824-2.785c-.205-.118-.193-.317.027-.444ZM16.193-4.12l-4.825-2.786c-.205-.118-.192-.318.028-.444l5.579-3.221c.219-.127.564-.134.769-.016l4.824 2.785c.205.119.194.318-.027.445l-5.578 3.221c-.221.127-.565.134-.77.016m53.071 30.64-4.826-2.786c-.205-.118-.192-.317.028-.444l5.579-3.221c.221-.127.564-.134.769-.015l4.825 2.785c.205.118.193.317-.028.444l-5.578 3.221c-.22.127-.565.134-.769.016m16.356 8.983 13.548-7.822c.221-.127.564-.134.77-.016l4.825 2.785c.205.119.192.318-.028.445l-13.548 7.822c-.22.127-.565.134-.77.015l-4.824-2.785c-.205-.118-.194-.317.027-.444m-1.485-.857c-.219.127-.565.134-.769.016l-4.825-2.786c-.204-.118-.192-.317.027-.443l5.579-3.222c.22-.127.565-.134.77-.016l4.824 2.785c.205.12.194.318-.027.445zm-6.269-10.522 4.824 2.786c.206.118.193.317-.027.444l-5.579 3.221c-.22.127-.564.134-.77.016l-4.824-2.785c-.205-.119-.193-.318.028-.445l5.578-3.221c.219-.127.565-.134.77-.016m15.021-.529 4.824 2.785c.205.118.192.317-.027.444l-5.58 3.221c-.219.127-.564.134-.769.016l-4.824-2.786c-.204-.118-.193-.317.027-.444l5.579-3.221c.22-.127.565-.134.77-.015M6.415-26.33l4.825 2.785c.205.119.193.317-.028.444l-5.578 3.222c-.22.127-.565.134-.77.016L.04-22.649c-.205-.119-.193-.318.027-.444l5.579-3.221c.22-.127.564-.134.769-.016m69.751 65.577c-.22.127-.565.135-.77.017l-4.824-2.786c-.205-.119-.193-.318.027-.445l5.579-3.22c.219-.127.564-.134.769-.016l4.824 2.785c.206.118.194.317-.026.444zM31.847-2.444 36.671.341c.206.118.193.317-.027.444l-5.579 3.221c-.219.127-.564.134-.769.015l-4.825-2.785c-.205-.118-.193-.317.027-.444l5.579-3.221c.22-.127.565-.134.77-.015m36.498 37.635-4.824-2.785c-.206-.118-.193-.317.027-.444l5.579-3.221c.22-.127.564-.134.769-.015l4.825 2.785c.205.119.192.317-.028.444l-5.578 3.222c-.22.126-.565.134-.77.014m-15.587-8.998-4.824-2.786c-.205-.118-.194-.316.027-.444l5.578-3.221c.221-.127.565-.134.77-.015l4.825 2.785c.204.118.192.317-.028.444l-5.579 3.221c-.219.128-.564.135-.769.016m8.536 4.928-4.825-2.786c-.205-.118-.193-.316.027-.443l5.579-3.222c.22-.127.565-.134.77-.016l4.825 2.785c.205.12.192.318-.028.446l-5.579 3.22c-.219.127-.564.134-.769.016M-.636-30.401l4.824 2.786c.206.118.194.317-.027.443l-5.578 3.222c-.221.127-.565.134-.77.015l-4.825-2.785c-.205-.119-.192-.317.028-.445l5.579-3.221c.219-.127.564-.134.769-.015m-36.046 4.956-4.825-2.785c-.205-.12-.192-.318.028-.446l5.578-3.22c.22-.127.565-.134.77-.016l4.825 2.786c.204.118.192.317-.028.444l-5.579 3.221c-.22.127-.564.134-.769.016m7.051 4.071-4.825-2.786c-.205-.118-.192-.318.028-.444l5.579-3.221c.22-.127.564-.134.769-.016l4.825 2.785c.204.119.193.318-.028.445l-5.578 3.221c-.221.127-.565.134-.77.016m7.051 4.07-4.824-2.785c-.205-.118-.193-.317.027-.444l5.579-3.221c.22-.127.565-.135.77-.016l4.824 2.786c.205.118.193.317-.027.444l-5.58 3.221c-.219.127-.564.134-.769.015m14.102 8.143-4.824-2.786c-.205-.117-.193-.317.028-.444l5.578-3.22c.22-.128.565-.135.77-.017l4.824 2.786c.206.118.193.317-.027.445l-5.579 3.22c-.22.127-.564.134-.77.016m-35.255-20.356-4.825-2.785c-.205-.118-.192-.317.027-.444l5.579-3.221c.22-.127.565-.135.77-.016l4.824 2.786c.205.118.193.317-.027.444l-5.579 3.221c-.22.127-.564.134-.769.015m28.205 16.285-4.825-2.786c-.205-.118-.193-.317.027-.444l5.579-3.221c.22-.127.564-.134.769-.016l4.825 2.786c.205.118.193.317-.027.444l-5.579 3.221c-.22.127-.565.134-.769.016m-35.257-20.356-4.824-2.785c-.205-.118-.193-.317.027-.444l5.579-3.221c.22-.127.564-.135.769-.017l4.825 2.786c.205.119.193.318-.028.445l-5.578 3.22c-.22.127-.565.134-.77.016m18.753-23.683c.22-.126.564-.133.769-.015l4.825 2.786c.205.118.192.316-.027.443l-5.579 3.221c-.221.128-.565.135-.77.017l-4.825-2.786c-.204-.119-.193-.317.028-.444zm7.821 4.056 4.824 2.785c.205.118.193.318-.027.445l-5.579 3.221c-.22.126-.565.134-.77.015l-4.824-2.785c-.205-.118-.193-.318.027-.445l5.579-3.22c.22-.127.564-.135.77-.016m-22.276 6.004c.22-.127.564-.134.769-.016l4.825 2.786c.205.118.193.317-.027.444l-5.579 3.221c-.22.128-.564.134-.77.016l-4.824-2.786c-.205-.118-.193-.317.027-.444zm-11.349 9.553-4.825-2.786c-.205-.119-.193-.318.028-.445l5.578-3.22c.221-.127.565-.134.77-.016l4.825 2.785c.205.118.192.318-.028.444l-5.578 3.221c-.221.127-.565.135-.77.017m21.174-13.083c.22-.127.565-.134.77-.016l4.825 2.786c.204.118.192.318-.028.445l-5.579 3.22c-.22.127-.565.134-.769.016l-4.825-2.785c-.205-.119-.192-.318.027-.445zM-1.426-5.09-6.25-7.875c-.206-.119-.193-.318.027-.445l5.578-3.221c.221-.127.565-.134.77-.016L4.95-8.771c.205.118.193.318-.027.444L-.656-5.105c-.22.126-.565.133-.77.015m7.052 4.071L.801-3.805c-.205-.118-.193-.317.027-.444L6.407-7.47c.22-.127.565-.134.77-.015L12.001-4.7c.205.118.193.317-.027.444L6.396-1.035c-.221.128-.565.135-.77.016m36.046-4.956L52.435.239c.205.118.192.318-.028.445L38.858 8.506c-.219.127-.564.134-.769.015l-5.567-3.213c-.205-.12-.192-.318.028-.445L39.723.722c.219-.127.231-.326.027-.445l-4.454-2.571c-.205-.118-.192-.317.027-.444l5.579-3.221c.22-.127.565-.134.77-.016m6.505 12.957L53 9.769c.205.118.193.317-.026.444l-5.579 3.221c-.22.127-.565.133-.77.015l-4.824-2.785c-.205-.118-.194-.317.026-.444l5.579-3.221c.22-.128.565-.135.771-.017m-34.71-29.241 4.824 2.785c.205.119.193.318-.027.445l-5.578 3.22c-.221.127-.565.135-.77.016l-4.825-2.785c-.205-.118-.193-.318.027-.444l5.579-3.221c.22-.127.565-.135.77-.016m7.051 4.071 4.825 2.786c.205.118.192.317-.028.444l-5.579 3.221c-.219.127-.564.133-.769.015l-4.824-2.785c-.205-.118-.193-.317.027-.444l5.578-3.221c.221-.127.564-.134.77-.016m7.051 4.071 4.826 2.786c.205.118.192.316-.029.444l-5.578 3.221c-.22.127-.564.134-.769.016l-4.826-2.786c-.205-.118-.192-.317.028-.444l5.579-3.221c.22-.127.564-.134.769-.016m7.052 4.071 4.824 2.786c.204.117.193.318-.027.444l-5.579 3.221c-.22.127-.565.134-.77.016l-4.824-2.785c-.205-.119-.193-.318.027-.446l5.58-3.22c.219-.127.564-.134.769-.016M12.677 3.052 7.853.267c-.206-.119-.193-.318.027-.445l5.578-3.22c.221-.127.564-.135.77-.016l4.825 2.785c.205.118.192.317-.028.444l-5.579 3.221c-.219.127-.564.135-.769.016m7.052 4.071-4.826-2.785c-.205-.119-.192-.317.028-.444L20.51.673c.219-.128.564-.135.769-.017l4.825 2.786c.205.119.193.317-.028.444l-5.578 3.221c-.221.127-.565.134-.769.016m18.926 10.928-4.825-2.786c-.204-.118-.192-.317.028-.444l5.579-3.22c.22-.128.565-.135.769-.017l4.824 2.785c.205.119.194.319-.026.445l-5.579 3.22c-.22.128-.565.135-.77.017m-8.536-4.929-8.164-4.714c-.205-.117-.192-.317.027-.443l5.58-3.222c.219-.127.564-.134.769-.015l8.164 4.713c.205.119.193.318-.027.445l-5.578 3.221c-.221.126-.566.134-.771.015m15.587 9-4.824-2.785c-.205-.119-.193-.318.027-.445l5.579-3.221c.22-.127.565-.134.77-.016l4.824 2.785c.205.119.193.318-.027.445l-5.579 3.221c-.22.127-.565.134-.77.016m9.522-11.068 4.824 2.785c.205.119.192.318-.028.445l-5.579 3.221c-.219.127-.564.134-.769.016l-4.824-2.786c-.206-.118-.193-.317.027-.444l5.579-3.222c.22-.127.564-.133.77-.015" style="fill:#e1e1e1;fill-opacity:1;fill-rule:nonzero;stroke:none" transform="translate(253.824 196.629)"/><path d="m0 0 52.807 30.487 32.497-18.761-52.808-30.489Z" style="fill:#1a2e35;fill-opacity:1;fill-rule:nonzero;stroke:none" transform="translate(282.496 152.805)"/></g><g clip-path="url(#r)" transform="matrix(1.33333 0 0 -1.33333 0 666.667)"><path d="m0 0 157.351 90.845c3.077 1.777 5.594.323 5.594-3.23V-34.258c0-1.65-1.169-3.675-2.597-4.5L-1.002-131.91c-1.429-.825-2.598-.151-2.598 1.5V-6.235C-3.6-3.949-1.98-1.143 0 0" style="fill:#f5f5f5;fill-opacity:1;fill-rule:nonzero;stroke:none" transform="translate(176.42 333.613)"/><path d="M0 0v2.919c0 3.553-2.518 5.007-5.595 3.23l-157.35-90.845c-1.98-1.143-3.6-3.95-3.6-6.236v-5.223z" style="fill:#1a2e35;fill-opacity:1;fill-rule:nonzero;stroke:none" transform="translate(339.365 418.31)"/><path d="M0 0c-1.064-.614-1.928-2.108-1.928-3.337S-1.064-5.064 0-4.45c1.064.615 1.927 2.109 1.927 3.338S1.064.614 0 0" style="fill:#e1e1e1;fill-opacity:1;fill-rule:nonzero;stroke:none" transform="translate(315.902 411.656)"/><path d="M0 0c-1.064-.614-1.927-2.108-1.927-3.337S-1.064-5.064 0-4.45c1.064.615 1.927 2.109 1.927 3.338S1.064.615 0 0" style="fill:#e1e1e1;fill-opacity:1;fill-rule:nonzero;stroke:none" transform="translate(323.549 416.07)"/><path d="M0 0c-1.063-.615-1.927-2.109-1.927-3.338 0-1.228.863-1.727 1.927-1.112 1.064.614 1.927 2.109 1.927 3.337C1.927.116 1.064.614 0 0" style="fill:#e1e1e1;fill-opacity:1;fill-rule:nonzero;stroke:none" transform="translate(331.195 420.485)"/><path d="m0 0 .001-23.453 166.542 96.155.002 23.453z" style="fill:#00dfbf;fill-opacity:1;fill-rule:nonzero;stroke:none" transform="translate(172.82 322.154)"/><g clip-path="url(#s)" style="opacity:.10000598"><path d="m0 0 .001-23.453 166.542 96.155.002 23.453z" style="fill:#000;fill-opacity:1;fill-rule:nonzero;stroke:none" transform="translate(172.82 322.154)"/></g><path d="M0 0c.442.83.663 1.833.663 3.009 0 .982-.176 1.6-.529 1.856-.353.255-.943.144-1.771-.334a5.043 5.043 0 0 1-1.51-1.366c-.437-.582-.655-1.19-.655-1.823v-3.934c.191-.033.448.002.773.106.324.103.648.248.972.436C-1.128-1.514-.441-.83 0 0m-4.188-4.687c-.728-.18-1.303-.212-1.729-.096V6.711c0 .246.048.454.143.625.094.171.254.322.478.451l.857.495c.223.129.385.164.486.106.1-.058.151-.21.151-.456V4.153c.291.465.672.911 1.142 1.338.47.426.973.794 1.511 1.104 1.264.73 2.237.892 2.92.484.682-.407 1.024-1.333 1.024-2.781 0-1.68-.4-3.216-1.2-4.609-.8-1.391-1.984-2.54-3.55-3.445-.762-.439-1.506-.749-2.233-.931" style="fill:#fafafa;fill-opacity:1;fill-rule:nonzero;stroke:none" transform="translate(187.915 315.61)"/><path d="M0 0c-.096.061-.144.208-.144.441v11.765c0 .246.048.454.144.625.095.171.254.322.478.451l.889.513c.225.13.387.165.487.107.101-.058.152-.21.152-.456V1.682c0-.234-.048-.435-.143-.606-.095-.172-.26-.326-.496-.461L.478.101C.254-.028.095-.062 0 0" style="fill:#fafafa;fill-opacity:1;fill-rule:nonzero;stroke:none" transform="translate(192.498 316.094)"/><path d="M0 0c.413.768.62 1.663.62 2.685C.62 3.692.413 4.338 0 4.623c-.415.284-1.02.196-1.813-.263a4.665 4.665 0 0 1-1.805-1.826c-.42-.765-.629-1.652-.629-2.66 0-1.009.209-1.659.629-1.953.419-.295 1.021-.215 1.805.237C-1.02-1.383-.415-.77 0 0m-5.18-4.279c-.788.429-1.182 1.406-1.182 2.932A8.34 8.34 0 0 0-5.18 2.95c.789 1.341 1.911 2.432 3.367 3.272 1.455.84 2.579 1.046 3.374.619.794-.425 1.192-1.401 1.192-2.925 0-1.526-.398-2.96-1.192-4.304C.766-1.732-.358-2.824-1.813-3.664c-1.456-.84-2.578-1.045-3.367-.615" style="fill:#fafafa;fill-opacity:1;fill-rule:nonzero;stroke:none" transform="translate(202.51 324.026)"/><path d="M0 0c.392.607.587 1.247.587 1.919v3.45c-.212-.006-.481-.072-.805-.193a7.036 7.036 0 0 1-1.024-.495C-3.011 3.66-3.895 2.11-3.895.029c0-.956.196-1.557.588-1.802.392-.246.985-.139 1.78.32A4.426 4.426 0 0 1 0 0m-3.29-7.395c-.615-.212-1.085-.296-1.41-.251-.18.012-.224.129-.135.348l.487 1.231c.068.168.135.271.202.31.044.026.1.039.168.039.615-.006 1.415.274 2.4.843.75.433 1.299.957 1.645 1.57.347.614.52 1.411.52 2.394A6.851 6.851 0 0 0-.512-2.408a6.98 6.98 0 0 0-1.519-1.158c-1.253-.724-2.231-.894-2.929-.509-.7.384-1.05 1.294-1.05 2.728 0 1.628.417 3.119 1.251 4.472.833 1.354 2.039 2.486 3.617 3.397.728.42 1.442.716 2.141.888.699.17 1.268.208 1.703.11V.872c0-1.564-.329-2.982-.99-4.255-.66-1.273-1.694-2.315-3.106-3.13a11.125 11.125 0 0 0-1.896-.882" style="fill:#fafafa;fill-opacity:1;fill-rule:nonzero;stroke:none" transform="translate(212.581 329.928)"/><path d="M0 0v-82.428c0-.552.285-.828.637-.615.352.211.637.832.637 1.383V.769c0 .552-.285.828-.637.615C.285 1.172 0 .552 0 0" style="fill:#00dfbf;fill-opacity:1;fill-rule:nonzero;stroke:none" transform="translate(201.255 304.738)"/><path d="m0 0 36.29 20.952c1.196.691 2.165.131 2.165-1.25V-5.825c.001-1.381-.969-3.06-2.165-3.75L0-30.527c-1.196-.69-2.165-.131-2.165 1.25V-3.75C-2.165-2.369-1.196-.69 0 0" style="fill:#e1e1e1;fill-opacity:1;fill-rule:nonzero;stroke:none" transform="translate(152.511 272.763)"/><path d="M0 0c0 1.381-.969 1.94-2.165 1.25l-36.29-20.952c-1.196-.691-2.165-2.369-2.165-3.75v-2.175L0-2.175Z" style="fill:#00dfbf;fill-opacity:1;fill-rule:nonzero;stroke:none" transform="translate(190.966 292.465)"/><path d="m0 0 16.248 9.381V-7.036L0-16.416Z" style="fill:#fafafa;fill-opacity:1;fill-rule:nonzero;stroke:none" transform="translate(154.408 264.493)"/><path d="m0 0 6.093 10.819c.271.481.793.54 1.165.132l2.134-2.338 3.668 8.473c.219.507.654.552.972.1l2.216-3.151V6.999L0-2.381Z" style="fill:#00dfbf;fill-opacity:1;fill-rule:nonzero;stroke:none" transform="translate(154.408 250.458)"/><path d="M0 0c0-.782.582-1.08 1.299-.666l9.587 5.537c.718.414 1.3 1.383 1.3 2.165 0 .781-.582 1.079-1.299.665L1.299 2.165C.582 1.751 0 .782 0 0" style="fill:#fafafa;fill-opacity:1;fill-rule:nonzero;stroke:none" transform="translate(174.719 274.804)"/><path d="M0 0c0-.782.582-1.08 1.299-.666l9.587 5.537c.718.414 1.3 1.383 1.3 2.165 0 .781-.582 1.079-1.299.665L1.299 2.165C.582 1.751 0 .781 0 0" style="fill:#fafafa;fill-opacity:1;fill-rule:nonzero;stroke:none" transform="translate(174.719 268.05)"/><path d="M0 0c0-.781.582-1.08 1.299-.665l9.587 5.536c.718.414 1.3 1.383 1.3 2.165 0 .781-.582 1.079-1.299.665L1.299 2.166C.582 1.751 0 .782 0 0" style="fill:#fafafa;fill-opacity:1;fill-rule:nonzero;stroke:none" transform="translate(174.719 261.296)"/><path d="m0 0 36.29 20.952c1.196.691 2.165.131 2.165-1.25V-5.825c.001-1.381-.969-3.06-2.165-3.75L0-30.527c-1.196-.691-2.165-.131-2.165 1.25V-3.75C-2.165-2.369-1.196-.69 0 0" style="fill:#e1e1e1;fill-opacity:1;fill-rule:nonzero;stroke:none" transform="translate(152.511 233.238)"/><path d="M0 0c0 1.381-.969 1.94-2.165 1.25l-36.29-20.952c-1.196-.691-2.165-2.369-2.165-3.75v-2.175L0-2.175Z" style="fill:#00dfbf;fill-opacity:1;fill-rule:nonzero;stroke:none" transform="translate(190.966 252.94)"/><path d="m0 0 16.248 9.38V-7.036L0-16.417Z" style="fill:#fafafa;fill-opacity:1;fill-rule:nonzero;stroke:none" transform="translate(154.408 224.969)"/><path d="m0 0 6.093 10.819c.271.481.793.54 1.165.133l2.134-2.339 3.668 8.474c.219.507.654.551.972.1l2.216-3.151V7L0-2.381Z" style="fill:#00dfbf;fill-opacity:1;fill-rule:nonzero;stroke:none" transform="translate(154.408 210.933)"/><path d="M0 0c0-.782.582-1.08 1.299-.665l9.587 5.535c.718.414 1.3 1.384 1.3 2.165 0 .782-.582 1.08-1.299.666L1.299 2.165C.582 1.751 0 .781 0 0" style="fill:#fafafa;fill-opacity:1;fill-rule:nonzero;stroke:none" transform="translate(174.719 235.28)"/><path d="M0 0c0-.782.582-1.08 1.299-.666l9.587 5.536c.718.414 1.3 1.384 1.3 2.165 0 .782-.582 1.08-1.299.665L1.299 2.165C.582 1.751 0 .781 0 0" style="fill:#fafafa;fill-opacity:1;fill-rule:nonzero;stroke:none" transform="translate(174.719 228.525)"/><path d="M0 0c0-.781.582-1.079 1.299-.665l9.587 5.536c.718.414 1.3 1.384 1.3 2.165 0 .781-.582 1.079-1.299.665L1.299 2.166C.582 1.751 0 .782 0 0" style="fill:#fafafa;fill-opacity:1;fill-rule:nonzero;stroke:none" transform="translate(174.719 221.77)"/><path d="m0 0 111.571 64.41c1.197.69 2.165.131 2.165-1.25l.001-32.536c0-1.381-.969-3.06-2.165-3.75L0-37.536c-1.195-.691-2.165-.131-2.165 1.25V-3.75C-2.165-2.37-1.196-.69 0 0" style="fill:#e1e1e1;fill-opacity:1;fill-rule:nonzero;stroke:none" transform="translate(215.606 271.815)"/><path d="M0 0c0 1.381-.969 1.94-2.165 1.25l-111.571-64.41c-1.196-.69-2.165-2.369-2.165-3.75v-2.175L0-2.175Z" style="fill:#00dfbf;fill-opacity:1;fill-rule:nonzero;stroke:none" transform="translate(329.342 334.974)"/><path d="m0 0-22.533-13.009c-.957-.553-1.732-1.895-1.732-3v-22.272c0-1.105.775-1.553 1.732-1L0-26.273c.957.552 1.732 1.895 1.732 3V-1C1.732.104.957.552 0 0" style="fill:#fafafa;fill-opacity:1;fill-rule:nonzero;stroke:none" transform="translate(240.956 278.565)"/><path d="m0 0-7.948-16.95v-1.759c0-1.104.776-1.553 1.732-1L16.317-6.701c.957.553 1.732 1.895 1.732 3v7.696l-4.261 8.036c-.517.975-1.288.943-1.72-.074L5.358-3.818 2.099.25C1.409 1.112.469 1 0 0" style="fill:#00dfbf;fill-opacity:1;fill-rule:nonzero;stroke:none" transform="translate(224.638 258.993)"/><path d="M0 0c2.151 1.242 3.895 4.262 3.895 6.745 0 .869-.218 1.553-.588 2.027l-4.18-2.413c-.957-.552-1.732-1.895-1.732-3V-.343C-1.915-.664-1.003-.579 0 0" style="fill:#00dfbf;fill-opacity:1;fill-rule:nonzero;stroke:none" transform="translate(219.295 259.197)"/><path d="m0 0 69.653 40.214c.956.552 1.733.174 1.733-.844 0-1.019-.776-2.293-1.732-2.845L0-3.689c-.956-.553-1.731-.175-1.731.844S-.956-.552 0 0" style="fill:#fafafa;fill-opacity:1;fill-rule:nonzero;stroke:none" transform="translate(252.874 283.47)"/><path d="m0 0 69.653 40.214c.956.552 1.733.174 1.733-.844 0-1.019-.776-2.293-1.732-2.845L0-3.69c-.956-.552-1.731-.174-1.731.845S-.956-.552 0 0" style="fill:#fafafa;fill-opacity:1;fill-rule:nonzero;stroke:none" transform="translate(252.874 274.09)"/><path d="m0 0 69.653 40.214c.956.552 1.733.174 1.733-.845 0-1.018-.776-2.292-1.732-2.845L0-3.69c-.956-.552-1.731-.174-1.731.845S-.956-.552 0 0" style="fill:#fafafa;fill-opacity:1;fill-rule:nonzero;stroke:none" transform="translate(252.874 264.71)"/></g><g clip-path="url(#t)" transform="matrix(1.33333 0 0 -1.33333 0 666.667)"><path d="m0 0-10.224.284c-.687.588-11.425 12.708-11.425 12.708s-3.865-6.097-3.929-6.486c-.065-.388 10.529-11.717 11.576-12.86.58-.633 1.111-1.139 2.5-1.223 2.771-.166 13.146-.895 13.146-.895z" style="fill:#ff9090;fill-opacity:1;fill-rule:nonzero;stroke:none" transform="translate(366.84 374.691)"/><path d="m0 0-15.761 1.166 1.222 10.581 16.269-.355Z" style="fill:#00dfbf;fill-opacity:1;fill-rule:nonzero;stroke:none" transform="translate(381.379 362.944)"/><g clip-path="url(#u)" style="opacity:.19999701"><path d="m0 0-15.761 1.166 1.222 10.581 16.269-.355Z" style="fill:#000;fill-opacity:1;fill-rule:nonzero;stroke:none" transform="translate(381.379 362.944)"/></g><path d="m0 0 111.571 64.41c1.196.69 2.165.131 2.165-1.25V30.624c0-1.381-.968-3.06-2.165-3.75L0-37.536c-1.196-.691-2.165-.131-2.165 1.25L-2.166-3.75c0 1.38.97 3.06 2.166 3.75" style="fill:#e1e1e1;fill-opacity:1;fill-rule:nonzero;stroke:none" transform="translate(235.916 328.14)"/><path d="M0 0c0 1.381-.97 1.94-2.165 1.25l-111.571-64.41c-1.196-.69-2.166-2.369-2.165-3.75v-2.175L0-2.175Z" style="fill:#00dfbf;fill-opacity:1;fill-rule:nonzero;stroke:none" transform="translate(349.652 391.3)"/><path d="m0 0-22.533-13.009c-.957-.553-1.732-1.895-1.732-3v-22.272c0-1.105.775-1.552 1.732-1L0-26.273c.957.552 1.732 1.895 1.732 3V-1C1.732.104.957.552 0 0" style="fill:#fafafa;fill-opacity:1;fill-rule:nonzero;stroke:none" transform="translate(261.266 334.892)"/><path d="m0 0-7.948-16.951v-1.758c0-1.104.776-1.552 1.732-1L16.317-6.701c.957.553 1.733 1.895 1.733 3v7.696l-4.262 8.036c-.517.975-1.287.943-1.72-.074L5.358-3.818 2.1.25C1.409 1.112.469 1 0 0" style="fill:#00dfbf;fill-opacity:1;fill-rule:nonzero;stroke:none" transform="translate(244.948 315.32)"/><path d="M0 0c2.151 1.242 3.895 4.262 3.895 6.745 0 .869-.218 1.553-.588 2.027l-4.18-2.413c-.957-.552-1.732-1.895-1.732-3V-.343C-1.915-.664-1.003-.579 0 0" style="fill:#00dfbf;fill-opacity:1;fill-rule:nonzero;stroke:none" transform="translate(239.606 315.523)"/><path d="m0 0 69.653 40.214c.956.552 1.732.174 1.732-.844.001-1.019-.775-2.293-1.732-2.845L0-3.689c-.957-.553-1.732-.175-1.732.844S-.957-.552 0 0" style="fill:#fafafa;fill-opacity:1;fill-rule:nonzero;stroke:none" transform="translate(273.185 339.797)"/><path d="m0 0 69.653 40.214c.956.552 1.732.174 1.732-.844.001-1.019-.775-2.293-1.732-2.845L0-3.69c-.957-.552-1.732-.174-1.732.845S-.957-.552 0 0" style="fill:#fafafa;fill-opacity:1;fill-rule:nonzero;stroke:none" transform="translate(273.185 330.416)"/><path d="m0 0 69.653 40.214c.956.552 1.732.174 1.732-.845.001-1.018-.775-2.292-1.732-2.844L0-3.69c-.957-.552-1.732-.174-1.732.845S-.957-.552 0 0" style="fill:#fafafa;fill-opacity:1;fill-rule:nonzero;stroke:none" transform="translate(273.185 321.036)"/><path d="M401.502 242.484h-5.904v8.598h5.904z" style="fill:#ffaaa8;fill-opacity:1;fill-rule:nonzero;stroke:none"/><path d="m0 0-5.901-.203-.296 8.594 5.901.202z" style="fill:#ffaaa8;fill-opacity:1;fill-rule:nonzero;stroke:none" transform="translate(381.031 253.13)"/><path d="M0 0c0-5.638.729-42.111.729-42.111.138-1.622 1.659-4.614 1.33-10.845C1.611-61.42.88-84.935.88-84.935s-2.769-2.744-6.678 0c0 0-5.346 31.95-6.404 40.338-.923 7.321-2.489 27.209-2.489 27.209l-5.471-23.41s.963-5.503 1.174-9.388c.212-3.883-1.002-26.317-1.002-26.317s-3.001-2.075-6.425-.245c0 0-4.743 32.777-5.353 36.285C-32.376-36.955-27.615 0-27.615 0Z" style="fill:#375a64;fill-opacity:1;fill-rule:nonzero;stroke:none" transform="translate(401.114 335.02)"/><path d="m0 0 .08-.019C5.279-1.31 8.888-6.05 8.888-11.407v-27.641c-4.141-4.504-18.575-6.603-27.616 0v28.781c0 4.6 2.555 10.124 9.611 10.535z" style="fill:#00dfbf;fill-opacity:1;fill-rule:nonzero;stroke:none" transform="translate(392.227 374.068)"/><path d="M0 0s1.463.25 2.604-.916c1.118-1.143.885-3.259-.002-8.123l-3.456-.397z" style="fill:#1a2e35;fill-opacity:1;fill-rule:nonzero;stroke:none" transform="translate(394.214 397.606)"/><path d="M0 0s-1.396-.001-2.162.439c-1.061.609-1.338-.596-.756-1.644.581-1.047 1.667-2.411 4.009-2.67.031.15.992 2.699.992 2.699z" style="fill:#1a2e35;fill-opacity:1;fill-rule:nonzero;stroke:none" transform="translate(374.065 399.013)"/><path d="M0 0c.513-.306 1.245.679 1.878 1.341.633.662 2.698 1.567 3.728-.604 1.05-2.213-1.334-5.154-2.733-6.127C1.21-6.545 0-5.639 0-5.639L-.366-14.1s-1.835-4.489-6.804-5.162c-4.968-.674-3.945 3.423-2.313 5.43l.007 3.076s-2.566-.516-3.777-.194c-.648.173-2.193 2.042-3.191 4.133-1.12 2.347-2.984 6.516-1.326 13.565 1.783 7.573 9.917 7.804 14.769 4.751C1.85 8.445 0 0 0 0" style="fill:#ffaaa8;fill-opacity:1;fill-rule:nonzero;stroke:none" transform="translate(392.593 388.168)"/><path d="M0 0c.258-.005 1.239 1.624 1.878 2.205.885.805-.257 8.096-.257 8.096s.896 2.766-.853 4.6c-1.749 1.834-5.138 1.524-7.617 1.614-2.578.092-5.339.248-8.859 1.777-3.52 1.529-3.782 1.71-4.219.164-.437-1.545-.601-5.085 1.499-7.457l1.747-.643s.944-.837 4.227-1.236c3.282-.4 8.395.076 9.095.172.951.13 1.155-.792 1.668-3.313C-1.241 3.767-.867.017 0 0" style="fill:#1a2e35;fill-opacity:1;fill-rule:nonzero;stroke:none" transform="translate(392.593 387.305)"/><path d="m0 0 3.102 1.665c-.44.889-1.492 1.236-2.348.776C-.103 1.982-.44.889 0 0" style="fill:#1a2e35;fill-opacity:1;fill-rule:nonzero;stroke:none" transform="translate(394.209 397.04)"/><path d="M0 0s4.601.927 6.209 1.782c1.076.572 1.963 1.564 2.223 2.199 0 0-.301-1.365-1.263-2.594C5.992-.117 0-1.224 0-1.224Z" style="fill:#ff9090;fill-opacity:1;fill-rule:nonzero;stroke:none" transform="translate(383.117 377.412)"/><path d="M0 0c0-.529.413-.957.922-.956.51.002.922.432.922.961 0 .529-.412.956-.922.955C.413.959 0 .529 0 0" style="fill:#1a2e35;fill-opacity:1;fill-rule:nonzero;stroke:none" transform="translate(384.223 389.318)"/><path d="m0 0 1.973-1.089c.291.567.085 1.27-.46 1.57C.968.782.291.566 0 0" style="fill:#1a2e35;fill-opacity:1;fill-rule:nonzero;stroke:none" transform="translate(385.2 392.799)"/><path d="m0 0-2.104-.79c.208-.603.848-.915 1.429-.697C-.094-1.269.208-.603 0 0" style="fill:#ff9090;fill-opacity:1;fill-rule:nonzero;stroke:none" transform="translate(384.292 383.067)"/><path d="m0 0 1.799 1.385a1.09 1.09 0 0 1-1.564.24A1.193 1.193 0 0 1 0 0" style="fill:#1a2e35;fill-opacity:1;fill-rule:nonzero;stroke:none" transform="translate(376.002 392.031)"/><path d="M0 0c0-.529.413-.957.922-.955.509.001.922.431.922.96 0 .529-.413.957-.922.955C.413.959 0 .529 0 0" style="fill:#1a2e35;fill-opacity:1;fill-rule:nonzero;stroke:none" transform="translate(376.556 389.58)"/><path d="m0 0-.303-5.544-2.894.986z" style="fill:#ff9090;fill-opacity:1;fill-rule:nonzero;stroke:none" transform="translate(381.252 390.455)"/><path d="M0 0v.845C-.564.599-1.878-4.409-4.22-6.546c-1.863-1.699-4.403-3.661-5.05-5.555-.671-1.969 3.539-3.057 5.279-2.749 2.021.359 5.525 1.782 6.405 3.102.88 1.319 1.291 3.266 2.006 4.233.715.967 2.363 2.047 2.749 3.166.213.615-.039 1.961-.338 3.1C6.558-.205 6.261.942 5.904.845V.201C5.476-.274 4.29-.746 2.952-.797 2.089-.83-.007-.659 0 0" style="fill:#1a2e35;fill-opacity:1;fill-rule:nonzero;stroke:none" transform="translate(395.598 245.398)"/><path d="M0 0c-.307-.01-.557-.443-1.232-1.175-.818-.885-2.155-1.839-3.474-2.499-2.211-1.107-6.509-2.809-8.454-3.686-1.216-.547-1.158-2.015.097-2.85 1.257-.835 4.29-1.438 7.931-.623 1.985.444 4.568 2.276 6.201 2.177 1.635-.098 4.694-.075 5.901.756 1.207.832.723 2.608.383 4.134C6.98-2.1 6.447.449 5.896.335l.018-.523C5.204-1.263 1.591-1.702.031-.911Z" style="fill:#1a2e35;fill-opacity:1;fill-rule:nonzero;stroke:none" transform="translate(375.067 254.749)"/><path d="m0 0-18.232-18.861s-15.989 2.862-21.459 4.427c-1.724.493-2.921 3.06-3.301 5.047-.38 1.986-1.371 2.592-1.371 2.592s-.04-1.406-.363-3.723c-.139-1.006-1.72-1.129-3.127-1.432-5.024-1.079-6.708.025-8.769-1.445-1.599-1.14.404-4.1 4.059-5.101 5.125-1.404 7.955-.703 11.077-1.477 2.407-.597 19.748-6.042 23.049-6.763 1.746-.381 3.075-.261 4.97 1.615 1.895 1.876 16.292 14.423 16.292 14.423z" style="fill:#ffaaa8;fill-opacity:1;fill-rule:nonzero;stroke:none" transform="translate(394.016 370.233)"/><path d="M0 0c-2.007.501-14.194-14.046-14.194-14.046l6.72-5.636s8.694 5.699 10.239 7.981S6.053-1.514 0 0" style="fill:#00dfbf;fill-opacity:1;fill-rule:nonzero;stroke:none" transform="translate(394.807 370.885)"/><path d="M0 0s9.179 8.22 9.608 9.119c.83 1.733.603 4.936.603 4.936s.998-2.784.028-4.934C9.27 6.971 2.261.867 1.13-.188L0-1.244-1.09-.23l.653.576Z" style="fill:#00dfbf;fill-opacity:1;fill-rule:nonzero;stroke:none" transform="translate(387.77 350.857)"/><g clip-path="url(#v)" style="opacity:.19999701"><path d="M0 0s9.179 8.22 9.608 9.119c.83 1.733.603 4.936.603 4.936s.998-2.784.028-4.934C9.27 6.971 2.261.867 1.13-.188L0-1.244-1.09-.23l.653.576Z" style="fill:#000;fill-opacity:1;fill-rule:nonzero;stroke:none" transform="translate(387.77 350.857)"/></g><path d="M0 0c1.999.219 3.329 1.702 3.78 1.285.45-.418.33-1.133.057-1.45C3.28-.809.849-1.89.849-1.89S.504-3.165.306-4.983c-.167-1.529-.11-4.584-1.417-5.632-3.908-3.132-4.913 1.846-4.757 5.183C-5.673-1.286-2.096-.229 0 0" style="fill:#ff9090;fill-opacity:1;fill-rule:nonzero;stroke:none" transform="translate(341.652 391.562)"/></g></svg>