<svg xmlns="http://www.w3.org/2000/svg" width="603" height="575" fill="none"><g clip-path="url(#a)"><path fill="#EDEDEB" d="M514.691 527.857c-117.743 62.857-308.644 62.858-426.385.001-117.743-62.858-117.743-164.772 0-227.629 117.744-62.859 308.643-62.859 426.387-.001 117.742 62.857 117.742 164.772-.002 227.629Z"/><path fill="#DADBD8" d="m305.215 443.128-86.043 49.48c-.991.573-2.6.573-3.593 0L63.276 404.662c-.992-.574-.992-1.502 0-2.075l86.042-49.48c.992-.572 2.601-.572 3.594 0l152.303 87.947c.993.572.993 1.501 0 2.074Z"/><path fill="#DADBD8" d="M42.358 468.82c.28-2.204 2.92-3.321 4.373-4.161l58.757-34.029c2.596-1.5 5.808-1.556 8.403-.058l58.739 33.882c1.731 1 4.562 2.91 4.562 5.147s-1.547 2.731-4.392 4.375l-58.325 33.7a9.598 9.598 0 0 1-9.607 0l-60.18-34.481c-1.979-1.349-2.511-2.945-2.33-4.375Z"/><path fill="#26B6A6" d="m242.6 295.039-13.86-8.004c-.686-.398-1.668-.625-2.651-.622-.982-.003-1.961.224-2.647.622l-86.891 50.176-.692-1.198 86.892-50.176c.968-.554 2.154-.806 3.338-.808 1.185.002 2.373.252 3.343.808l13.859 8.004-.691 1.198Z"/><path fill="#26B6A6" d="m248.217 291.795-19.478-11.247c-.685-.4-1.665-.627-2.649-.624-.982-.003-1.962.224-2.648.624l-92.509 53.419-.692-1.198 92.509-53.419c.968-.556 2.156-.806 3.34-.809 1.186.003 2.372.253 3.34.809l19.479 11.247-.692 1.198Z"/><path fill="#26B6A6" d="m124.622 329.526 98.128-56.665c.968-.554 2.155-.806 3.339-.809 1.185.003 2.373.253 3.343.809l25.093 14.481-.691 1.198-25.094-14.481c-.686-.4-1.666-.625-2.651-.624-.982-.001-1.961.226-2.647.624l-98.129 56.665-.691-1.198Z"/><path fill="#26B6A6" d="m119.004 326.281 103.746-59.907c.97-.556 2.157-.807 3.342-.809 1.184.002 2.372.253 3.34.807l30.732 17.738-.691 1.198-30.733-17.736c-.686-.4-1.666-.627-2.648-.624-.984-.003-1.964.224-2.65.624l-103.747 59.907-.691-1.198Z"/><path fill="#263E47" d="m330.227.99 89.516 51.688c1.654.956 2.995 3.279 2.995 5.187v246.118c0 1.909-1.341 4.231-2.995 5.187l-89.518 51.69c-1.654.955-4.334.955-5.988 0l-89.514-51.69c-1.654-.954-2.995-3.277-2.995-5.187V57.867c0-1.91 1.341-4.233 2.995-5.187L324.237.99c1.654-.957 4.336-.957 5.99 0Z"/><path fill="#17282F" d="M231.732 57.861v246.12c0 1.909 1.341 4.233 2.987 5.188l89.524 51.691c.816.484 1.908.72 2.987.72V108.543c-1.079 0-2.158-.249-2.987-.719l-89.524-51.692-.816-.678-1.065-.885c-.677 1.024-1.106 2.213-1.106 3.292Z"/><path fill="#33535F" d="m408.508 82.089-67.047 38.714c-1.652.954-2.994 3.277-2.993 5.187v25.525c0 1.909 1.342 2.683 2.995 1.729l67.043-38.716c1.654-.954 2.995-3.276 2.995-5.187l.001-25.523c0-1.91-1.34-2.684-2.994-1.73Z"/><path fill="#26B6A6" d="M405.884 93.336c0 1.791-1.342 4.018-2.994 4.972l-55.81 32.227c-1.654.955-2.994.277-2.994-1.514 0-1.793 1.34-4.019 2.994-4.975l55.81-32.225c1.652-.954 2.994-.277 2.994 1.515Z"/><path fill="#17282F" d="M405.884 106.312c0 1.791-1.342 4.018-2.994 4.973l-55.81 32.226c-1.654.955-2.994.277-2.994-1.514 0-1.793 1.34-4.019 2.994-4.973l55.81-32.227c1.652-.954 2.994-.277 2.994 1.515Z"/><path fill="#26B6A6" d="m402.89 104.797-30.714 17.735v6.487l30.714-17.734c1.652-.955 2.994-3.182 2.994-4.973 0-1.792-1.342-2.469-2.994-1.515Z"/><path fill="#33535F" d="m408.508 127.505-67.047 38.714c-1.652.954-2.994 3.277-2.993 5.187v25.525c0 1.909 1.342 2.683 2.995 1.729l67.043-38.714c1.654-.956 2.995-3.279 2.995-5.187l.001-25.525c0-1.911-1.34-2.684-2.994-1.729Z"/><path fill="#26B6A6" d="M405.884 138.752c0 1.791-1.342 4.018-2.994 4.972l-55.81 32.227c-1.654.955-2.994.277-2.994-1.514 0-1.792 1.34-4.019 2.994-4.975l55.81-32.225c1.652-.954 2.994-.277 2.994 1.515Z"/><path fill="#17282F" d="M405.884 151.728c0 1.791-1.342 4.018-2.994 4.973l-55.81 32.226c-1.654.955-2.994.277-2.994-1.514 0-1.792 1.34-4.019 2.994-4.973l55.81-32.227c1.652-.954 2.994-.276 2.994 1.515Z"/><path fill="#26B6A6" d="m402.89 150.213-47.568 27.467v6.488l47.568-27.467c1.652-.955 2.994-3.182 2.994-4.973s-1.342-2.469-2.994-1.515Z"/><path fill="#33535F" d="m408.508 172.921-67.047 38.714c-1.652.954-2.994 3.277-2.993 5.187v25.525c0 1.91 1.342 2.683 2.995 1.729l67.043-38.714c1.654-.956 2.995-3.279 2.995-5.187l.001-25.525c0-1.909-1.34-2.684-2.994-1.729Z"/><path fill="#26B6A6" d="M405.884 184.168c0 1.792-1.342 4.018-2.994 4.974l-55.81 32.225c-1.654.955-2.994.277-2.994-1.514 0-1.792 1.34-4.019 2.994-4.973l55.81-32.227c1.652-.954 2.994-.277 2.994 1.515Z"/><path fill="#17282F" d="M405.884 197.144c0 1.793-1.342 4.018-2.994 4.974l-55.81 32.225c-1.654.956-2.994.277-2.994-1.514s1.34-4.018 2.994-4.973l55.81-32.227c1.652-.954 2.994-.276 2.994 1.515Z"/><path fill="#26B6A6" d="m402.89 195.629-19.479 11.247v6.488l19.479-11.247c1.652-.955 2.994-3.18 2.994-4.973 0-1.791-1.342-2.469-2.994-1.515Z"/><path fill="#33535F" d="m408.508 218.336-67.047 38.715c-1.652.955-2.994 3.276-2.993 5.187v25.525c0 1.91 1.342 2.683 2.995 1.729l67.043-38.714c1.654-.955 2.995-3.277 2.995-5.188l.001-25.525c0-1.908-1.34-2.683-2.994-1.729Z"/><path fill="#26B6A6" d="M405.884 229.584c0 1.792-1.342 4.018-2.994 4.974l-55.81 32.225c-1.654.956-2.994.277-2.994-1.514 0-1.792 1.34-4.019 2.994-4.973l55.81-32.227c1.652-.954 2.994-.277 2.994 1.515Z"/><path fill="#17282F" d="M405.884 242.561c0 1.791-1.342 4.017-2.994 4.973l-55.81 32.225c-1.654.956-2.994.277-2.994-1.514 0-1.792 1.34-4.019 2.994-4.973l55.81-32.227c1.652-.954 2.994-.277 2.994 1.516Z"/><path fill="#26B6A6" d="m402.89 241.045-30.714 17.736v6.488l30.714-17.735c1.652-.956 2.994-3.181 2.994-4.973 0-1.792-1.342-2.47-2.994-1.516Z"/><path fill="#33535F" d="m408.508 263.753-67.047 38.714c-1.652.956-2.994 3.278-2.993 5.187v25.525c0 1.91 1.342 2.683 2.995 1.729l67.043-38.714c1.654-.955 2.995-3.277 2.995-5.187l.001-25.525c0-1.909-1.34-2.684-2.994-1.729Z"/><path fill="#26B6A6" d="M405.884 275.001c0 1.791-1.342 4.017-2.994 4.973l-55.81 32.225c-1.654.956-2.994.277-2.994-1.514 0-1.792 1.34-4.019 2.994-4.973l55.81-32.227c1.652-.954 2.994-.277 2.994 1.516Z"/><path fill="#17282F" d="M405.884 287.977c0 1.791-1.342 4.017-2.994 4.973l-55.81 32.225c-1.654.956-2.994.277-2.994-1.514 0-1.792 1.34-4.019 2.994-4.973l55.81-32.227c1.652-.954 2.994-.277 2.994 1.516Z"/><path fill="#26B6A6" d="m402.89 286.461-41.95 24.223v6.488l41.95-24.222c1.652-.956 2.994-3.182 2.994-4.973 0-1.793-1.342-2.47-2.994-1.516Z"/><path fill="#263E47" d="M313.188 124.167c-3.103-1.799-5.618-.161-5.618 3.658l-.001 148.384c0 3.819 2.516 8.374 5.618 10.172 3.103 1.799 5.618.162 5.618-3.659l.001-148.382c0-3.819-2.516-8.374-5.618-10.173Z"/><path fill="#17282F" d="M313.187 283.097c-1.551-.896-2.809-3.17-2.809-5.079l.001-148.797c0-1.91 1.257-2.732 2.809-1.837 1.552.895 2.809 3.171 2.809 5.079l-.001 148.799c0 1.908-1.257 2.731-2.809 1.835Z"/><path fill="#26B6A6" d="M313.187 283.097c-1.551-.896-2.809-3.17-2.809-5.079l.001-71.142 5.618 3.244-.001 71.142c0 1.908-1.257 2.731-2.809 1.835Z"/><path fill="#263E47" d="M296.335 114.436c-3.104-1.8-5.62-.161-5.62 3.658v148.382c0 3.821 2.516 8.376 5.618 10.174 3.102 1.8 5.618.16 5.618-3.659l.001-148.382c0-3.82-2.515-8.374-5.617-10.173Z"/><path fill="#26B6A6" d="M296.333 273.366c-1.552-.896-2.809-3.17-2.809-5.081l.001-148.796c0-1.911 1.258-2.732 2.809-1.836 1.552.895 2.809 3.169 2.809 5.079l-.001 148.797c0 1.91-1.257 2.732-2.809 1.837Z"/><path fill="#263E47" d="M279.479 104.705c-3.102-1.8-5.617-.162-5.617 3.658v148.382c0 3.819 2.514 8.374 5.617 10.174 3.103 1.798 5.618.16 5.618-3.659l.002-148.383c0-3.819-2.516-8.374-5.62-10.172Z"/><path fill="#17282F" d="M279.479 263.634c-1.551-.895-2.808-3.171-2.808-5.08V109.758c0-1.911 1.258-2.732 2.81-1.837 1.55.896 2.809 3.17 2.809 5.08l-.002 148.797c0 1.91-1.258 2.732-2.809 1.836Z"/><path fill="#26B6A6" d="M279.479 263.634c-1.551-.895-2.808-3.171-2.808-5.08V143.618l5.619 3.244-.002 114.936c0 1.91-1.258 2.732-2.809 1.836Z"/><path fill="#263E47" d="M262.626 94.972c-3.102-1.798-5.618-.16-5.618 3.659l-.001 148.382c0 3.82 2.515 8.375 5.617 10.173 3.104 1.8 5.618.162 5.62-3.658V105.146c0-3.821-2.515-8.374-5.618-10.174Z"/><path fill="#17282F" d="M262.625 253.902c-1.551-.896-2.809-3.17-2.809-5.08l.001-148.796c0-1.91 1.257-2.732 2.809-1.837 1.552.897 2.809 3.171 2.809 5.081v148.797c0 1.909-1.259 2.732-2.81 1.835Z"/><path fill="#26B6A6" d="M262.624 253.902c-1.55-.896-2.808-3.17-2.807-5.08v-25.113l5.618 3.244v25.114c0 1.909-1.259 2.732-2.811 1.835Z"/><path fill="#263E47" d="M245.772 85.24c-3.103-1.799-5.618-.16-5.618 3.66l-.001 148.381c0 3.819 2.516 8.375 5.618 10.174 3.103 1.8 5.618.161 5.618-3.659l.001-148.381c0-3.82-2.516-8.376-5.618-10.174Z"/><path fill="#17282F" d="M245.771 244.171c-1.552-.896-2.809-3.17-2.809-5.08l.001-148.797c0-1.91 1.258-2.732 2.809-1.836 1.552.895 2.809 3.17 2.809 5.08l-.001 148.796c0 1.911-1.257 2.732-2.809 1.837Z"/><path fill="#26B6A6" d="M245.771 244.171c-1.552-.896-2.809-3.17-2.809-5.08l.001-77.631 5.618 3.244-.001 77.63c0 1.911-1.257 2.732-2.809 1.837Z"/><path fill="#263E47" d="m316.409 304.435-73.861-42.65c-1.322-.763-2.395-.145-2.395 1.384v26.907c0 1.528 1.073 3.386 2.395 4.149l73.861 42.651c1.324.764 2.395.144 2.395-1.383v-26.908c0-1.527-1.071-3.385-2.395-4.15Z"/><path fill="#17282F" d="M313.373 312.414c0 1.791-1.341 2.47-2.995 1.514l-61.797-35.694c-1.654-.956-2.994-3.182-2.995-4.973 0-1.793 1.34-2.471 2.994-1.515l61.8 35.695c1.653.956 2.993 3.181 2.993 4.973Z"/><path fill="#26B6A6" d="M313.373 312.414c0 1.791-1.341 2.469-2.995 1.514l-44.942-25.965-.001-6.487 44.945 25.965c1.653.954 2.993 3.181 2.993 4.973Z"/><path fill="#17282F" d="M313.373 325.39c0 1.791-1.341 2.47-2.995 1.514l-61.797-35.694c-1.654-.956-2.994-3.182-2.995-4.973 0-1.791 1.34-2.471 2.994-1.515l61.8 35.695c1.653.956 2.993 3.181 2.993 4.973Z"/><path fill="#26B6A6" d="M313.373 325.39c0 1.791-1.341 2.47-2.995 1.514l-16.854-9.732-.001-6.488 16.857 9.733c1.653.956 2.993 3.181 2.993 4.973Z"/><path fill="#33535F" d="M234.723 52.68 324.238.99c1.654-.957 4.336-.957 5.989 0l89.516 51.688c1.654.956 1.654 2.504 0 3.458l-89.518 51.691c-1.654.955-4.334.955-5.988 0l-89.514-51.69c-1.654-.955-1.654-2.503 0-3.458Z"/><path fill="#17282F" d="m329.029 95.542 69.441-40.098c.991-.572 1.796-1.965 1.796-3.112v-2.337c0-1.146-.805-2.54-1.796-3.113L329.029 6.785c-.992-.573-2.6-.573-3.593 0l-69.439 40.097c-.993.574-1.797 1.967-1.797 3.113v2.339c0 1.145.804 2.538 1.797 3.112l69.439 40.096c.992.574 2.601.574 3.593 0Z"/><path fill="#33535F" d="m398.47 48.957-69.441 40.098c-.991.572-2.601.572-3.593 0l-69.439-40.098c-.993-.572-.993-1.5 0-2.075L325.436 8.17c.993-.573 2.602-.573 3.593 0l69.441 38.712c.991.573.991 1.503 0 2.075Z"/><path fill="#263E47" d="M327.23 89.482v6.487c.65 0 1.3-.138 1.798-.428l69.442-40.1c.995-.568 1.798-1.965 1.798-3.113V49.99c0-1.01-.623-2.213-1.466-2.877.65.568.539 1.342-.332 1.84l-69.442 40.1c-.498.29-1.148.43-1.798.43Z"/><path fill="#17282F" d="m329.029 76.078 46.969-27.12c.992-.574 1.797-1.966 1.797-3.113v-2.34c0-1.145-.805-2.538-1.797-3.112l-30.114-17.387c-.993-.573-2.351-1.783-3.033-2.704L328.469.925c-.683-.92-2.041-1.2-3.034-.628l-46.968 27.12c-.993.573-1.797 1.967-1.797 3.112l.002 15.316c0 1.147.803 2.54 1.796 3.112l46.968 27.121c.992.573 2.602.573 3.593 0Z"/><path fill="#33535F" d="m325.436 69.591-30.114-17.39c-.477-.275-1.04-.699-1.571-1.166-.573-.505-1.108-1.06-1.462-1.537l-14.382-19.376c-.683-.922-.433-2.132.56-2.705L325.435.297c.993-.572 2.351-.291 3.034.628l14.382 19.377c.682.921 1.791 2.24 2.784 2.814l30.363 17.278c.992.574.992 1.502 0 2.074l-46.969 27.123c-.991.573-2.6.573-3.593 0Z"/><path fill="#263E47" d="M278.467 27.417 325.435.297c.993-.572 2.351-.292 3.034.628l14.382 19.377c.355.48.895 1.027 1.469 1.531l-50.566 29.198c-.573-.505-1.111-1.056-1.465-1.533L277.907 30.12c-.683-.92-.433-2.131.56-2.704Z"/><path fill="#26B6A6" d="M364.602 40.87c-1.163-.672-3.05-.672-4.214 0-1.163.673-1.163 1.762 0 2.434 1.164.67 3.051.67 4.214 0 1.163-.672 1.163-1.761 0-2.433ZM356.175 45.736c-1.163-.671-3.049-.671-4.214 0-1.163.672-1.163 1.762 0 2.433 1.165.672 3.051.672 4.214 0 1.163-.671 1.163-1.761 0-2.433Z"/><path fill="#17282F" d="M347.749 50.602c-1.164-.672-3.05-.672-4.213 0-1.165.672-1.165 1.76 0 2.433 1.163.672 3.049.672 4.213 0 1.163-.672 1.163-1.761 0-2.433ZM339.322 55.468c-1.163-.672-3.05-.672-4.213 0-1.164.67-1.164 1.76 0 2.433 1.163.671 3.05.671 4.213 0 1.164-.672 1.164-1.762 0-2.433Z"/><path fill="#26B6A6" d="M358.282 37.22c-1.163-.672-3.05-.672-4.213 0-1.165.673-1.165 1.761 0 2.434 1.163.672 3.05.672 4.213 0 1.164-.673 1.164-1.761 0-2.434Z"/><path fill="#17282F" d="M349.855 42.087c-1.163-.673-3.05-.673-4.213 0-1.163.672-1.163 1.76 0 2.433 1.163.67 3.05.67 4.213 0 1.164-.673 1.164-1.761 0-2.434Z"/><path fill="#26B6A6" d="M341.429 46.953c-1.164-.672-3.051-.672-4.214 0-1.163.67-1.163 1.76 0 2.431 1.163.673 3.05.673 4.214 0 1.164-.67 1.164-1.76 0-2.431Z"/><path fill="#17282F" d="M333.003 51.818c-1.165-.671-3.051-.671-4.214 0-1.164.672-1.164 1.762 0 2.433 1.163.672 3.049.672 4.214 0 1.163-.671 1.163-1.761 0-2.433ZM351.963 33.571c-1.165-.672-3.051-.672-4.214 0-1.164.672-1.164 1.761 0 2.433 1.163.673 3.049.673 4.214 0 1.163-.672 1.163-1.76 0-2.433Z"/><path fill="#26B6A6" d="M343.536 38.438c-1.163-.673-3.05-.673-4.214 0-1.163.67-1.163 1.76 0 2.433 1.164.67 3.051.67 4.214 0 1.163-.673 1.163-1.763 0-2.434Z"/><path fill="#17282F" d="M335.109 43.302c-1.163-.67-3.05-.67-4.214 0-1.163.673-1.163 1.763 0 2.434 1.164.672 3.051.672 4.214 0 1.163-.671 1.163-1.761 0-2.434Z"/><path fill="#26B6A6" d="M330.848 60.236c-1.163-.672-3.05-.672-4.214 0-1.163.672-1.163 1.76 0 2.433 1.164.672 3.051.672 4.214 0 1.163-.672 1.163-1.76 0-2.433Z"/><path fill="#17282F" d="M324.527 56.587c-1.163-.672-3.049-.672-4.212 0-1.163.672-1.163 1.761 0 2.433 1.163.672 3.049.672 4.212 0 1.165-.672 1.165-1.76 0-2.433ZM326.682 48.173c-1.163-.672-3.049-.672-4.213 0-1.164.67-1.164 1.76 0 2.433 1.164.67 3.05.67 4.213 0 1.163-.672 1.163-1.762 0-2.433Z"/><path fill="#26B6A6" d="M345.642 29.925c-1.163-.67-3.05-.67-4.213 0-1.164.672-1.164 1.762 0 2.433 1.163.672 3.05.672 4.213 0 1.163-.67 1.163-1.76 0-2.433Z"/><path fill="#17282F" d="M337.215 34.791c-1.163-.672-3.049-.672-4.212 0-1.164.673-1.164 1.761 0 2.433 1.163.673 3.049.673 4.212 0 1.165-.672 1.165-1.76 0-2.433Z"/><path fill="#26B6A6" d="M328.79 39.657c-1.165-.672-3.051-.672-4.214 0-1.163.671-1.163 1.761 0 2.434 1.163.67 3.049.67 4.214 0 1.163-.673 1.163-1.763 0-2.434Z"/><path fill="#17282F" d="M320.363 44.522c-1.164-.67-3.051-.67-4.214 0-1.163.673-1.163 1.763 0 2.434 1.163.672 3.05.672 4.214 0 1.163-.671 1.163-1.761 0-2.434Z"/><path fill="#26B6A6" d="M318.208 52.94c-1.163-.67-3.049-.67-4.214 0-1.163.673-1.163 1.762 0 2.434 1.165.672 3.051.672 4.214 0 1.164-.672 1.164-1.76 0-2.433Z"/><path fill="#17282F" d="M311.888 49.292c-1.163-.672-3.05-.672-4.213 0-1.163.67-1.163 1.76 0 2.433 1.163.67 3.05.67 4.213 0 1.164-.672 1.164-1.762 0-2.433Z"/><path fill="#263E47" d="M327.133 70.02v6.473c.678.014 1.369-.11 1.895-.415l46.968-27.125c.995-.567 1.797-1.964 1.797-3.112v-2.338c0-1.01-.622-2.213-1.466-2.877.65.567.54 1.342-.331 1.84L329.028 69.59c-.526.304-1.217.443-1.895.429Z"/><path fill="#17282F" d="m336.639 19.492-.042-.056c-.453-.614-1.358-.804-2.019-.42l-40.873 23.602c-.662.381-.828 1.188-.372 1.8l.043.057c.457.612 1.362.8 2.025.417l40.863-23.596c.661-.381.828-1.19.375-1.803Z"/><path fill="#26B6A6" d="m336.639 19.493-.042-.057c-.453-.614-1.358-.804-2.019-.42L304.19 36.561l1.696 2.275 30.378-17.54c.661-.382.828-1.19.375-1.804Z"/><path fill="#17282F" d="m333.26 14.957-.042-.057c-.453-.614-1.358-.802-2.019-.42l-40.874 23.602c-.661.382-.827 1.188-.371 1.801l.043.057c.457.613 1.363.8 2.025.418l40.862-23.597a1.207 1.207 0 0 0 .376-1.804Z"/><path fill="#26B6A6" d="m333.26 14.957-.042-.057c-.453-.614-1.358-.802-2.019-.422l-10.16 5.865 1.696 2.276 10.149-5.858c.662-.384.829-1.191.376-1.804Z"/><path fill="#17282F" d="m329.881 10.42-.041-.056c-.454-.614-1.358-.802-2.02-.421l-40.874 23.603c-.661.382-.827 1.188-.37 1.801l.043.057c.456.613 1.362.8 2.023.418l40.863-23.597c.662-.383.83-1.191.376-1.805Z"/><path fill="#26B6A6" d="m329.881 10.42-.041-.055c-.454-.614-1.359-.804-2.021-.424L306.53 22.197l1.696 2.275 21.279-12.25c.661-.38.83-1.188.376-1.802Z"/><path fill="#17282F" d="m326.502 5.884-.041-.055c-.454-.614-1.358-.804-2.021-.42L283.568 29.01c-.661.382-.827 1.188-.371 1.8l.043.058c.456.612 1.362.799 2.023.416l40.863-23.596c.661-.381.83-1.19.376-1.805Z"/><path fill="#26B6A6" d="m326.502 5.884-.041-.055c-.454-.614-1.358-.804-2.021-.42L287.339 26.83l1.696 2.275L326.126 7.69c.661-.381.83-1.19.376-1.805ZM399.92 385.88l-13.86-8.002c-.684-.398-1.674-.624-2.665-.621-.978-.003-1.953.226-2.632.621l-82.324 47.537a3.717 3.717 0 0 1-1.864.505 3.772 3.772 0 0 1-2.6-1.052 3.697 3.697 0 0 1-1.143-2.691v-68.1h1.384v68.1c.001.697.279 1.271.716 1.693.437.42 1.033.668 1.643.666.39 0 .787-.098 1.174-.319l82.322-47.537c.96-.552 2.141-.803 3.324-.806 1.189.003 2.384.249 3.356.806l13.861 8.002-.692 1.198Z"/><path fill="#26B6A6" d="M405.538 382.637 386.06 371.39c-.681-.397-1.664-.623-2.649-.62-.985-.003-1.968.223-2.648.62l-87.94 50.78a3.73 3.73 0 0 1-1.866.506 3.773 3.773 0 0 1-2.6-1.051 3.702 3.702 0 0 1-1.142-2.692v-64.856h1.383v64.856c.001.697.279 1.271.716 1.693a2.397 2.397 0 0 0 1.643.667c.39-.002.787-.098 1.173-.321l87.941-50.78c.967-.554 2.155-.804 3.34-.805 1.187.001 2.375.25 3.34.805l19.479 11.247-.692 1.198Z"/><path fill="#26B6A6" d="m411.155 379.382-25.094-14.481c-.682-.397-1.667-.623-2.654-.62-.983-.003-1.964.224-2.644.621l-93.559 54.024a3.724 3.724 0 0 1-1.865.506 3.773 3.773 0 0 1-2.6-1.051 3.702 3.702 0 0 1-1.142-2.692v-61.225h1.383v61.225c.001.697.279 1.271.716 1.693a2.397 2.397 0 0 0 1.643.667c.39-.001.787-.098 1.173-.321l93.559-54.024c.965-.553 2.151-.804 3.336-.806 1.188.002 2.377.25 3.346.805l25.093 14.481-.691 1.198Z"/><path fill="#26B6A6" d="m416.793 376.149-30.732-17.736c-.682-.397-1.664-.622-2.65-.621-.985-.001-1.968.224-2.648.621l-99.177 57.269a3.69 3.69 0 0 1-1.865.505 3.76 3.76 0 0 1-2.6-1.051 3.699 3.699 0 0 1-1.142-2.692v-57.98h1.383v57.98c.001.697.279 1.273.716 1.695a2.393 2.393 0 0 0 1.643.665c.39 0 .787-.097 1.173-.32l99.177-57.269c.967-.553 2.155-.803 3.34-.805 1.187.002 2.375.251 3.342.805l30.73 17.736-.69 1.198Z"/><path fill="#263E47" d="m493.146 95.05 89.517 51.69c1.654.954 2.994 3.277 2.994 5.187v246.116c0 1.91-1.34 4.233-2.994 5.187l-89.518 51.69c-1.653.955-4.334.955-5.988 0l-89.514-51.69c-1.653-.954-2.995-3.277-2.995-5.187V151.927c0-1.91 1.342-4.233 2.995-5.187l89.515-51.69c1.654-.955 4.335-.955 5.988 0Z"/><path fill="#17282F" d="M394.653 151.922v246.12c0 1.909 1.341 4.233 2.987 5.187l89.523 51.692c.816.484 1.908.719 2.987.719V202.604c-1.079 0-2.157-.249-2.987-.72l-89.523-51.692-.816-.677-1.065-.886c-.678 1.024-1.106 2.214-1.106 3.293Z"/><path fill="#33535F" d="m571.428 176.149-67.046 38.714c-1.654.956-2.995 3.278-2.994 5.187l.001 25.525c0 1.91 1.34 2.684 2.994 1.729l67.044-38.714c1.653-.954 2.994-3.277 2.994-5.187l.001-25.525c0-1.909-1.34-2.684-2.994-1.729Z"/><path fill="#26B6A6" d="M568.803 187.398c0 1.791-1.34 4.016-2.994 4.972L510 224.596c-1.653.955-2.994.276-2.994-1.515s1.341-4.018 2.994-4.973l55.809-32.227c1.654-.954 2.994-.276 2.994 1.517Z"/><path fill="#17282F" d="M568.803 200.374c0 1.791-1.34 4.016-2.994 4.972L510 237.572c-1.653.956-2.994.276-2.994-1.515s1.341-4.018 2.994-4.973l55.809-32.226c1.654-.955 2.994-.277 2.994 1.516Z"/><path fill="#26B6A6" d="m565.809 198.858-30.713 17.736-.001 6.487 30.714-17.735c1.654-.955 2.994-3.181 2.994-4.972 0-1.793-1.34-2.471-2.994-1.516Z"/><path fill="#33535F" d="m571.428 221.565-67.046 38.714c-1.654.956-2.995 3.278-2.994 5.187l.001 25.525c0 1.91 1.34 2.684 2.994 1.729l67.044-38.714c1.653-.954 2.994-3.277 2.994-5.187l.001-25.525c0-1.909-1.34-2.684-2.994-1.729Z"/><path fill="#26B6A6" d="M568.803 232.813c0 1.792-1.34 4.017-2.994 4.973L510 270.012c-1.653.955-2.994.276-2.994-1.515s1.341-4.018 2.994-4.973l55.809-32.227c1.654-.954 2.994-.276 2.994 1.516Z"/><path fill="#17282F" d="M568.803 245.79c0 1.791-1.34 4.018-2.994 4.972L510 282.988c-1.653.956-2.994.276-2.994-1.515s1.341-4.018 2.994-4.973l55.809-32.225c1.654-.956 2.994-.278 2.994 1.515Z"/><path fill="#26B6A6" d="m565.809 244.275-47.567 27.467-.001 6.487 47.568-27.467c1.654-.954 2.994-3.181 2.994-4.972 0-1.793-1.34-2.471-2.994-1.515Z"/><path fill="#33535F" d="m571.428 266.982-67.046 38.713c-1.654.956-2.995 3.279-2.994 5.187l.001 25.525c0 1.911 1.34 2.685 2.994 1.729l67.044-38.714c1.653-.954 2.994-3.277 2.994-5.187l.001-25.523c0-1.911-1.34-2.685-2.994-1.73Z"/><path fill="#26B6A6" d="M568.803 278.23c0 1.791-1.34 4.018-2.994 4.972L510 315.428c-1.653.956-2.994.276-2.994-1.515s1.341-4.018 2.994-4.973l55.809-32.225c1.654-.956 2.994-.277 2.994 1.515Z"/><path fill="#17282F" d="M568.803 291.206c0 1.791-1.34 4.018-2.994 4.972L510 328.405c-1.653.955-2.994.277-2.994-1.516 0-1.791 1.341-4.018 2.994-4.973l55.809-32.225c1.654-.956 2.994-.277 2.994 1.515Z"/><path fill="#26B6A6" d="m565.809 289.691-19.477 11.246-.001 6.487 19.478-11.245c1.654-.955 2.994-3.182 2.994-4.973 0-1.792-1.34-2.471-2.994-1.515Z"/><path fill="#33535F" d="m571.428 312.398-67.046 38.715c-1.654.954-2.995 3.277-2.994 5.187l.001 25.523c0 1.911 1.34 2.685 2.994 1.729l67.044-38.714c1.653-.954 2.994-3.277 2.994-5.187l.001-25.524c0-1.91-1.34-2.684-2.994-1.729Z"/><path fill="#26B6A6" d="M568.803 323.646c0 1.791-1.34 4.018-2.994 4.972L510 360.844c-1.653.955-2.994.278-2.994-1.515 0-1.791 1.341-4.018 2.994-4.973l55.809-32.225c1.654-.956 2.994-.277 2.994 1.515Z"/><path fill="#17282F" d="M568.803 336.622c0 1.791-1.34 4.018-2.994 4.972L510 373.821c-1.653.955-2.994.277-2.994-1.516 0-1.791 1.341-4.017 2.994-4.973l55.809-32.225c1.654-.956 2.994-.277 2.994 1.515Z"/><path fill="#26B6A6" d="m565.809 335.107-30.713 17.735-.001 6.487 30.714-17.734c1.654-.955 2.994-3.182 2.994-4.973s-1.34-2.471-2.994-1.515Z"/><path fill="#33535F" d="m571.428 357.814-67.046 38.715c-1.654.954-2.995 3.277-2.994 5.187l.001 25.523c0 1.911 1.34 2.685 2.994 1.729l67.044-38.714c1.653-.954 2.994-3.277 2.994-5.187l.001-25.523c0-1.911-1.34-2.685-2.994-1.73Z"/><path fill="#26B6A6" d="M568.803 369.061c0 1.792-1.34 4.019-2.994 4.973L510 406.261c-1.653.954-2.994.277-2.994-1.516 0-1.791 1.341-4.017 2.994-4.973l55.809-32.225c1.654-.956 2.994-.277 2.994 1.514Z"/><path fill="#17282F" d="M568.803 382.038c0 1.791-1.34 4.018-2.994 4.972L510 419.237c-1.653.955-2.994.277-2.994-1.516 0-1.791 1.341-4.017 2.994-4.973l55.809-32.225c1.654-.956 2.994-.277 2.994 1.515Z"/><path fill="#26B6A6" d="m565.809 380.523-41.95 24.223v6.486l41.95-24.222c1.654-.954 2.994-3.181 2.994-4.972 0-1.792-1.34-2.471-2.994-1.515Z"/><path fill="#263E47" d="M476.108 218.229c-3.103-1.8-5.618-.161-5.618 3.658l-.001 148.382c0 3.819 2.516 8.374 5.618 10.174 3.103 1.798 5.618.16 5.618-3.659l.001-148.383c0-3.819-2.515-8.374-5.618-10.172Z"/><path fill="#17282F" d="M476.107 377.159c-1.551-.896-2.809-3.17-2.809-5.081l.001-148.796c0-1.911 1.258-2.732 2.809-1.837 1.552.896 2.809 3.17 2.809 5.08l-.001 148.797c0 1.91-1.257 2.732-2.809 1.837Z"/><path fill="#26B6A6" d="M476.107 377.159c-1.551-.896-2.809-3.17-2.809-5.081l.001-71.141 5.618 3.244-.001 71.141c0 1.91-1.257 2.732-2.809 1.837Z"/><path fill="#263E47" d="M459.254 208.496c-3.103-1.798-5.618-.16-5.618 3.66v148.381c0 3.82 2.514 8.375 5.618 10.173 3.102 1.8 5.617.162 5.617-3.658l.001-148.382c0-3.819-2.515-8.374-5.618-10.174Z"/><path fill="#26B6A6" d="M459.254 367.427c-1.552-.897-2.809-3.171-2.809-5.081V213.551c0-1.911 1.258-2.734 2.81-1.837 1.55.896 2.809 3.17 2.809 5.08l-.001 148.797c0 1.91-1.258 2.732-2.809 1.836Z"/><path fill="#263E47" d="M442.4 198.765c-3.102-1.798-5.618-.16-5.618 3.659l-.001 148.382c0 3.82 2.516 8.374 5.618 10.173 3.103 1.8 5.619.161 5.619-3.658V208.939c0-3.821-2.514-8.376-5.618-10.174Z"/><path fill="#17282F" d="M442.4 357.695c-1.552-.896-2.81-3.17-2.809-5.08V203.818c0-1.91 1.257-2.732 2.809-1.836 1.552.895 2.809 3.171 2.809 5.08v148.796c0 1.911-1.259 2.732-2.809 1.837Z"/><path fill="#26B6A6" d="M442.4 357.695c-1.552-.896-2.81-3.17-2.809-5.08V237.678l5.618 3.244v114.936c0 1.911-1.259 2.732-2.809 1.837Z"/><path fill="#263E47" d="M425.546 189.034c-3.103-1.8-5.617-.162-5.617 3.659l-.002 148.381c0 3.82 2.516 8.375 5.618 10.174 3.104 1.798 5.618.161 5.618-3.658l.001-148.384c0-3.819-2.515-8.374-5.618-10.172Z"/><path fill="#17282F" d="M425.545 347.963c-1.55-.895-2.809-3.171-2.809-5.079l.002-148.797c0-1.91 1.257-2.732 2.809-1.837 1.551.896 2.808 3.17 2.808 5.081l-.001 148.796c0 1.911-1.257 2.732-2.809 1.836Z"/><path fill="#26B6A6" d="M425.545 347.963c-1.55-.895-2.809-3.171-2.809-5.079l.002-25.115 5.617 3.244-.001 25.114c0 1.911-1.257 2.732-2.809 1.836Z"/><path fill="#263E47" d="M408.693 179.301c-3.104-1.798-5.619-.16-5.619 3.661v148.38c0 3.82 2.514 8.375 5.618 10.174 3.102 1.799 5.617.161 5.617-3.659l.002-148.382c0-3.819-2.516-8.374-5.618-10.174Z"/><path fill="#17282F" d="M408.692 338.232c-1.552-.895-2.809-3.171-2.809-5.081V184.354c0-1.909 1.258-2.73 2.81-1.835 1.55.896 2.809 3.17 2.809 5.08l-.001 148.797c0 1.909-1.258 2.732-2.809 1.836Z"/><path fill="#26B6A6" d="M408.692 338.232c-1.552-.895-2.809-3.171-2.809-5.081l.001-77.63 5.618 3.243-.001 77.632c0 1.909-1.258 2.732-2.809 1.836Z"/><path fill="#263E47" d="m479.33 398.497-73.861-42.651c-1.323-.764-2.395-.144-2.395 1.383v26.908c0 1.527 1.072 3.385 2.395 4.15l73.861 42.65c1.322.763 2.395.145 2.395-1.384v-26.907c0-1.528-1.073-3.386-2.395-4.149Z"/><path fill="#17282F" d="M476.294 406.475c-.001 1.792-1.342 2.47-2.996 1.515l-61.796-35.696c-1.654-.954-2.996-3.181-2.996-4.973 0-1.791 1.34-2.469 2.995-1.514l61.799 35.696c1.654.954 2.994 3.18 2.994 4.972Z"/><path fill="#26B6A6" d="M476.294 406.475c-.001 1.792-1.342 2.469-2.996 1.514l-44.941-25.965-.002-6.488 44.945 25.965c1.654.956 2.994 3.182 2.994 4.974Z"/><path fill="#17282F" d="M476.294 419.452c-.001 1.791-1.342 2.469-2.996 1.514l-61.796-35.696c-1.654-.954-2.996-3.181-2.996-4.972 0-1.792 1.34-2.469 2.995-1.515l61.799 35.696c1.654.954 2.994 3.181 2.994 4.973Z"/><path fill="#26B6A6" d="M476.294 419.452c-.001 1.791-1.342 2.469-2.996 1.514l-16.853-9.732-.002-6.488 16.857 9.733c1.654.954 2.994 3.181 2.994 4.973Z"/><path fill="#33535F" d="m397.643 146.74 89.516-51.69c1.654-.955 4.335-.955 5.989 0l89.516 51.69c1.653.954 1.653 2.502 0 3.458l-89.519 51.69c-1.653.955-4.334.955-5.988 0l-89.514-51.69c-1.653-.954-1.653-2.504 0-3.458Z"/><path fill="#17282F" d="m491.949 189.604 69.44-40.098c.993-.572 1.797-1.967 1.797-3.112v-2.339c0-1.145-.804-2.538-1.796-3.112l-69.44-40.096c-.992-.574-2.601-.574-3.593 0l-69.441 40.097c-.991.573-1.796 1.966-1.796 3.112v2.338c0 1.145.805 2.54 1.796 3.112l69.44 40.098c.993.572 2.601.572 3.593 0Z"/><path fill="#33535F" d="m561.39 143.017-69.441 40.098c-.991.574-2.6.574-3.593 0l-69.44-40.096c-.991-.574-.991-1.502 0-2.075l69.441-38.714c.992-.573 2.601-.573 3.593 0l69.44 38.713c.992.574.992 1.502 0 2.074Z"/><path fill="#263E47" d="M490.15 183.542v6.488c.65 0 1.3-.139 1.798-.429l69.442-40.1c.995-.567 1.798-1.964 1.798-3.112v-2.338c0-1.01-.623-2.213-1.467-2.877.65.567.54 1.341-.331 1.839l-69.442 40.101c-.498.29-1.148.428-1.798.428Z"/><path fill="#17282F" d="m491.949 170.139 46.969-27.121c.992-.573 1.797-1.966 1.797-3.113v-2.337c0-1.146-.805-2.54-1.797-3.113l-30.114-17.388c-.992-.573-2.35-1.783-3.033-2.703l-14.382-19.378c-.683-.92-2.042-1.2-3.033-.628l-46.968 27.121c-.993.573-1.797 1.966-1.797 3.112v15.316c0 1.145.805 2.538 1.798 3.112l46.967 27.12c.993.574 2.601.574 3.593 0Z"/><path fill="#33535F" d="m488.356 163.651-30.113-17.388c-.479-.277-1.04-.7-1.571-1.168-.573-.503-1.108-1.059-1.462-1.537l-14.382-19.376c-.684-.92-.433-2.13.56-2.703l46.968-27.121c.992-.573 2.35-.292 3.033.628l14.382 19.378c.683.919 1.792 2.239 2.784 2.812l30.363 17.279c.992.573.992 1.502 0 2.075l-46.968 27.121c-.992.573-2.601.573-3.594 0Z"/><path fill="#263E47" d="m441.388 121.479 46.967-27.121c.993-.573 2.351-.292 3.034.628l14.382 19.378c.356.478.895 1.026 1.469 1.53l-50.566 29.197c-.572-.505-1.11-1.054-1.464-1.533l-14.382-19.376c-.684-.92-.433-2.13.56-2.703Z"/><path fill="#26B6A6" d="M527.522 134.931c-1.163-.672-3.05-.672-4.214 0-1.163.672-1.163 1.761 0 2.433 1.164.672 3.051.672 4.214 0 1.163-.672 1.163-1.761 0-2.433ZM519.095 139.797c-1.163-.672-3.05-.672-4.213 0-1.163.671-1.163 1.761 0 2.433 1.163.671 3.05.671 4.213 0 1.164-.672 1.164-1.762 0-2.433Z"/><path fill="#17282F" d="M510.669 144.662c-1.164-.671-3.05-.671-4.214 0-1.163.673-1.163 1.763 0 2.433 1.164.673 3.05.673 4.214 0 1.163-.67 1.163-1.76 0-2.433ZM502.242 149.529c-1.163-.673-3.049-.673-4.213 0-1.164.672-1.164 1.76 0 2.433 1.164.672 3.05.672 4.213 0 1.164-.673 1.164-1.761 0-2.433Z"/><path fill="#26B6A6" d="M521.202 131.282c-1.163-.672-3.05-.672-4.213 0-1.164.671-1.164 1.761 0 2.433 1.163.671 3.05.671 4.213 0 1.164-.672 1.164-1.762 0-2.433Z"/><path fill="#17282F" d="M512.776 136.147c-1.164-.671-3.05-.671-4.214 0-1.163.672-1.163 1.762 0 2.433 1.164.673 3.05.673 4.214 0 1.163-.671 1.163-1.761 0-2.433Z"/><path fill="#26B6A6" d="M504.349 141.013c-1.164-.672-3.05-.672-4.213 0-1.164.673-1.164 1.761 0 2.433 1.163.673 3.049.673 4.213 0 1.163-.672 1.163-1.76 0-2.433Z"/><path fill="#17282F" d="M495.922 145.879c-1.163-.672-3.049-.672-4.213 0-1.164.673-1.164 1.761 0 2.434 1.164.67 3.05.67 4.213 0 1.164-.673 1.164-1.761 0-2.434ZM514.882 127.632c-1.163-.671-3.05-.671-4.213 0-1.164.672-1.164 1.762 0 2.433 1.163.672 3.05.672 4.213 0 1.164-.671 1.164-1.761 0-2.433Z"/><path fill="#26B6A6" d="M506.456 132.498c-1.164-.672-3.05-.672-4.214 0-1.163.672-1.163 1.761 0 2.433 1.164.672 3.05.672 4.214 0 1.163-.672 1.163-1.761 0-2.433Z"/><path fill="#17282F" d="M498.029 137.364c-1.163-.672-3.05-.672-4.213 0-1.164.673-1.164 1.761 0 2.433 1.163.671 3.05.671 4.213 0 1.164-.672 1.164-1.76 0-2.433Z"/><path fill="#26B6A6" d="M493.768 154.298c-1.163-.672-3.05-.672-4.214 0-1.163.671-1.163 1.761 0 2.432 1.164.672 3.051.672 4.214 0 1.164-.671 1.164-1.761 0-2.432Z"/><path fill="#17282F" d="M487.449 150.648c-1.164-.671-3.051-.671-4.214 0-1.164.672-1.164 1.761 0 2.433 1.163.672 3.05.672 4.214 0 1.163-.672 1.163-1.761 0-2.433ZM489.603 142.233c-1.164-.672-3.05-.672-4.214 0-1.163.673-1.163 1.761 0 2.433 1.164.673 3.05.673 4.214 0 1.163-.672 1.163-1.76 0-2.433Z"/><path fill="#26B6A6" d="M508.563 123.987c-1.164-.672-3.05-.672-4.214 0-1.164.671-1.164 1.761 0 2.433 1.164.671 3.05.671 4.214 0 1.163-.672 1.163-1.762 0-2.433Z"/><path fill="#17282F" d="M500.136 128.852c-1.163-.671-3.05-.671-4.214 0-1.163.672-1.163 1.762 0 2.433 1.164.672 3.051.672 4.214 0 1.163-.671 1.163-1.761 0-2.433Z"/><path fill="#26B6A6" d="M491.709 133.718c-1.163-.671-3.049-.671-4.213 0-1.164.672-1.164 1.761 0 2.433 1.164.672 3.05.672 4.213 0 1.164-.672 1.164-1.761 0-2.433Z"/><path fill="#17282F" d="M483.283 138.584c-1.163-.672-3.05-.672-4.214 0-1.163.672-1.163 1.761 0 2.433 1.164.671 3.051.671 4.214 0 1.163-.672 1.163-1.761 0-2.433Z"/><path fill="#26B6A6" d="M481.128 147.003c-1.163-.673-3.049-.673-4.213 0-1.163.671-1.163 1.761 0 2.433 1.164.671 3.05.671 4.213 0 1.164-.672 1.164-1.762 0-2.433Z"/><path fill="#17282F" d="M474.808 143.352c-1.163-.672-3.049-.672-4.213 0-1.163.672-1.163 1.761 0 2.433 1.164.673 3.05.673 4.213 0 1.164-.672 1.164-1.761 0-2.433Z"/><path fill="#263E47" d="M490.053 164.08v6.474c.678.014 1.37-.111 1.895-.415l46.968-27.125c.995-.568 1.798-1.965 1.798-3.113v-2.337c0-1.01-.623-2.214-1.467-2.878.65.568.54 1.342-.331 1.84l-46.968 27.126c-.525.304-1.217.442-1.895.428Z"/><path fill="#17282F" d="m499.559 113.553-.041-.057c-.454-.614-1.359-.802-2.02-.42l-40.874 23.602c-.661.382-.827 1.188-.37 1.801l.043.057c.456.613 1.362.799 2.024.418l40.862-23.597c.662-.382.83-1.19.376-1.804Z"/><path fill="#26B6A6" d="m499.559 113.553-.041-.057c-.454-.614-1.359-.802-2.02-.42l-30.388 17.546 1.696 2.276 30.377-17.541c.662-.382.83-1.19.376-1.804Z"/><path fill="#17282F" d="m496.18 109.017-.041-.056c-.454-.614-1.359-.803-2.02-.421l-40.873 23.602c-.661.382-.827 1.189-.371 1.801l.043.057c.456.613 1.362.8 2.023.418l40.864-23.597c.661-.382.829-1.189.375-1.804Z"/><path fill="#26B6A6" d="m496.18 109.017-.041-.056c-.454-.614-1.359-.803-2.02-.421l-10.16 5.864 1.696 2.275 10.15-5.858c.661-.382.829-1.189.375-1.804Z"/><path fill="#17282F" d="m492.801 104.482-.041-.057c-.454-.614-1.358-.802-2.02-.42l-40.873 23.602c-.661.382-.827 1.188-.371 1.801l.043.057c.457.612 1.363.799 2.024.417l40.862-23.596c.662-.382.83-1.19.376-1.804Z"/><path fill="#26B6A6" d="m492.801 104.482-.041-.057c-.454-.614-1.359-.804-2.021-.422l-21.289 12.254 1.696 2.276 21.279-12.249c.662-.382.83-1.188.376-1.802Z"/><path fill="#17282F" d="m489.422 99.946-.041-.057c-.454-.614-1.359-.802-2.02-.42l-40.873 23.602c-.661.382-.828 1.188-.37 1.801l.041.057c.457.613 1.364.799 2.025.418l40.863-23.597c.661-.382.83-1.19.375-1.804Z"/><path fill="#26B6A6" d="m489.422 99.946-.041-.057c-.454-.614-1.359-.802-2.02-.42l-37.102 21.424 1.697 2.275 37.091-21.418c.661-.382.83-1.19.375-1.804Z"/><path fill="#FAFAF9" d="M299.933 364.858v75.756c0 .572-.402 1.269-.899 1.556l-72.605 41.872c-.496.286-1.3.286-1.796 0l-2.416-1.396c-.497-.286-.899-.983-.899-1.556v-75.756c0-.572.464-1.037 1.037-1.037l76.541-40.477c.572 0 1.037.465 1.037 1.038Z"/><path fill="#F3F2F1" d="M222.355 404.297h2.139c.573 0 1.038.464 1.038 1.037l-.002 78.189c0 .573-.401.805-.897.519l-2.416-1.396c-.497-.286-.899-.983-.899-1.556v-75.756c0-.573.464-1.037 1.037-1.037Z"/><path fill="#DADBD8" d="M155.343 278.051v75.756c0 .573-.402 1.269-.898 1.555l-75.47 43.544c-.496.287-1.301.287-1.796 0l-2.418-1.395c-.495-.287-.898-.984-.898-1.556v-75.757c0-.572.465-1.037 1.038-1.037l79.405-42.147c.572 0 1.037.464 1.037 1.037Z"/><path fill="#E7E8E5" d="M74.9 319.161h2.14c.573 0 1.038.465 1.038 1.037l-.002 78.19c0 .572-.402.805-.897.518l-2.418-1.395c-.495-.287-.897-.984-.897-1.557v-75.756c0-.572.464-1.037 1.037-1.037Z"/><path fill="#F3F2F1" d="M307.011 362.481v-.716c0-1.147-.803-2.54-1.796-3.113l-152.303-87.946c-.993-.573-2.602-.573-3.593 0l-80.676 46.586c-.992.573-1.797 1.966-1.797 3.112v.716c0 1.146.805 2.539 1.796 3.112l152.304 87.946c.993.573 2.601.573 3.593 0l80.676-46.584c.992-.574 1.796-1.967 1.796-3.113Z"/><path fill="#E7E8E5" d="M222.742 407.745v4.869c.65 0 1.3-.152 1.798-.429l80.672-46.587c.996-.581 1.798-1.964 1.798-3.112v-.72c0-1.01-.622-2.227-1.466-2.877.65.553.539 1.328-.332 1.84l-80.672 46.587c-.498.291-1.148.429-1.798.429Z"/><path fill="#FAFAF9" d="m305.215 360.727-80.676 46.585c-.992.573-2.601.573-3.594 0L68.642 319.367c-.991-.574-.991-1.502 0-2.075l80.676-46.586c.992-.573 2.601-.573 3.594 0l152.303 87.947c.993.572.993 1.502 0 2.074Z"/><path fill="#E7E8E5" d="m175.188 328.203-45.609-26.389c-.815-.471-2.137-.471-2.952 0l-14.441 8.435c-.815.47-.815 1.234 0 1.704l45.61 26.389c.815.471 2.137.471 2.952 0l14.44-8.435c.816-.47.816-1.234 0-1.704ZM167.103 311.833l.041-.021 4.834-2.796c.661-.383.661-1.002-.001-1.384l-37.901-21.89c-.661-.382-.661-1.001 0-1.383l.386-.223c.661-.382 1.734-.382 2.395 0l36.832 21.267c.661.384 1.275.415 1.294.067a2.489 2.489 0 0 0-.038-.63l-2.089-10.815c-.145-.75.276-1.666.938-2.045l.379-.217c.664-.379 1.318-.079 1.462.672l2.408 12.558c.087.446.09.919.022 1.392-.11.757.16 1.638.823 2.021l22.99 13.275c.661.382.661 1.002 0 1.384l-.393.226c-.661.382-1.733.382-2.395-.001l-21.971-12.688c-.661-.382-1.241-.663-1.291-.626l-.095.065-7.473 4.315c-.661.381-1.734.384-2.396.004-3.278-1.884-12.356-7.116-15.634-9.004-.661-.381-.878-.87-.484-1.092.394-.222 1.271-.133 1.96.199l14.109 6.792c.689.33 1.266.59 1.288.578Z"/><path fill="#263E47" d="m126.821 298.32-13.662 7.888c-.814.471-1.475 1.568-1.475 2.452 0 .882.661 1.98 1.475 2.451l44.12 25.476c.815.471 2.137.471 2.952 0l13.661-7.888c.815-.472 1.476-1.569 1.476-2.452s-.661-1.98-1.476-2.451l-44.12-25.476c-.814-.471-2.137-.472-2.951 0Z"/><path fill="#17282F" d="M158.755 336.94c.534 0 1.068-.118 1.476-.353l13.661-7.888c.815-.472 1.476-1.569 1.476-2.452s-.661-1.98-1.476-2.451l-1.42-.82h-13.717v13.964Z"/><path fill="#33535F" d="m173.901 323.796-44.119-25.476c-.816-.471-2.137-.471-2.953 0l-13.661 7.888c-.816.472-.816 1.234 0 1.704l44.118 25.477c.816.47 2.137.47 2.952 0l13.663-7.889c.814-.47.814-1.234 0-1.704Z"/><path fill="#26B6A6" d="m149.474 313.256-.222.006-1.388-.803.007-.128 1.607-.927.221-.006 1.388.803-.006.128-1.607.927Zm-16.529-10.225-.221.004-1.39-.801.008-.128.427-.247.222-.005 1.39.802-.009.129-.427.246Zm-12.511 4.756-1.389-.803.007-.127 1.607-.928.222-.004 1.39.802-.009.127-1.607.929-.221.004Zm5.076-5.152-.222.005-1.389-.803.008-.127 1.607-.928.221-.004 1.389.802-.009.127-1.605.928Zm3.374-1.949-.221.005-1.39-.803.008-.127.428-.248.221-.004 1.39.803-.008.128-.428.246Zm6.091 3.518-.221.004-1.39-.802.008-.127.428-.248.221-.004 1.39.802-.008.127-.428.248Zm10.438 6.707-.221.006-1.389-.802.007-.129 1.607-.927.221-.005 1.389.802-.007.129-1.607.926Zm2.03 1.173-.221.005-1.389-.803.007-.127 1.607-.928.222-.004 1.388.802-.007.127-1.607.928Zm-8.569-4.949-.221.006-1.39-.803.008-.128 1.606-.927.222-.006 1.389.803-.008.128-1.606.927Zm4.509 2.605-.222.004-1.388-.802.007-.128 1.607-.928.221-.004 1.389.802-.007.128-1.607.928Zm-6.539-3.776-.222.004-1.39-.803.009-.127 1.605-.928.222-.004 1.39.802-.009.127-1.605.929Zm4.06 2.344-.222.004-1.389-.802.008-.127 1.606-.928.221-.005 1.39.803-.008.127-1.606.928Zm-9.989-6.449-.222.005-1.39-.803.009-.127.427-.248.221-.004 1.39.803-.008.127-.427.247Zm9.288 17.344-1.39-.803.008-.128 1.608-.927.221-.004 1.388.801-.007.128-1.607.928-.221.005Zm4.061 2.344-1.389-.802.007-.129 1.607-.927.221-.004 1.389.803-.007.127-1.607.928-.221.004Zm-2.031-1.173-1.388-.801.007-.128 1.607-.929.221-.004 1.389.803-.007.127-1.607.928-.222.004Zm8.121 4.691-1.389-.803.008-.128 1.607-.927.221-.005 1.389.802-.007.128-1.607.927-.222.006Zm-4.06-2.346-1.39-.801.008-.129 1.607-.928.222-.004 1.388.802-.007.129-1.607.927-.221.004Zm2.03 1.173-1.39-.803.009-.127 1.607-.928.221-.004 1.388.802-.006.127-1.608.929-.221.004Zm-19.119-11.173-.222.004-1.389-.802.008-.127 1.606-.928.221-.004 1.39.802-.008.127-1.606.928Zm8.968 5.311-1.39-.803.008-.127 1.607-.928.221-.004 1.389.802-.007.127-1.607.928-.221.005Zm-11.384-9.223-1.388-.802.008-.128 1.605-.927.222-.006 1.39.803-.009.128-1.605.927-.223.005Zm-2.073 1.32-.221.004-1.389-.801.007-.128 1.607-.928.221-.005 1.39.803-.008.128-1.607.927Zm11.426 6.731-4.06-2.345.008-.128 1.606-.928.221-.005 4.061 2.345-.007.129-1.607.926-.222.006Zm-4.599-7.956-1.39-.803.008-.128 1.606-.927.222-.006 1.389.803-.008.128-1.606.927-.221.006Zm-9.079.058-1.388-.803.007-.128 1.607-.927.221-.004 1.39.802-.008.127-1.607.929-.222.004Zm4.45 3.231.221-.004 1.39.802-.009.127-1.607.928-.221.005-1.388-.803.006-.128 1.608-.927Zm7.266 4.195.221-.004 1.71.988-.009.127-1.605.928-.222.004-1.709-.987.007-.128 1.607-.928Zm21.478 12.402.222-.004 1.709.988-.008.127-1.606.928-.221.004-1.711-.986.008-.128 1.607-.929Zm-16.777-9.686.223-.005 1.709.987-.008.128-1.606.927-.223.006-1.709-.988.008-.127 1.606-.928Zm14.426 8.329.222-.004 1.709.988-.007.127-1.607.928-.221.005-1.71-.988.007-.127 1.607-.929Zm-12.075-6.972.221-.005 11.434 6.603-.007.128-1.607.927-.221.004-11.434-6.601.008-.128 1.606-.928Zm-9.831-5.677.222-.004 2.137 1.233-.007.129-1.607.927-.222.005-2.137-1.233.007-.129 1.607-.928Zm5.129 2.963.222-.006 1.71.988-.008.128-1.606.927-.221.004-1.711-.986.008-.129 1.606-.926Zm-21.802-10.736 3.901-2.252.222-.005 1.389.802-.008.129-3.901 2.252-.222.005-1.388-.802.007-.129Zm3.637.245.221-.004 1.389.802-.007.128-1.607.928-.221.004-1.389-.802.007-.128 1.607-.928Zm10.579 6.109.221-.005 1.389.803-.007.128-1.607.927-.222.004-1.388-.801.007-.128 1.607-.928Zm23.441 12.873-1.39-.802.008-.127 1.607-.928.221-.005 1.389.803-.007.127-1.607.928-.221.004Zm-27.502-15.218.222-.004 1.388.802-.007.129-1.607.926-.221.005-1.389-.803.007-.127 1.607-.928Zm-4.488-2.591.222-.004 3.418 1.974-.006.128-1.608.927-.221.004-3.419-1.973.007-.129 1.607-.927Zm43.028 12.884-.222.005-1.39-.802.009-.129 1.605-.927.222-.005 1.39.802-.009.129-1.605.927Zm-2.031-1.172-.222.004-1.389-.802.009-.127 1.605-.929.221-.004 1.39.803-.008.127-1.606.928Zm-3.384 10.008.223-.004 2.137 1.233-.009.128-1.605.928-.222.004-2.138-1.234.008-.128 1.606-.927Zm.47-11.691-.221.005-1.39-.802.008-.129 1.606-.927.223-.005 1.388.802-.008.129-1.606.927Zm-4.06-2.345-.221.006-1.39-.803.008-.128 1.606-.927.222-.006 1.389.803-.008.128-1.606.927Zm11.035 6.373-.221.004-1.39-.803.008-.127 1.606-.928.221-.004 1.39.802-.008.127-1.606.929Zm-9.005-5.2-.221.004-1.39-.802.008-.127 1.606-.929.223-.004 1.388.803-.008.127-1.606.928Zm-4.06-2.345-.222.005-1.39-.803.009-.127 1.605-.928.223-.004 1.389.802-.009.127-1.605.928Zm6.736 15.057 1.607-.928.222-.004 1.709.987-.008.128-1.606.928-.221.004-1.711-.988.008-.127Zm1.334-1.881 1.605-.927.223-.004 2.67 1.542-.006.127-1.607.929-.222.004-2.672-1.543.009-.128Zm7.025-4.46-.222.006-1.389-.803.008-.128 1.606-.927.221-.005 1.39.802-.008.128-1.606.927Zm1.31.757 1.607-.927.221-.004 1.71.986-.007.129-1.607.927-.221.005-1.71-.988.007-.128Zm-5.506 2.687 1.606-.928.221-.004 2.137 1.234-.007.127-1.607.928-.221.005-2.137-1.234.008-.128Zm3.041-.893 1.608-.928.221-.004 1.39.802-.009.127-1.605.928-.223.004-1.388-.802.006-.127Zm-11.913 1.203-1.39-.802.008-.129 1.607-.926.222-.006 1.388.802-.007.129-1.607.927-.221.005Zm-1.483-8.277 1.39.802-.008.129-1.607.927-.221.005-1.389-.802.007-.129 1.607-.926.221-.006Zm2.031 1.173 1.39.802-.009.128-1.607.928-.221.004-1.389-.802.007-.128 1.607-.928.222-.004Zm-8.121-4.689 1.39.802-.009.127-1.607.929-.221.004-1.389-.803.009-.127 1.605-.928.222-.004Zm4.06 2.344 1.39.803-.008.127-1.607.928-.222.004-1.388-.802.007-.127 1.607-.928.221-.005Zm-2.03-1.173 1.39.803-.008.128-1.608.927-.221.006-1.388-.803.007-.128 1.607-.927.221-.006Zm8.121 4.691 1.39.801-.008.129-1.606.928-.223.004-1.388-.802.008-.129 1.606-.927.221-.004Zm2.03 1.172 1.39.802-.008.129-1.607.926-.221.004-1.389-.802.007-.127 1.607-.928.221-.004Zm-7.335.534-1.39-.803.008-.127 1.606-.928.222-.004 1.389.802-.008.127-1.606.928-.221.005Zm2.03 1.173-1.39-.803.008-.128 1.606-.927.223-.006 1.388.803-.008.128-1.606.927-.221.006Zm2.03 1.171-1.39-.802.009-.127 1.605-.929.223-.004 1.389.803-.009.127-1.605.928-.222.004Zm5.306-1.705 1.39.802-.009.127-1.607.928-.221.004-1.389-.802.009-.128 1.605-.927.222-.004ZM158 326.696l-.221.005-1.39-.802.008-.129 1.606-.927.222-.004 1.389.801-.008.129-1.606.927Zm-15.219-13.425 1.39.802-.008.128-1.606.928-.223.004-1.388-.802.008-.127 1.606-.929.221-.004Zm-17.8-5.641-.222.004-1.389-.802.009-.127 1.605-.928.222-.004 1.389.802-.008.127-1.606.928Zm19.83 6.813 1.39.802-.008.129-1.607.927-.221.004-1.389-.801.008-.129 1.606-.927.221-.005Zm-15.281-8.824 1.39.802-.008.129-1.606.927-.221.005-1.39-.802.008-.129 1.606-.926.221-.006Zm-4.709-2.587-3.9 2.254-.223.004-1.388-.802.008-.129 3.9-2.252.223-.004 1.388.802-.008.127Zm.427.247.223-.004 1.389.802-.009.128-1.605.927-.222.004-1.39-.801.009-.128 1.605-.928Zm1.807 3.03-1.39-.802.008-.127 1.606-.928.221-.004 1.39.802-.008.127-1.606.928-.221.004Zm-4.327.153-1.388-.801.008-.129 1.606-.928.221-.004 1.39.802-.008.129-1.606.926-.223.005Zm24.899 14.377-1.39-.802.009-.128 1.605-.928.223-.004 1.388.802-.008.128-1.606.928-.221.004Zm-20.084-18.884.222-.006 1.389.803-.008.128-1.606.927-.221.006-1.39-.803.008-.128 1.606-.927Zm12.761 12.005-1.389-.801.009-.128 1.605-.929.222-.004 1.39.803-.009.128-1.607.927-.221.004Zm-10.508-10.838 1.388.803-.008.127-1.606.928-.221.004-1.39-.802.008-.127 1.606-.928.223-.005Zm4.488 2.591 1.388.802-.008.129-1.606.927-.221.005-1.39-.802.008-.129 1.607-.926.222-.006Zm-2.458-1.419 1.389.802-.009.129-1.605.927-.222.005-1.39-.802.009-.129 1.605-.926.223-.006Zm17.831 17.718-1.389-.802.008-.129 1.605-.927.223-.005 1.389.802-.009.129-1.605.926-.222.006Zm10.379-1.428 1.39.803-.009.127-1.607.928-.221.004-1.389-.802.009-.127 1.605-.928.222-.005Zm-2.031-1.173 1.39.803-.008.128-1.607.927-.221.006-1.389-.803.008-.128 1.606-.927.221-.006Zm-2.03-1.171 1.39.802-.008.127-1.607.929-.222.004-1.388-.803.008-.127 1.606-.928.221-.004Zm-4.06-2.345 1.389.803-.008.127-1.607.928-.221.004-1.389-.802.007-.127 1.607-.929.222-.004Zm10.151 5.861 1.39.802-.008.129-1.607.927-.222.005-1.388-.802.008-.129 1.606-.926.221-.006Zm-8.121-4.689 1.39.802-.009.129-1.605.927-.223.005-1.388-.802.006-.129 1.608-.927.221-.005Zm10.151 5.862 1.39.802-.008.128-1.607.928-.221.004-1.389-.802.008-.128 1.606-.928.221-.004Zm-5.399 6.819-.221.006-1.39-.802.008-.129 1.607-.927.221-.005 1.389.802-.007.129-1.607.926Zm-2.252-1.167-1.388-.802.007-.128 1.607-.928.221-.004 1.389.802-.007.128-1.607.928-.222.004Zm6.413-1.729-.221.005-1.388-.802.008-.129 1.606-.926.221-.006 1.39.802-.008.129-1.608.927Zm3.269-2.75 1.389.801-.008.129-1.607.926-.221.006-1.389-.802.009-.129 1.605-.927.222-.004Zm-6.097 3.767-.221.004-1.39-.803.008-.127 1.606-.928.223-.004 1.388.802-.008.129-1.606.927Zm-10.146-13.147 1.39.803-.008.128-1.607.927-.221.004-1.389-.802.007-.127 1.607-.929.221-.004Zm-2.03-1.171 1.39.801-.008.128-1.607.928-.222.004-1.388-.802.008-.128 1.606-.927.221-.004Zm-10.378 1.426-3.1-1.789.009-.128 3.9-2.252.222-.006 1.602.926-.007.128-2.065 1.193-.008.128 1.282.74-.008.127-1.606.929-.221.004Zm-1.873-3.731-1.39-.802.008-.129 1.606-.927.221-.005 1.39.802-.008.129-1.606.927-.221.005Zm9.994 8.42-1.39-.801.008-.129 1.606-.926.223-.006 1.388.802-.008.129-1.606.927-.221.004Zm-2.03-1.172-1.39-.802.008-.127 1.606-.928.222-.005 1.389.803-.008.127-1.606.928-.221.004Zm-2.031-1.173-1.39-.801.009-.128 1.605-.928.223-.004 1.389.802-.009.128-1.605.927-.222.004Zm-2.03-1.171-1.39-.803.008-.128 1.606-.927.223-.004 1.388.801-.008.128-1.606.929-.221.004Zm6.318-3.772 1.39.802-.009.127-1.607.928-.221.004-1.389-.802.009-.127 1.605-.928.222-.004Zm-2.031-1.173 1.39.802-.008.129-1.607.926-.221.006-1.389-.802.008-.129 1.606-.927.221-.005Zm-5.449-3.147 1.389.802-.008.129-1.606.926-.221.006-1.39-.802.008-.129 1.607-.927.221-.005Zm2.458 1.419 2.351 1.358-.008.128-1.607.928-.222.004-2.351-1.357.009-.129 1.607-.926.221-.006Zm-4.488-2.591 1.389.802-.009.128-1.605.928-.222.004-1.39-.802.009-.128 1.607-.928.221-.004Zm-2.741 3.187-1.39-.802.008-.127 1.606-.929.223-.004 1.388.803-.008.127-1.606.928-.221.004Z"/><path fill="#33535F" d="m150.462 300.667 16.6 9.589.083-.043 6.265-3.624c1.078-.623 1.77-2.131 1.535-3.348l-2.351-12.172-13.831-11.191-2.766 1.605 2.338 12.172c.235 1.218-.443 2.725-1.522 3.348l-6.351 3.664Z"/><path fill="#17282F" d="M167.062 310.256v3.194l8.671-5.008c1.632-.926 2.669-3.209 2.31-5.048l-2.669-13.916-2.78 1.591 2.351 12.172c.235 1.218-.457 2.725-1.535 3.348l-6.265 3.624-.083.043Z"/><path fill="#263E47" d="m150.462 300.667 16.6 9.589v3.201l-16.602-9.595.002-3.195Z"/><path fill="#33535F" d="M135.219 219.922c-.765.442-1.385 1.563-1.385 2.503v50.953c0 .942.661 2.086 1.476 2.557l63.502 36.669c.816.471 2.096.494 2.86.053.765-.443 1.384-1.563 1.384-2.505V259.2c0-.942-.661-2.086-1.476-2.556l-63.501-36.67c-.815-.47-2.096-.494-2.86-.052Z"/><path fill="#17282F" d="M198.812 312.604c.816.471 2.096.494 2.86.053.765-.443 1.384-1.563 1.384-2.505V259.2c0-.47-.164-.992-.431-1.455l-49.408 28.531 45.595 26.328Z"/><path fill="#263E47" d="M133.834 273.378v-50.953c0-.94.661-1.322 1.476-.852l63.502 36.669c.814.471 1.475 1.615 1.475 2.557v50.952c0 .942-.659 1.324-1.475.853l-63.502-36.669c-.815-.471-1.476-1.615-1.476-2.557Z"/><path fill="#fff" d="m137.449 224.42 60.274 34.793c.652.376 1.18 1.292 1.18 2.044v45.239c0 .753-.528 1.058-1.181.682l-60.273-34.793c-.652-.376-1.181-1.292-1.181-2.044v-45.239c0-.754.53-1.058 1.181-.682Z"/><path fill="#17282F" d="m221.713 389.456 35.747-20.626c.992-.572 1.797-1.966 1.797-3.112l.004-21.804c0-1.147-.804-2.539-1.797-3.112l-24.5-14.144c-.993-.572-2.601-.572-3.593 0l-35.725 20.628c-.992.575-1.797 1.967-1.798 3.113l-.012 21.802c0 1.147.803 2.54 1.795 3.113l24.489 14.142c.993.573 2.602.573 3.593 0Z"/><path fill="#33535F" d="m218.131 363.506-24.485-14.143c-.992-.574-.992-1.503 0-2.077l35.725-20.628c.992-.573 2.6-.573 3.593 0l24.5 14.144c.993.572.993 1.501 0 2.073l-35.74 20.633c-.991.572-2.6.572-3.593-.002Z"/><path fill="#263E47" d="M219.921 363.938v25.95c.65 0 1.3-.152 1.798-.429l35.737-20.624c.996-.581 1.798-1.964 1.798-3.113l.014-21.813c0-.959-.592-2.074-1.365-2.757.505.557.368 1.257-.433 1.719l-35.751 20.638c-.498.277-1.134.429-1.798.429ZM248.514 342.12c-.642-.379-1.699-.375-2.36.007l-25.695 14.837c-.661.381-.676.998-.035 1.376.642.378 1.699.375 2.36-.007l25.694-14.837c.661-.383.677-.998.036-1.376Z"/><path fill="#26B6A6" d="M248.514 342.12c-.642-.379-1.699-.375-2.36.007l-15.643 9.034 2.325 1.369 15.642-9.034c.661-.383.677-.998.036-1.376Z"/><path fill="#263E47" d="M244.057 339.546c-.641-.378-1.698-.375-2.359.007l-25.695 14.836c-.662.384-.677.999-.035 1.377.642.379 1.698.375 2.359-.007l25.694-14.837c.661-.382.678-.999.036-1.376Z"/><path fill="#26B6A6" d="M244.057 339.546c-.641-.378-1.698-.375-2.361.005l-2.095 1.207 2.325 1.369 2.095-1.206c.661-.382.678-.998.036-1.375Z"/><path fill="#263E47" d="M239.601 336.973c-.641-.379-1.697-.375-2.359.007l-25.694 14.836c-.663.382-.678.998-.036 1.377.642.377 1.698.375 2.359-.007l25.694-14.838c.663-.382.678-.997.036-1.375Z"/><path fill="#26B6A6" d="M239.601 336.973c-.641-.379-1.697-.375-2.359.007l-9.085 5.246 2.325 1.368 9.083-5.245c.663-.383.678-.998.036-1.376Z"/><path fill="#263E47" d="M235.144 334.399c-.642-.378-1.699-.375-2.36.007l-25.695 14.836c-.661.384-.678.999-.035 1.377.642.379 1.699.375 2.36-.007l25.694-14.837c.661-.382.677-.999.036-1.376Z"/><path fill="#26B6A6" d="M235.144 334.399c-.642-.378-1.699-.375-2.36.007l-18.401 10.624 2.324 1.37 18.401-10.625c.661-.382.677-.998.036-1.376Z"/><path fill="#263E47" d="M230.688 331.826c-.642-.379-1.699-.375-2.36.007l-25.695 14.837c-.661.381-.676.997-.035 1.376.642.377 1.699.375 2.36-.007l25.694-14.838c.661-.382.677-.997.036-1.375Z"/><path fill="#26B6A6" d="M230.688 331.826c-.642-.379-1.699-.376-2.36.007l-23.143 13.356 2.323 1.37 23.144-13.358c.661-.382.677-.997.036-1.375Z"/><path fill="#263E47" d="M217.119 382.361v-4.418c0-1.146-.628-2.438-1.404-2.885-.776-.448-1.405.118-1.405 1.263v4.418c0 1.147.629 2.439 1.405 2.887.776.446 1.404-.119 1.404-1.265Z"/><path fill="#26B6A6" d="M215.647 375.722c.515.297.931 1.019.931 1.613 0 .593-.416.834-.931.536-.514-.296-.931-1.018-.931-1.611 0-.595.417-.836.931-.538Z"/><path fill="#263E47" d="M212.686 379.816v-4.418c0-1.145-.629-2.437-1.405-2.885-.776-.448-1.404.117-1.404 1.264v4.418c0 1.145.628 2.437 1.404 2.886.776.448 1.405-.118 1.405-1.265Z"/><path fill="#26B6A6" d="M211.281 378.266c.515.297.931 1.019.931 1.613 0 .593-.416.834-.931.538-.514-.298-.931-1.02-.931-1.613 0-.594.417-.834.931-.538Z"/><path fill="#17282F" d="M129.888 434.394c-.526.697-.62 2.309-1.154 4.491-.534 2.18-.714 3.87-.357 4.938.357 1.066 2.701 3.469 5.576 4.359 2.874.889 6.411.142 9.834-1.904 3.421-2.046 6.005-4.535 10.88-5.922 4.875-1.388 7.315-2.514 9.623-4.368 2.702-2.171 4.446-5.421-.725-6.808-5.214-1.398-14.552.765-24.781 1.209l-8.896 4.005Z"/><path fill="#F6879F" d="M129.888 427.997v7.664s1.053 2.547 5.422 2.709c2.664.1 4.605-1.119 5.795-2.774v-7.599h-11.217Z"/><path fill="#263E47" d="M144.522 377.859c.056 9.535-2.676 53.497-2.676 53.497s-3.899 4.932-12.365 0l-2.876-48.783 17.917-4.714Z"/><path fill="#17282F" d="M152.887 449.378c-.527.699-.622 2.311-1.155 4.492-.534 2.181-.714 3.87-.357 4.938.357 1.067 2.701 3.469 5.575 4.359 2.876.89 6.412.143 9.834-1.902 3.423-2.048 6.006-4.536 10.881-5.924 4.875-1.387 7.315-2.513 9.623-4.368 2.703-2.17 4.445-5.42-.724-6.807-5.214-1.4-14.553.765-24.782 1.209l-8.895 4.003Z"/><path fill="#F6879F" d="M152.887 442.982v7.663s1.051 2.549 5.42 2.711c2.665.1 4.607-1.121 5.796-2.776v-7.598h-11.216Z"/><path fill="#263E47" d="M167.521 392.845c.055 9.533-2.678 53.497-2.678 53.497s-3.897 4.932-12.364 0l-2.875-48.783 17.917-4.714Z"/><path fill="#33535F" d="M137.885 483.321c0 .392-.047.747-.115 1.069-.173.68-.506 1.186-.967 1.496l-.034.023c-.747.483-1.806.437-2.968-.229-2.254-1.3-4.083-4.464-4.083-7.075 0-1.266.448-2.141 1.151-2.589l-.013-.012.197-.115h.011c.495-.218 1.081-.253 1.737-.069a4.61 4.61 0 0 1 1 .439c2.254 1.299 4.084 4.462 4.084 7.062Z"/><path fill="#17282F" d="M136.769 474.544c-.644-.368-1.265-.553-1.817-.553-.426 0-.816.116-1.151.323l-.102.058-2.635 1.517c.495-.218 1.082-.253 1.737-.069a4.61 4.61 0 0 1 1 .439c2.254 1.299 4.084 4.462 4.084 7.062 0 .392-.047.748-.115 1.07-.172.679-.506 1.185-.966 1.495l2.702-1.565.047-.022.23-.138.069-.045c.621-.461 1-1.336 1-2.509 0-2.6-1.829-5.763-4.083-7.063Z"/><path fill="#33535F" d="M93.713 459.564c0 .392-.046.748-.115 1.071-.173.679-.506 1.185-.967 1.495l-.034.024c-.747.482-1.805.437-2.967-.231-2.254-1.299-4.084-4.462-4.084-7.074 0-1.266.45-2.14 1.15-2.59l-.01-.011.194-.115h.011c.496-.218 1.082-.252 1.738-.069.322.093.655.242 1 .437 2.255 1.301 4.084 4.464 4.084 7.063Z"/><path fill="#17282F" d="M92.597 450.788c-.643-.369-1.266-.552-1.818-.552-.424 0-.816.114-1.149.322l-.104.057-2.634 1.518c.495-.218 1.081-.252 1.737-.069.322.093.655.242 1.001.437 2.254 1.3 4.083 4.464 4.083 7.063 0 .392-.046.748-.115 1.071-.173.679-.506 1.185-.967 1.495l2.704-1.564.046-.024.23-.137.068-.047c.621-.459 1.002-1.333 1.002-2.508 0-2.599-1.83-5.762-4.084-7.062Z"/><path fill="#33535F" d="M101.592 492.598c0 .39.045.746.115 1.069.172.679.506 1.185.966 1.495l.035.023c.747.483 1.806.437 2.966-.229 2.256-1.3 4.085-4.464 4.085-7.075 0-1.266-.449-2.14-1.151-2.589l.011-.012-.195-.115h-.011c-.495-.218-1.082-.253-1.737-.069a4.755 4.755 0 0 0-1.002.437c-2.254 1.3-4.082 4.464-4.082 7.065Z"/><path fill="#17282F" d="M102.708 483.819c.644-.367 1.265-.552 1.817-.552.426 0 .816.115 1.149.323l.104.057 2.635 1.519c-.495-.219-1.082-.254-1.737-.07a4.755 4.755 0 0 0-1.002.437c-2.254 1.3-4.082 4.464-4.082 7.065 0 .39.045.747.115 1.069.172.679.506 1.185.966 1.495l-2.702-1.564-.047-.022-.23-.139-.069-.047c-.62-.459-1.001-1.333-1.001-2.508 0-2.599 1.829-5.762 4.084-7.063Z"/><path fill="#33535F" d="M72.919 478.549c0 .392.045.749.115 1.071.172.678.506 1.184.966 1.495l.033.024c.749.482 1.807.437 2.968-.231 2.255-1.3 4.084-4.464 4.084-7.074 0-1.266-.449-2.14-1.15-2.59l.01-.011-.194-.114h-.011c-.495-.219-1.082-.253-1.737-.07a4.737 4.737 0 0 0-1.002.437c-2.254 1.301-4.082 4.464-4.082 7.063Z"/><path fill="#17282F" d="M74.033 469.773c.645-.368 1.266-.552 1.819-.552.425 0 .816.114 1.15.321l.103.058 2.635 1.519c-.495-.219-1.082-.253-1.737-.07a4.74 4.74 0 0 0-1.002.437c-2.254 1.301-4.082 4.464-4.082 7.063 0 .392.045.749.115 1.071.172.678.506 1.184.966 1.495l-2.704-1.564-.045-.024-.23-.137-.069-.047c-.621-.46-1.001-1.335-1.001-2.508 0-2.599 1.83-5.762 4.082-7.062Z"/><path fill="#33535F" d="M128.343 461.321c0 .391.048.748.117 1.071.171.677.504 1.184.965 1.495l.035.022c.748.484 1.806.437 2.968-.23 2.254-1.3 4.082-4.463 4.082-7.075 0-1.265-.448-2.139-1.149-2.588l.011-.011-.195-.116h-.012c-.494-.217-1.082-.253-1.738-.068-.32.091-.655.241-.999.437-2.255 1.299-4.085 4.463-4.085 7.063Z"/><path fill="#17282F" d="M129.46 452.544c.644-.369 1.265-.553 1.817-.553.426 0 .817.116 1.151.322l.104.058 2.633 1.518c-.494-.217-1.082-.253-1.737-.068a4.57 4.57 0 0 0-1 .437c-2.255 1.299-4.084 4.463-4.084 7.063 0 .391.047.748.116 1.071.171.677.505 1.183.965 1.495l-2.702-1.565-.047-.023-.23-.139-.069-.045c-.621-.461-1-1.335-1-2.508 0-2.6 1.828-5.764 4.083-7.063Z"/><path fill="#F3F2F1" d="m103.969 452.689-14.578-4.18v3.113l14.578 8.411v-7.344Z"/><path fill="#FAFAF9" d="m103.969 452.689 1.438-.881-14.622-3.996-1.394.697 14.578 4.18Z"/><path fill="#F3F2F1" d="m110.276 461.982 20.668-7.745v-3.152l-20.668 1.848v9.049Z"/><path fill="#FAFAF9" d="m130.944 451.085-1.519-.401-20.377 1.317 1.228.932 20.668-1.848Z"/><path fill="#FAFAF9" d="M110.829 460.986c0 2.342-7.189 2.342-7.189 0v-20.441h7.189v20.441Z"/><path fill="#FAFAF9" d="m105.442 455.668-3.954 25.667h2.702l3.699-25.667c-.927.262-1.713.193-2.447 0Z"/><path fill="#F3F2F1" d="M107.889 455.668v7.049l-3.699 22.964v-4.346l3.699-25.667Z"/><path fill="#E7E8E5" d="M104.19 485.681h-2.702v-4.346h2.702v4.346Z"/><path fill="#F3F2F1" d="m109.118 462.508 26.653 13.972v-4.304l-26.653-16.489v6.821Z"/><path fill="#FAFAF9" d="M109.118 455.687c.638-.09 1.226-.306 1.711-.775l26.605 16.141-1.663 1.123-26.653-16.489Z"/><path fill="#E7E8E5" d="M135.771 476.48v-4.304l1.663-1.122v4.17l-1.663 1.256Z"/><path fill="#F3F2F1" d="m75.517 471.544 28.474-9.75v-6.396l-28.474 11.845v4.301Z"/><path fill="#FAFAF9" d="M103.991 455.398c-.232-.063-.332-.478-.351-1.105l-28.965 12.602.842.348 28.474-11.845Z"/><path fill="#E7E8E5" d="M74.675 466.895v4.164l.843.485v-4.301l-.843-.348Z"/><path fill="#EDEDEB" d="M101.148 404.933h12.175v42.16c0 3.498-12.175 3.498-12.175 0v-42.16Z"/><path fill="#26B6A6" d="M154.114 408.713v-.001a6.083 6.083 0 0 0-3.042-5.269l-42.59-24.591a6.081 6.081 0 0 0-6.083 0l-42.587 24.593a6.083 6.083 0 0 0-3.041 5.268l48.67 28.108 48.673-28.108Z"/><path fill="#FAFAF9" d="M154.114 408.712v3.519l-45.663 26.367a5.968 5.968 0 0 1-3.002.805 5.976 5.976 0 0 1-3.014-.805l-45.663-26.367v-3.519l45.663 26.366a5.99 5.99 0 0 0 3.014.818c1.034 0 2.07-.277 3.002-.818l45.663-26.366Z"/><path fill="#F3F2F1" d="M154.114 408.712v3.519l-45.663 26.367a5.968 5.968 0 0 1-3.002.805v-3.507c1.034 0 2.07-.277 3.002-.818l45.663-26.366Z"/><path fill="#1DB3A0" d="M105.449 435.896c1.034 0 2.07-.277 3.002-.818l45.663-26.366c0-.96-.238-1.883-.652-2.712l-46.01 26.567a4.01 4.01 0 0 1-4.007.002l-46.027-26.557a6.06 6.06 0 0 0-.648 2.657v.044l.002.002v-.003l45.663 26.366a5.99 5.99 0 0 0 3.014.818Z"/><path fill="#DBDCD9" d="m105.441 436.821.008-.005v-.92c1.034 0 2.07-.277 3.002-.818l45.663-26.366-45.663 26.366a5.983 5.983 0 0 1-3.002.818 5.99 5.99 0 0 1-3.014-.818l-45.663-26.366v.003l48.669 28.106Z"/><path fill="#D5D7D4" d="m105.449 436.816 48.665-28.103v-.001l-45.663 26.366a5.983 5.983 0 0 1-3.002.818v.92Z"/><path fill="#17282F" d="M71.504 389.539s39.508-11.923 46.376-13.803c6.868-1.88 20.042-5.048 23.893-3.323 3.849 1.725 5.803 3.725 6.157 9.28.073 1.045 0 6.128 0 6.128s-19.095 5.911-34.74 5.911c-15.644 0-41.686-4.193-41.686-4.193Z"/><path fill="#F6879F" d="m105.271 322.383-2.627 14.168-14.523 1.675 2.095-19.553 15.055 3.71Z"/><path fill="#F47089" d="M118.828 311.072s1.908 5.843 1.324 6.202c-.582.36-3.177.186-3.177.186l1.853-6.388Z"/><path fill="#F6879F" d="M115.087 292.34c2.502 2.632 4.88 7.041 3.831 18.203-1.148 12.234-4.804 15.495-6.345 16.213-2.301 1.072-10.132-.805-12.678-2.68-3.188-2.349-9.189-8.196-10.753-15.404-1.84-8.478.514-18.112 6.709-20.06 8.716-2.741 17.119 1.5 19.236 3.728Z"/><path fill="#17282F" d="M120.796 298.36c-1.485 2.802-4.291 9.768-12.239 11.745 0 0-.439-4.749-4.375-4.796-3.961-.047-5.277 4.8-3.323 8.189 1.955 3.389 4.412 2.607 4.412 2.607s-.395 6.67-5.212 9.054c0 0-5.78 2.633-11.057-.733-2.375-1.515-5.117-8.081-6.533-13.354-2.995-11.156-2.462-19.696 4.63-21.431 1.49-4.677 3.893-6.18 8.353-6.475 9.603-.633 15.81 6.475 23.793 6.475 4.164 0 3.247 5.518 1.551 8.719Z"/><path fill="#17282F" d="m87.275 290.435-4.806-2.058a2.614 2.614 0 1 1 4.806 2.058Z"/><path fill="#263E47" d="M71.6 384.79c.015 7.59-.713 15.489 2.451 21.051 3.058 5.376 17.501 17.008 33.645 14.29 10.547-1.775 44.631-14.766 44.631-14.766s15.084-5.58 15.153-9.549c.017-.971.104-1.979.041-3.03-.319-5.28-2.453-10.971-13.493-10.678-12.059.32-47.836 6.181-47.836 6.181l-34.591-3.499Z"/><path fill="#33535F" d="M74.408 335.724c1.305-3.966 6.333-8.28 11.366-7.345 9.246 1.717 19.358 4.713 22.04 5.504h.003s-1.203 20.374 9.249 26.542l1.379 25.948s-2.589 5.168-6.58 7.707c-4.318 2.746-10.327 6.861-21.183 5.961-12.885-1.068-19.178-10.502-19.178-10.502s.117-24.518.532-35.493c.353-9.324 1.477-15.6 2.372-18.322Z"/><path fill="#263E47" d="M117.333 365.451s-5.461-5.665-7.384-12.243c0 0 0 9.622 7.491 14.82l-.107-2.577Z"/><path fill="#F6879F" d="M107.817 333.883c5.706 1.712 9.182 2.022 15.486 11.723 6.305 9.701 20.117 28.944 21.485 31.256 1.902 3.217 2.722 7.046 1.079 10.002-1.533 2.758-5.999 1.55-12.254-3.94-6.051-5.31-18.04-20.328-18.04-20.328s-6.25-13.686-7.756-28.713Z"/><path fill="#33535F" d="M107.817 333.883s5.086 1.064 8.249 2.612c.973.477 4.18 1.706 6.237 5.123 4.411 7.33 10.718 17.765 10.718 17.765s1.077 9.087-9.956 12.254l-5.87-6.334c-2.391-2.581-4.39-5.508-5.847-8.711-2.486-5.463-5.321-14.136-3.531-22.709Z"/><path fill="#F6879F" d="M143.946 388.222c5.279-.639 17.108-16.853 21.053-22.01 3.945-5.155 7.241-8.211 10.8-10.164 3.56-1.953 6.635-5.03 7.604-11.24.902-5.784-4.486-9.469-8.891-3.656-2.797 3.69-5.619 6.022-5.769 5.407-.148-.617.87-3.186.845-5.864-.03-3.221-2.284-1.104-2.958.025-.675 1.13-1.462 2.967-2.382 5.323-1.124 2.883-.659 5.801-2.03 7.767-1.369 1.965-19.762 19.589-19.762 19.589l1.49 14.823Z"/><path fill="#26B6A6" d="M54.407 338.428v54.405l43.184 25.029v-54.376l-43.184-25.058Z"/><path fill="#1DB3A0" d="M97.59 417.862v-49.871c0-2.361-.714-3.537-1.662-4.057a3.67 3.67 0 0 0-1.958-.542c-2.833 0-5.684 2.82-5.684 2.82l-.013-3.623-33.866-19.613 33.866 19.613.013 3.623-33.879-19.689v46.31l43.184 25.029Z"/><path fill="#26B6A6" d="m101.517 415.595-3.926 2.267v-49.871c0-2.361-.715-3.537-1.663-4.057-3.29-2.028-7.642 2.278-7.642 2.278l-.013-3.623-41.716-24.159c3.925-2.268 6.5-3.755 14.42.74 7.919 4.494 31.163 17.935 34.84 20.203 2.947 1.818 5.7 3.937 5.7 8.878v47.344Z"/><path fill="#F4F4F2" d="m72.6 345.837.004-.024a3124.197 3124.197 0 0 0-11.074-6.329c2.648 1.506 6.68 3.82 11.07 6.353Z"/><path fill="#7D969B" d="M95.816 359.373c-2.424-1.575-13.668-8.082-23.213-13.56l-.002.024c9.53 5.496 20.755 12.017 23.215 13.536Z"/><path fill="#F4F4F2" d="M46.647 338.377Zm.033-.019c2.014-1.162 3.686-2.102 5.939-2.102-2.255 0-3.925.94-5.94 2.102Z"/><path fill="#5CC8BC" d="M88.273 362.589c1.4-1.539 4.181-3.217 7.423-3.217l.12.001c-2.46-1.518-13.685-8.04-23.215-13.536a2287.73 2287.73 0 0 0-11.625-6.667c-3.745-2.126-6.295-2.913-8.357-2.913-2.253 0-3.925.939-5.939 2.101a.079.079 0 0 0-.013.007l-.02.012-.09.053 41.716 24.159Z"/><path fill="#26B6A6" d="m88.286 366.212-41.73-24.252v-3.53l41.717 24.159.013 3.623Z"/><path fill="#14B099" d="m88.286 366.212-.013-3.623-41.716-24.159v3.53l41.729 24.252Z"/><path fill="#E1E2DF" d="M87.66 435.171c-.65 0-1.3-.17-1.89-.512a3.737 3.737 0 0 1-1.89-3.271v-28.539a1.934 1.934 0 1 1 3.866 0v28.387l3.075-1.777a1.933 1.933 0 0 1 1.932 3.349l-3.205 1.852a3.775 3.775 0 0 1-1.889.511ZM64.05 421.41c-.65 0-1.298-.17-1.89-.513a3.739 3.739 0 0 1-1.889-3.271v-28.539a1.934 1.934 0 0 1 3.866 0v28.386l3.074-1.774a1.934 1.934 0 0 1 1.933 3.349l-3.205 1.85a3.766 3.766 0 0 1-1.888.512Z"/></g><defs><clipPath id="a"><path fill="#fff" d="M603 0H0v575h603z"/></clipPath></defs></svg>